<svg width="288" height="460" viewBox="0 0 288 460" fill="none" xmlns="http://www.w3.org/2000/svg">
    <rect x="131" y="274" width="26" height="184" fill="#EFEFEF" stroke="#E6E6E6" stroke-width="4"/>
    <circle cx="144" cy="144" r="136" fill="#DE2B2B" stroke="#E6E6E6" stroke-width="16"/>
    <circle cx="144" cy="144" r="134" fill="#DE2B2B" stroke="#EFEFEF" stroke-width="12"/>
    <path d="M113.891 148.942H105.893V139.74H86.8009V148.942H78.6309L101.335 114.8H80.5229L54.9809 151.78V164.68H86.1989V175H105.893V164.68H113.891V148.942ZM143.984 176.376C159.894 176.376 171.246 164.852 171.246 144.9C171.246 124.948 159.894 113.424 143.984 113.424C128.074 113.424 116.722 124.948 116.722 144.9C116.722 164.852 128.074 176.376 143.984 176.376ZM143.984 160.122C140.028 160.122 137.104 156.51 137.104 144.9C137.104 133.29 140.028 129.678 143.984 129.678C147.94 129.678 150.864 133.29 150.864 144.9C150.864 156.51 147.94 160.122 143.984 160.122ZM234.66 148.942H226.662V139.74H207.57V148.942H199.4L222.104 114.8H201.292L175.75 151.78V164.68H206.968V175H226.662V164.68H234.66V148.942Z" fill="white"/>
</svg>
