<svg width="50" height="50" viewBox="0 0 50 50" fill="none" xmlns="http://www.w3.org/2000/svg">
    <g clip-path="url(#clip0_485_7467)">
        <path d="M13.3937 20.3293C11.8747 21.1014 10.1861 21.4793 8.48298 21.4285C6.77984 21.4793 5.09122 21.1014 3.57227 20.3293V40.2454C4.01728 40.2005 4.46428 40.1782 4.91155 40.1785C6.61469 40.1276 8.30331 40.5055 9.82227 41.2776V34.8213C9.82227 33.3927 11.2366 32.2177 13.3937 31.6383V20.3293Z" fill="#196250"/>
        <path d="M4.91071 45.5355C7.62283 45.5355 9.82143 44.736 9.82143 43.7498C9.82143 42.7636 7.62283 41.9641 4.91071 41.9641C2.1986 41.9641 0 42.7636 0 43.7498C0 44.736 2.1986 45.5355 4.91071 45.5355Z" fill="#196250"/>
        <path d="M0 46.2222V48.2141C0 48.9284 1.95804 49.9998 4.91071 49.9998C7.86339 49.9998 9.82143 48.9284 9.82143 48.2141V46.2222C8.30247 46.9942 6.61386 47.3722 4.91071 47.3213C3.20757 47.3722 1.51896 46.9942 0 46.2222Z" fill="#196250"/>
        <path d="M26.3585 8.15164C27.0188 8.64746 27.8212 8.91762 28.6469 8.92217C27.8732 7.59349 27.2609 6.17723 26.8228 4.70342C26.6904 4.22831 26.9682 3.73582 27.4434 3.60342C27.9185 3.47102 28.411 3.74884 28.5434 4.22396C29.0406 5.90142 29.801 7.48933 30.796 8.92842H31.7139C32.7109 7.49088 33.4711 5.9029 33.9657 4.22485C34.0978 3.74949 34.5903 3.47127 35.0657 3.60342C35.541 3.73558 35.8193 4.22806 35.6871 4.70342C35.2495 6.17596 34.6377 7.59102 33.8648 8.9186C34.6741 8.90621 35.4587 8.6377 36.1059 8.15164C38.196 6.51771 38.9291 3.91949 39.1701 2.02664C39.2183 1.70227 39.0683 1.38045 38.7889 1.20878C38.4809 1.00797 38.0835 1.00797 37.7755 1.20878C37.15 1.60101 36.4234 1.80152 35.6853 1.78556C34.651 1.79392 33.6532 1.40386 32.8987 0.696279C32.4574 0.25069 31.8562 0 31.2291 0C30.6019 0 30.0008 0.25069 29.5594 0.696279C28.805 1.40333 27.8076 1.79333 26.7737 1.78556C26.0392 1.80177 25.3159 1.60249 24.6934 1.21235C24.5424 1.11586 24.3672 1.06416 24.188 1.06324C24.0064 1.06386 23.8287 1.11586 23.6755 1.21324C23.3972 1.3845 23.2479 1.70523 23.296 2.02842C23.5398 3.92128 24.2701 6.51771 26.3585 8.15164V8.15164Z" fill="#196250"/>
        <path d="M13.8384 7.14272C16.5506 7.14272 18.7492 6.34323 18.7492 5.357C18.7492 4.37078 16.5506 3.57129 13.8384 3.57129C11.1263 3.57129 8.92773 4.37078 8.92773 5.357C8.92773 6.34323 11.1263 7.14272 13.8384 7.14272Z" fill="#196250"/>
        <path d="M8.48298 19.6427C11.1951 19.6427 13.3937 18.8432 13.3937 17.857C13.3937 16.8708 11.1951 16.0713 8.48298 16.0713C5.77087 16.0713 3.57227 16.8708 3.57227 17.857C3.57227 18.8432 5.77087 19.6427 8.48298 19.6427Z" fill="#196250"/>
        <path d="M49.3001 28.7759C46.3947 16.4446 38.6376 11.4 36.2777 10.1232C35.8431 10.3344 35.3831 10.489 34.909 10.583L36.567 12.1303C36.7403 12.2919 36.8423 12.5157 36.8505 12.7525C36.8587 12.9893 36.7725 13.2196 36.6108 13.3928C36.4492 13.5661 36.2254 13.6681 35.9886 13.6763C35.7518 13.6845 35.5214 13.5983 35.3483 13.4366L32.4322 10.7142H32.1465V13.3928C32.1465 13.8859 31.7467 14.2857 31.2536 14.2857C30.7605 14.2857 30.3608 13.8859 30.3608 13.3928V10.7142H30.0751L27.159 13.4366C26.9858 13.5983 26.7555 13.6845 26.5187 13.6763C26.2819 13.6681 26.058 13.5661 25.8965 13.3928C25.7347 13.2198 25.6482 12.9895 25.6563 12.7527C25.6643 12.5159 25.7662 12.292 25.9393 12.1303L27.5885 10.5919C27.1112 10.4991 26.6478 10.3451 26.2099 10.1339C23.9899 11.3848 21.9884 12.9888 20.284 14.883C20.2768 14.8901 20.2706 14.8982 20.2634 14.9062C19.6115 15.6184 18.9981 16.365 18.426 17.1428C18.1302 17.5277 17.5811 17.6057 17.1898 17.3185C16.7984 17.0314 16.7082 16.4842 16.9867 16.0866C17.5697 15.2919 18.1617 14.575 18.7492 13.9169V7.82764C17.2304 8.6003 15.5417 8.97886 13.8384 8.92853C12.1353 8.97941 10.4467 8.60147 8.92773 7.82942V14.2973C12.5197 14.4125 15.1777 15.9044 15.1777 17.8571V31.3169C15.6227 31.272 16.0697 31.2497 16.517 31.25C20.334 31.25 23.2135 32.7857 23.2135 34.8214V44.6428H39.4545C40.3876 44.6428 45.184 44.4642 47.9474 40.9821C50.1081 38.25 50.5635 34.1437 49.3001 28.7759ZM35.7135 28.5714C35.7135 30.5438 34.1145 32.1428 32.142 32.1428V33.0357C32.142 33.5288 31.7423 33.9285 31.2492 33.9285C30.7561 33.9285 30.3563 33.5288 30.3563 33.0357V32.1428C28.3839 32.1428 26.7849 30.5438 26.7849 28.5714C26.7849 28.0783 27.1846 27.6785 27.6777 27.6785C28.1708 27.6785 28.5706 28.0783 28.5706 28.5714C28.5706 29.5576 29.3701 30.3571 30.3563 30.3571V26.7857C28.3839 26.7857 26.7849 25.1867 26.7849 23.2142C26.7849 21.2418 28.3839 19.6428 30.3563 19.6428V18.75C30.3563 18.2568 30.7561 17.8571 31.2492 17.8571C31.7423 17.8571 32.142 18.2568 32.142 18.75V19.6428C34.1145 19.6428 35.7135 21.2418 35.7135 23.2142C35.7135 23.7074 35.3137 24.1071 34.8206 24.1071C34.3275 24.1071 33.9277 23.7074 33.9277 23.2142C33.9277 22.228 33.1282 21.4285 32.142 21.4285V25C34.1145 25 35.7135 26.5989 35.7135 28.5714ZM46.5483 39.8687C44.2947 42.7134 40.2438 42.8571 39.4545 42.8571C38.9614 42.8571 38.5617 42.4574 38.5617 41.9642C38.5617 41.4711 38.9614 41.0714 39.4545 41.0714C40.1001 41.0714 43.4054 40.9598 45.1474 38.7598C45.9711 37.5959 46.4104 36.2035 46.4036 34.7776C46.4334 34.2879 46.8481 33.9112 47.3385 33.9285C47.575 33.9399 47.7974 34.0447 47.9567 34.22C48.1159 34.3954 48.199 34.6268 48.1876 34.8634C48.18 36.6625 47.6065 38.4137 46.5483 39.8687Z" fill="#196250"/>
        <path d="M28.5723 23.2142C28.5723 24.2004 29.3718 24.9999 30.358 24.9999V21.4285C29.3718 21.4285 28.5723 22.228 28.5723 23.2142Z" fill="#196250"/>
        <path d="M32.1426 30.3571C33.1288 30.3571 33.9283 29.5576 33.9283 28.5714C33.9283 27.5851 33.1288 26.7856 32.1426 26.7856V30.3571Z" fill="#196250"/>
        <path d="M11.6074 37.2937V46.4285C11.6074 47.1428 13.5655 48.2142 16.5181 48.2142C19.4708 48.2142 21.4289 47.1428 21.4289 46.4285V37.2937C19.9099 38.0657 18.2213 38.4437 16.5181 38.3928C14.815 38.4437 13.1264 38.0657 11.6074 37.2937Z" fill="#8FBA44"/>
        <path d="M16.5181 36.6071C19.2302 36.6071 21.4289 35.8076 21.4289 34.8214C21.4289 33.8351 19.2302 33.0356 16.5181 33.0356C13.806 33.0356 11.6074 33.8351 11.6074 34.8214C11.6074 35.8076 13.806 36.6071 16.5181 36.6071Z" fill="#8FBA44"/>
        <path d="M42.5896 6.24997C42.5896 7.71425 41.0003 8.91068 39.0181 8.92854C38.6849 8.9292 38.3525 8.89327 38.0271 8.82139C37.9796 8.88129 37.9222 8.93262 37.8574 8.97318C38.0003 9.06247 38.161 9.16068 38.3306 9.25889C38.8753 9.61604 39.5092 10.0535 40.2056 10.5982C40.2771 10.6518 40.3396 10.7053 40.411 10.7678C44.8574 11.0982 46.2681 12.9553 46.3128 13.0089C46.4811 13.2516 46.7585 13.3953 47.0539 13.3928C47.2294 13.3949 47.4012 13.3418 47.5449 13.241C47.9523 12.9686 48.0639 12.4186 47.7949 12.0089C47.7235 11.9018 46.4914 10.1339 42.8931 9.32139C43.8117 8.56288 44.353 7.44099 44.3753 6.24997C44.2531 4.26837 42.875 2.588 40.9556 2.08032C40.9541 2.14021 40.9481 2.19989 40.9378 2.25889C40.8691 2.80318 40.7677 3.34284 40.6342 3.87497C41.7128 4.1885 42.489 5.1312 42.5896 6.24997V6.24997Z" fill="#196250"/>
    </g>
    <defs>
        <clipPath id="clip0_485_7467">
            <rect width="50" height="50" fill="white"/>
        </clipPath>
    </defs>
</svg>
