<svg width="50" height="50" viewBox="0 0 50 50" fill="none" xmlns="http://www.w3.org/2000/svg">
    <path d="M20.3704 10.1853H9.25926C7.21343 10.1853 5.55556 11.8434 5.55556 13.889V19.001C2.17153 21.716 0 25.8795 0 30.5557C0 38.7375 6.63299 45.3705 14.8148 45.3705C17.249 45.3705 19.5398 44.7723 21.5657 43.7321C20.5042 42.2089 19.7007 40.4988 19.1962 38.662C17.8855 39.3737 16.4076 39.8149 14.8148 39.8149C9.70903 39.8149 5.55556 35.6615 5.55556 30.5557C5.55556 25.5881 9.49653 21.5531 14.4119 21.337L14.4446 21.2964H21.4424L21.4578 21.2801C22.9148 21.195 24.0741 19.9975 24.0741 18.5186V13.889C24.0741 11.8435 22.4157 10.1853 20.3704 10.1853ZM14.8148 41.6668C15.3262 41.6668 15.7407 42.0814 15.7407 42.5927C15.7407 43.1041 15.3262 43.5186 14.8148 43.5186C14.3035 43.5186 13.8889 43.1041 13.8889 42.5927C13.8889 42.0814 14.3035 41.6668 14.8148 41.6668ZM14.8148 17.5927C13.7917 17.5927 12.963 16.7635 12.963 15.7409C12.963 14.7182 13.7917 13.889 14.8148 13.889C15.8375 13.889 16.6667 14.7182 16.6667 15.7409C16.6667 16.7635 15.8375 17.5927 14.8148 17.5927Z" fill="#196250"/>
    <path d="M35.1862 5.05403H31.4825C31.4675 5.05403 31.4535 5.05832 31.4386 5.05832C31.4558 4.91584 31.4825 4.77649 31.4825 4.62973C31.4825 2.59246 29.8156 0.926025 27.7787 0.926025H24.075C22.9632 0.926025 21.9732 1.43285 21.2932 2.21503C20.6128 1.43285 19.6231 0.926025 18.5109 0.926025H14.8072C12.7704 0.926025 11.1035 2.59246 11.1035 4.62973C11.1035 6.66688 12.7704 8.33355 14.8072 8.33355H18.5109C19.6232 8.33355 20.6128 7.82672 21.2932 7.04443C21.9732 7.82672 22.9632 8.33343 24.075 8.33343H27.7787C27.7937 8.33343 27.8072 8.32938 27.8222 8.32892C27.8054 8.47128 27.7787 8.61109 27.7787 8.75774C27.7787 10.7948 29.4452 12.4614 31.4825 12.4614H35.1862C37.223 12.4614 38.8899 10.7948 38.8899 8.75774C38.8899 6.7207 37.223 5.05403 35.1862 5.05403ZM18.5109 6.48158H14.8072C13.7864 6.48158 12.9554 5.65079 12.9554 4.62973C12.9554 3.60866 13.7864 2.77788 14.8072 2.77788H18.5109C19.5322 2.77788 20.3628 3.60866 20.3628 4.62973C20.3628 5.65091 19.5322 6.48158 18.5109 6.48158ZM27.7787 6.48158H24.075C23.0537 6.48158 22.2232 5.65079 22.2232 4.62973C22.2232 3.60866 23.0537 2.77788 24.075 2.77788H27.7787C28.7996 2.77788 29.6306 3.60866 29.6306 4.62973C29.6306 5.65091 28.7996 6.48158 27.7787 6.48158ZM35.1862 10.6097H31.4825C30.4612 10.6097 29.6306 9.77892 29.6306 8.75785C29.6306 7.73679 30.4612 6.906 31.4825 6.906H35.1862C36.207 6.906 37.038 7.73679 37.038 8.75785C37.038 9.77892 36.207 10.6097 35.1862 10.6097Z" fill="#8FBA44"/>
    <path d="M45.9123 24.0597C45.1993 25.7 43.5667 26.8519 41.6674 26.8519H40.6841C42.9533 28.541 44.4452 31.2198 44.4452 34.2593C44.4452 39.3651 40.2917 43.5185 35.1859 43.5185C30.0801 43.5185 25.9266 39.3651 25.9266 34.2593C25.9266 29.2917 29.8676 25.2567 34.783 25.0407L34.8157 25H41.8135L41.8288 24.9837C43.2859 24.8986 44.4452 23.7011 44.4452 22.2222V17.5926C44.4452 15.547 42.7868 13.8889 40.7415 13.8889H29.6304C27.5845 13.8889 25.9266 15.547 25.9266 17.5926V22.7047C22.5426 25.4196 20.3711 29.5831 20.3711 34.2593C20.3711 42.4411 27.0041 49.0741 35.1859 49.0741C43.3677 49.0741 50.0007 42.4411 50.0007 34.2593C50.0007 30.3025 48.4401 26.7169 45.9123 24.0597ZM35.1859 17.5926C36.2086 17.5926 37.0378 18.4218 37.0378 19.4445C37.0378 20.4672 36.2086 21.2963 35.1859 21.2963C34.1628 21.2963 33.3341 20.4672 33.3341 19.4445C33.3341 18.4218 34.1628 17.5926 35.1859 17.5926ZM35.1859 47.2222C34.6746 47.2222 34.26 46.8077 34.26 46.2963C34.26 45.785 34.6746 45.3704 35.1859 45.3704C35.6973 45.3704 36.1118 45.785 36.1118 46.2963C36.1118 46.8077 35.6973 47.2222 35.1859 47.2222Z" fill="#196250"/>
</svg>
