<svg width="80" height="80" viewBox="0 0 80 80" fill="none" xmlns="http://www.w3.org/2000/svg">
    <mask id="mask0_168_6668" style="mask-type:alpha" maskUnits="userSpaceOnUse" x="47" y="1" width="32" height="19">
        <path fill-rule="evenodd" clip-rule="evenodd" d="M52.833 11.2117L53.523 13.055L54.213 11.2117C54.5012 10.4419 54.9512 9.74285 55.5325 9.16178C56.1139 8.5807 56.8131 8.13111 57.583 7.84333L59.4164 7.15333L57.583 6.46333C56.8137 6.17479 56.1151 5.72469 55.5343 5.14336C54.9536 4.56204 54.5042 3.863 54.2164 3.09333L53.5264 1.25L52.833 3.09333C52.5453 3.863 52.0959 4.56204 51.5151 5.14336C50.9344 5.72469 50.2358 6.17479 49.4664 6.46333L47.623 7.15333L49.4664 7.84333C50.2357 8.13151 50.9343 8.58129 51.5151 9.16234C52.0958 9.74339 52.5453 10.4422 52.833 11.2117ZM65.6286 17.99L66.1503 19.3867L66.667 17.99C66.8852 17.4061 67.2262 16.8758 67.667 16.435C68.1078 15.9942 68.638 15.6532 69.222 15.435L70.6186 14.9117L69.222 14.3884C68.638 14.1701 68.1078 13.8291 67.667 13.3883C67.2262 12.9476 66.8852 12.4173 66.667 11.8334L66.1436 10.4367L65.622 11.8334C65.4033 12.417 65.0621 12.947 64.6214 13.3878C64.1806 13.8285 63.6506 14.1697 63.067 14.3884L61.6686 14.9117L63.067 15.435C63.6518 15.6529 64.1832 15.9937 64.6251 16.4345C65.067 16.8753 65.4092 17.4057 65.6286 17.99ZM73.9581 11.6283L73.4364 10.23C73.2172 9.64664 72.8758 9.11691 72.4351 8.67626C71.9945 8.23561 71.4647 7.89423 70.8814 7.67497L69.4831 7.1533L70.8814 6.62997C71.4651 6.41128 71.9951 6.0701 72.4358 5.62937C72.8765 5.18865 73.2177 4.65862 73.4364 4.07497L73.9581 2.6783L74.4814 4.07497C74.6996 4.6589 75.0406 5.18917 75.4814 5.62996C75.9222 6.07074 76.4525 6.41176 77.0364 6.62997L78.4331 7.1533L77.0364 7.67497C76.4528 7.89366 75.9227 8.23485 75.482 8.67557C75.0413 9.11629 74.7001 9.64632 74.4814 10.23L73.9581 11.6283Z" fill="#8FBA44"/>
    </mask>
    <g mask="url(#mask0_168_6668)">
        <path d="M48.6668 15.3332L45.3335 5.99984V0.666504H80.0002V7.33317L71.3335 19.9998H64.6668L59.3335 15.3332H48.6668Z" fill="#8FBA44"/>
    </g>
    <path d="M66.4683 73.5882V77.0598C66.4683 77.2825 66.5122 77.5029 66.5977 77.7085C66.6831 77.9141 66.8084 78.1008 66.9662 78.2578C67.124 78.4148 67.3113 78.5391 67.5173 78.6236C67.7233 78.708 67.944 78.7509 68.1666 78.7498H74.6666C75.1148 78.7498 75.5447 78.5718 75.8616 78.2548C76.1785 77.9379 76.3566 77.508 76.3566 77.0598V70.3682C75.2837 71.4462 73.9982 72.2891 72.582 72.8435C71.1657 73.3978 69.6495 73.6514 68.1299 73.5882H66.4683Z" fill="#196250"/>
    <path d="M3.55322 70.27V77.06C3.55322 77.5082 3.73128 77.9381 4.04821 78.255C4.36515 78.572 4.79501 78.75 5.24322 78.75H11.7432C12.1914 78.75 12.6213 78.572 12.9382 78.255C13.2552 77.9381 13.4332 77.5082 13.4332 77.06V73.5884H11.8749C10.3321 73.6549 8.79264 73.3936 7.35821 72.8216C5.92378 72.2496 4.62693 71.3799 3.55322 70.27V70.27Z" fill="#196250"/>
    <path d="M3.60156 63.5C3.60156 68.29 6.9349 71.0817 11.8749 71.0817H68.1266C73.0599 71.0817 76.3999 68.29 76.3999 63.5V62.1167H3.60156V63.5Z" fill="#196250"/>
    <path d="M77.1668 32.6666L73.0001 31.9432C72.6673 31.8851 72.3246 31.9411 72.0276 32.102C71.7305 32.2629 71.4965 32.5194 71.3634 32.8299L70.0668 35.7616L69.5401 34.9582L65.8868 26.3332C65.2975 24.934 64.3618 23.7078 63.1678 22.7701C61.9738 21.8324 60.5607 21.214 59.0618 20.9732C52.7536 20.0155 46.3805 19.5502 40.0001 19.5816C33.6201 19.5518 27.2475 20.0187 20.9401 20.9782C19.4396 21.2179 18.025 21.8357 16.8294 22.7735C15.6339 23.7112 14.6969 24.9381 14.1067 26.3382L10.4617 34.9499L9.94341 35.7416L8.63841 32.8216C8.50531 32.5111 8.27129 32.2546 7.97425 32.0937C7.67721 31.9327 7.33454 31.8768 7.00175 31.9349L2.83341 32.6666C2.44835 32.7288 2.09808 32.9262 1.84547 33.2235C1.59285 33.5207 1.45444 33.8982 1.45508 34.2882V35.1066C1.45516 35.4821 1.58362 35.8464 1.81916 36.1389C2.05471 36.4315 2.38317 36.6347 2.75008 36.7149L8.45675 38.0199L5.72341 42.1866C4.34012 44.2961 3.60327 46.7639 3.60341 49.2866V59.6199H76.4001V49.2866C76.3996 46.7637 75.6622 44.296 74.2784 42.1866L71.5351 37.9999L77.2518 36.7116C77.6187 36.6314 77.9471 36.4281 78.1827 36.1356C78.4182 35.8431 78.5467 35.4788 78.5468 35.1032V34.2849C78.5465 33.8952 78.4075 33.5183 78.1547 33.2217C77.9018 32.9252 77.5516 32.7284 77.1668 32.6666V32.6666ZM16.4151 27.3149C16.8362 26.3037 17.5093 25.4172 18.3703 24.74C19.2313 24.0628 20.2514 23.6175 21.3334 23.4466C27.5109 22.509 33.7519 22.0526 40.0001 22.0816C46.2483 22.0526 52.4893 22.509 58.6668 23.4466C59.7479 23.618 60.7672 24.0634 61.6275 24.7402C62.4878 25.4171 63.1606 26.3028 63.5817 27.3132L66.3901 33.9366H13.6067L16.4151 27.3149ZM11.1134 51.4816C10.6235 51.4101 10.1663 51.1932 9.80104 50.8589C9.43582 50.5246 9.17943 50.0883 9.06508 49.6066C8.91442 49.0447 8.85532 48.4622 8.89008 47.8816C9.02508 46.3816 9.49675 45.6432 10.4501 45.6432C10.4501 45.6432 16.9867 46.0499 17.8701 46.3216C18.7534 46.5932 22.1434 53.0382 22.1434 53.0382L11.1134 51.4816ZM52.9867 53.9816L39.9201 54.7282L27.0134 53.9999L23.7217 47.0182C23.7217 47.0182 35.3167 48.0282 39.9984 48.0282C44.6801 48.0282 56.2784 47.0182 56.2784 47.0182L52.9867 53.9816ZM70.9334 49.6132C70.8191 50.095 70.5627 50.5313 70.1975 50.8656C69.8322 51.1999 69.375 51.4168 68.8851 51.4882L57.8551 53.0449C57.8551 53.0449 61.2468 46.5999 62.1301 46.3282C63.0134 46.0566 69.5484 45.6499 69.5484 45.6499C70.5034 45.6499 70.9734 46.3949 71.1084 47.8882C71.1432 48.4689 71.0841 49.0514 70.9334 49.6132V49.6132Z" fill="#196250"/>
</svg>
