<svg width="80" height="80" viewBox="0 0 80 80" fill="none" xmlns="http://www.w3.org/2000/svg">
    <g clip-path="url(#clip0_202_21644)">
        <path d="M40 80C62.0914 80 80 62.0914 80 40C80 17.9086 62.0914 0 40 0C17.9086 0 0 17.9086 0 40C0 62.0914 17.9086 80 40 80Z" fill="#8FBA44"/>
        <path d="M29.7793 58.044L50.3471 78.6118C67.3818 74.0692 80.0001 58.5487 80.0001 39.9998C80.0001 39.6213 80.0001 39.2427 80.0001 38.8642L63.8487 23.9746L29.7793 58.044Z" fill="#81A83D"/>
        <path d="M41.0104 48.9588C42.777 50.7253 42.777 53.7537 41.0104 55.5203L37.3511 59.1796C35.5846 60.9461 32.5562 60.9461 30.7896 59.1796L14.7644 43.0282C12.9978 41.2616 12.9978 38.2332 14.7644 36.4666L18.4237 32.8073C20.1902 31.0408 23.2186 31.0408 24.9852 32.8073L41.0104 48.9588Z" fill="white"/>
        <path d="M55.0168 21.0725C56.7834 19.3059 59.8118 19.3059 61.5783 21.0725L65.2376 24.7318C67.0042 26.4983 67.0042 29.5267 65.2376 31.2933L37.4774 58.9274C35.7108 60.6939 32.6824 60.6939 30.9159 58.9274L27.2566 55.2681C25.49 53.5015 25.49 50.4731 27.2566 48.7065L55.0168 21.0725Z" fill="white"/>
    </g>
    <defs>
        <clipPath id="clip0_202_21644">
            <rect width="80" height="80" fill="white"/>
        </clipPath>
    </defs>
</svg>
