<svg width="14" height="11" viewBox="0 0 14 11" fill="none" xmlns="http://www.w3.org/2000/svg">
    <path d="M13.219 2.48902C13.0905 2.37953 12.9343 2.30911 12.7684 2.28581C12.6025 2.26251 12.4335 2.28726 12.2807 2.35723L9.43937 3.64548L7.78505 0.60779C7.70722 0.464869 7.59334 0.345781 7.45521 0.262867C7.31708 0.179953 7.15973 0.13623 6.99946 0.13623C6.83919 0.13623 6.68183 0.179953 6.5437 0.262867C6.40557 0.345781 6.29169 0.464869 6.21387 0.60779L4.55944 3.64542L1.71775 2.35695C1.56485 2.28764 1.39603 2.26326 1.23028 2.28653C1.06454 2.3098 0.908448 2.3798 0.77959 2.48866C0.650732 2.59752 0.554222 2.74091 0.500923 2.90269C0.447625 3.06447 0.439655 3.23822 0.47791 3.40437L1.9071 9.61187C1.93429 9.73205 1.98521 9.84531 2.05676 9.94473C2.1283 10.0442 2.21896 10.1277 2.3232 10.1901C2.42799 10.253 2.54411 10.2938 2.66466 10.3101C2.78521 10.3263 2.90772 10.3177 3.02493 10.2847C5.62504 9.55245 8.371 9.5522 10.9712 10.2839C11.0884 10.3169 11.2109 10.3255 11.3313 10.3092C11.4518 10.293 11.5679 10.2522 11.6726 10.1893C11.7768 10.1269 11.8675 10.0435 11.939 9.94414C12.0105 9.84479 12.0615 9.73162 12.0887 9.61153L13.5205 3.40505C13.5595 3.23889 13.5519 3.06491 13.4985 2.90295C13.4452 2.74099 13.3484 2.59758 13.219 2.48908L13.219 2.48902Z" fill="white"/>
</svg>
