<svg width="60" height="60" viewBox="0 0 60 60" fill="none" xmlns="http://www.w3.org/2000/svg">
    <g clip-path="url(#clip0_707_21013)">
        <path d="M35.625 0H6.875C3.075 0 0 3.075 0 6.875V45.625C0 49.425 3.075 52.5 6.875 52.5H27.25C25.15 49.175 23.75 45.25 23.75 40.75V34.65C23.375 34.875 22.95 35 22.5 35H10C8.625 35 7.5 33.875 7.5 32.5C7.5 31.125 8.625 30 10 30H22.5C22.975 30 23.4 30.125 23.775 30.35C23.875 28.225 24.875 26.275 26.45 25H10C8.625 25 7.5 23.875 7.5 22.5C7.5 21.125 8.625 20 10 20H32.5C33.55 20 34.45 20.65 34.825 21.575L41.95 19.15C42.125 19.075 42.3 19.025 42.5 19V6.875C42.5 3.075 39.425 0 35.625 0V0ZM20 15H10C8.625 15 7.5 13.875 7.5 12.5C7.5 11.125 8.625 10 10 10H20C21.375 10 22.5 11.125 22.5 12.5C22.5 13.875 21.375 15 20 15Z" fill="white"/>
        <path d="M58.3036 28.3476L45.1786 23.8826C44.6561 23.7051 44.0886 23.7051 43.5661 23.8826L30.4411 28.3476C29.4286 28.6926 28.7461 29.6451 28.7461 30.7151V40.7601C28.7461 53.4276 42.7936 59.5476 43.3911 59.8026C43.7061 59.9351 44.0411 60.0001 44.3736 60.0001C44.7061 60.0001 45.0411 59.9351 45.3536 59.8001C45.9511 59.5451 59.9986 53.4276 59.9986 40.7601V30.7151C59.9986 29.6426 59.3186 28.6926 58.3036 28.3476ZM53.2486 37.7501L45.7486 47.7501C45.3136 48.3301 44.6511 48.6926 43.9261 48.7426C43.8661 48.7476 43.8061 48.7501 43.7486 48.7501C43.0861 48.7501 42.4511 48.4901 41.9811 48.0176L36.9811 43.0176C36.0036 42.0401 36.0036 40.4601 36.9811 39.4826C37.9586 38.5051 39.5386 38.5051 40.5161 39.4826L43.4786 42.4451L49.2486 34.7501C50.0761 33.6476 51.6436 33.4201 52.7461 34.2501C53.8536 35.0776 54.0786 36.6451 53.2486 37.7501Z" fill="#8FBA44"/>
    </g>
    <defs>
        <clipPath id="clip0_707_21013">
            <rect width="60" height="60" fill="white"/>
        </clipPath>
    </defs>
</svg>
