<svg width="60" height="60" viewBox="0 0 60 60" fill="none" xmlns="http://www.w3.org/2000/svg">
    <mask id="mask0_449_27876" style="mask-type:alpha" maskUnits="userSpaceOnUse" x="35" y="32" width="25" height="19">
        <path d="M58.3504 32.4106H37.5558C36.6471 32.4106 35.9062 33.1515 35.9062 34.0601C35.9062 34.5229 36.1029 34.9398 36.4096 35.2405L51.0521 49.883C51.3529 50.2071 51.7873 50.4099 52.262 50.4099C52.8349 50.4099 53.3382 50.1204 53.6334 49.6806C57.2334 45.5019 59.5484 40.1947 59.9653 34.3551C59.9885 34.2567 60 34.1584 60 34.0599C60.0001 33.1515 59.2649 32.4106 58.3504 32.4106Z" fill="#8FBA44"/>
    </mask>
    <g mask="url(#mask0_449_27876)">
        <path d="M51.5 55L31.5 31.5C39 27.5 54.5 29.5 60.5 29.5C70.0415 29.5 56.6667 49.8333 51.5 55Z" fill="#8FBA44"/>
    </g>
    <path d="M31.2765 2.51758C30.3677 2.52313 29.6328 3.25839 29.6328 4.16699V27.2767C29.6328 28.1913 30.3677 28.9321 31.2765 28.9321H54.3921C55.3009 28.9321 56.0416 28.1913 56.0416 27.2767C55.2254 13.9772 44.582 3.33376 31.2765 2.51758Z" fill="white"/>
    <path d="M43.9798 48.5347L26.9297 31.4846C26.6404 31.1894 26.4669 30.7784 26.4669 30.3328L26.4608 6.2506C26.4608 5.342 25.7259 4.60693 24.8171 4.60693C10.9675 5.45201 0 16.9575 0 31.0159C0 45.6294 11.8474 57.4824 26.4608 57.4824C33.1281 57.4824 39.2166 55.017 43.8698 50.9481C44.2287 50.6469 44.4545 50.1958 44.4545 49.6922C44.4545 49.2464 44.2748 48.8355 43.9798 48.5347Z" fill="white"/>
</svg>
