<svg width="60" height="60" viewBox="0 0 60 60" fill="none" xmlns="http://www.w3.org/2000/svg">
    <g clip-path="url(#clip0_707_20968)">
        <path d="M51.725 37.35C50.275 38.25 48.9 38.95 47.675 39.45C46.825 39.825 45.9 40 45 40C44.1 40 43.175 39.825 42.325 39.45C40.15 38.55 37.5 37.05 34.925 35H11.05L14.75 26.5C15.15 25.6 16.05 25 17.025 25H26.875C26.175 23.45 25.625 21.775 25.325 20H17.025C14.05 20 11.35 21.775 10.15 24.5L5.2 35.875C5.175 35.925 5.2 35.975 5.175 36.05C2.125 37.6 0 40.725 0 44.375V53.75C0 57.2 2.8 60 6.25 60C9.7 60 12.5 57.2 12.5 53.75V52.5H42.5V53.75C42.5 57.2 45.3 60 48.75 60C52.2 60 55 57.2 55 53.75V44.375C55 41.55 53.725 39.025 51.725 37.35ZM15 47.5H10C8.625 47.5 7.5 46.375 7.5 45C7.5 43.625 8.625 42.5 10 42.5H15C16.375 42.5 17.5 43.625 17.5 45C17.5 46.375 16.375 47.5 15 47.5ZM45 47.5H40C38.625 47.5 37.5 46.375 37.5 45C37.5 43.625 38.625 42.5 40 42.5H45C46.375 42.5 47.5 43.625 47.5 45C47.5 46.375 46.375 47.5 45 47.5Z" fill="white"/>
        <path d="M58.7275 4.56479L45.6025 0.0997852C45.2125 -0.0352148 44.7875 -0.0352148 44.3975 0.0997852L31.2725 4.56479C30.51 4.82229 30 5.53729 30 6.33979V16.3848C30 28.6448 43.685 34.6048 44.2675 34.8523C44.7375 35.0498 45.2625 35.0498 45.7325 34.8523C46.315 34.6048 60 28.6448 60 16.3848V6.33979C60 5.53729 59.49 4.82229 58.7275 4.56479ZM53.215 14.0448L46.34 22.7948C45.465 23.9123 43.825 24.0748 42.75 23.1498L38.375 19.3998C37.325 18.5023 37.2025 16.9223 38.105 15.8748C39.0025 14.8273 40.5825 14.7073 41.6275 15.6048L44.0225 17.6573L49.285 10.9598C50.1375 9.87479 51.7075 9.68229 52.795 10.5398C53.88 11.3873 54.07 12.9598 53.215 14.0448Z" fill="#8FBA44"/>
    </g>
    <defs>
        <clipPath id="clip0_707_20968">
            <rect width="60" height="60" fill="white"/>
        </clipPath>
    </defs>
</svg>
