<svg width="31" height="48" viewBox="0 0 31 48" fill="none" xmlns="http://www.w3.org/2000/svg">
    <path d="M15.6667 0.577148C7.02824 0.577148 0 7.60539 0 16.2438C0 18.8371 0.648361 21.4083 1.88092 23.6889L14.81 47.0723C14.9821 47.384 15.3101 47.5771 15.6667 47.5771C16.0233 47.5771 16.3513 47.384 16.5234 47.0723L29.4572 23.6812C30.685 21.4083 31.3334 18.837 31.3334 16.2438C31.3334 7.60539 24.3051 0.577148 15.6667 0.577148ZM15.6667 24.0771C11.3475 24.0771 7.8334 20.5631 7.8334 16.2438C7.8334 11.9246 11.3475 8.41054 15.6667 8.41054C19.9859 8.41054 23.5 11.9246 23.5 16.2438C23.5 20.5631 19.9859 24.0771 15.6667 24.0771Z"
          fill="#8FBA44"/>
</svg>
