<svg xmlns="http://www.w3.org/2000/svg" display="none">
    <symbol id="search" viewBox="0 0 15 15">
        <path d="M14.8582 14.1839L10.9854 10.3731C11.9996 9.27122 12.6227 7.81401 12.6227 6.21051C12.6222 2.78032 9.79685 0 6.31134 0C2.82583 0 0.000488281 2.78032 0.000488281 6.21051C0.000488281 9.6407 2.82583 12.421 6.31134 12.421C7.81732 12.421 9.19857 11.9001 10.2835 11.0341L14.1713 14.86C14.3607 15.0466 14.6683 15.0466 14.8577 14.86C15.0476 14.6734 15.0476 14.3705 14.8582 14.1839ZM6.31134 11.4655C3.36222 11.4655 0.971502 9.11277 0.971502 6.21051C0.971502 3.30825 3.36222 0.955524 6.31134 0.955524C9.26048 0.955524 11.6512 3.30825 11.6512 6.21051C11.6512 9.11277 9.26048 11.4655 6.31134 11.4655Z"/>
    </symbol>

    <symbol id="clock" viewBox="0 0 16 16">
        <path d="M8 0C3.58862 0 0 3.58862 0 8C0 12.4114 3.58862 16 8 16C12.4114 16 16 12.4114 16 8C16 3.58862 12.4114 0 8 0ZM11.8047 12.1379C11.6747 12.2679 11.504 12.3334 11.3334 12.3334C11.1627 12.3334 10.9919 12.2679 10.8621 12.1379L7.52869 8.80469C7.40332 8.68005 7.33337 8.51062 7.33337 8.33337V4C7.33337 3.63135 7.63196 3.33337 8 3.33337C8.36804 3.33337 8.66663 3.63135 8.66663 4V8.05737L11.8047 11.1953C12.0653 11.4561 12.0653 11.8773 11.8047 12.1379V12.1379Z"/>
    </symbol>

    <symbol id="phone" viewBox="0 0 16 16">
        <path d="M6.62534 9.37471C5.09817 7.84754 4.75334 6.32037 4.67555 5.70851C4.65381 5.53933 4.71203 5.36966 4.83306 5.24947L6.06893 4.01416C6.25072 3.83248 6.28299 3.54933 6.14672 3.3314L4.179 0.275955C4.02824 0.034644 3.7187 -0.0524474 3.46424 0.0748512L0.305339 1.56258C0.0995625 1.6639 -0.0214727 1.88254 0.00189102 2.11071C0.167408 3.68313 0.852925 7.54851 4.65155 11.3474C8.45017 15.1463 12.315 15.8315 13.8882 15.9971C14.1164 16.0204 14.3351 15.8994 14.4364 15.6936L15.9241 12.5347C16.0509 12.2808 15.9644 11.9721 15.7241 11.8211L12.6687 9.85389C12.4509 9.71748 12.1677 9.74951 11.9859 9.93113L10.7506 11.167C10.6304 11.288 10.4607 11.3462 10.2915 11.3245C9.67969 11.2467 8.15251 10.9019 6.62534 9.37471Z"/>
        <path d="M12.6896 8.55177C12.3849 8.55177 12.1379 8.30475 12.1379 8.00005C12.1353 5.7158 10.2842 3.8647 7.99997 3.86212C7.69526 3.86212 7.44824 3.6151 7.44824 3.31039C7.44824 3.00568 7.69526 2.75867 7.99997 2.75867C10.8934 2.76186 13.2382 5.10664 13.2413 8.00005C13.2413 8.30475 12.9943 8.55177 12.6896 8.55177Z"/>
        <path d="M15.4483 8.55172C15.1435 8.55172 14.8965 8.30471 14.8965 8C14.8923 4.1929 11.8071 1.1077 7.99997 1.10345C7.69526 1.10345 7.44824 0.856433 7.44824 0.551724C7.44824 0.247015 7.69526 0 7.99997 0C12.4162 0.00486507 15.9951 3.58374 16 8C16 8.14633 15.9419 8.28666 15.8384 8.39013C15.7349 8.4936 15.5946 8.55172 15.4483 8.55172Z"/>
    </symbol>

    <symbol id="mail" viewBox="0 0 16 12">
        <path d="M15.8588 1.17883L11.0063 6.00005L15.8588 10.8213C15.9465 10.6379 15.9998 10.4352 15.9998 10.2188V1.7813C15.9998 1.56483 15.9465 1.36218 15.8588 1.17883Z"/>
        <path d="M14.5937 0.375H1.40618C1.18971 0.375 0.987055 0.428219 0.803711 0.515938L7.00568 6.68666C7.55406 7.23503 8.44581 7.23503 8.99418 6.68666L15.1962 0.515938C15.0128 0.428219 14.8102 0.375 14.5937 0.375Z"/>
        <path d="M0.140937 1.17883C0.0532187 1.36218 0 1.56483 0 1.7813V10.2188C0 10.4353 0.0532187 10.638 0.140937 10.8213L4.9934 6.00005L0.140937 1.17883Z"/>
        <path d="M10.3437 6.66284L9.65703 7.3495C8.74331 8.26321 7.25653 8.26321 6.34281 7.3495L5.65618 6.66284L0.803711 11.4841C0.987055 11.5718 1.18971 11.625 1.40618 11.625H14.5937C14.8102 11.625 15.0128 11.5718 15.1962 11.4841L10.3437 6.66284Z"/>
    </symbol>

    <symbol id="arrow-right" viewBox="0 0 21 16">
        <path d="M20.7071 8.70711C21.0976 8.31658 21.0976 7.68342 20.7071 7.29289L14.3431 0.928932C13.9526 0.538408 13.3195 0.538408 12.9289 0.928932C12.5384 1.31946 12.5384 1.95262 12.9289 2.34315L18.5858 8L12.9289 13.6569C12.5384 14.0474 12.5384 14.6805 12.9289 15.0711C13.3195 15.4616 13.9526 15.4616 14.3431 15.0711L20.7071 8.70711ZM0 9H20V7H0V9Z"/>
    </symbol>

    <symbol id="arrow-bottom-filter" viewBox="0 0 10 7">
        <path d="M1 1L5 5L9 1" stroke-width="2"/>
    </symbol>

    <symbol id="location" viewBox="0 0 16 16">
        <path d="M7.99967 0C4.80452 0 2.20508 2.59944 2.20508 5.79456C2.20508 9.75981 7.39067 15.581 7.61145 15.8269C7.81883 16.0579 8.18089 16.0575 8.38789 15.8269C8.60867 15.581 13.7943 9.75981 13.7943 5.79456C13.7942 2.59944 11.1948 0 7.99967 0ZM7.99967 8.70997C6.39211 8.70997 5.0843 7.40212 5.0843 5.79456C5.0843 4.187 6.39214 2.87919 7.99967 2.87919C9.6072 2.87919 10.915 4.18703 10.915 5.79459C10.915 7.40216 9.6072 8.70997 7.99967 8.70997Z"/>
    </symbol>

    <symbol id="whatsapp" viewBox="0 0 20 20">
        <path d="M16.6147 3.38606C15.0541 1.80986 12.9816 0.843235 10.771 0.66053C8.56047 0.477824 6.35739 1.09107 4.55916 2.38965C2.76093 3.68824 1.48594 5.58667 0.964162 7.74252C0.442384 9.89838 0.708169 12.1697 1.71358 14.1469L0.726643 18.9383C0.716403 18.986 0.716113 19.0353 0.725791 19.0831C0.73547 19.1309 0.754909 19.1762 0.782893 19.2162C0.823887 19.2768 0.882404 19.3235 0.950629 19.35C1.01885 19.3765 1.09354 19.3816 1.16471 19.3645L5.86074 18.2514C7.83232 19.2314 10.0876 19.4801 12.2254 18.9532C14.3631 18.4264 16.2446 17.1583 17.5351 15.3744C18.8256 13.5906 19.4413 11.4067 19.2728 9.2115C19.1043 7.01627 18.1624 4.95202 16.6147 3.38606V3.38606ZM15.1505 15.0724C14.0707 16.1492 12.6803 16.86 11.1751 17.1046C9.66995 17.3493 8.12596 17.1154 6.76074 16.4361L6.10619 16.1122L3.22721 16.794L3.23574 16.7582L3.83233 13.8605L3.51187 13.2281C2.8143 11.8581 2.56823 10.3025 2.80889 8.78409C3.04956 7.26569 3.76462 5.8624 4.85165 4.77527C6.21751 3.40983 8.06976 2.64277 10.0011 2.64277C11.9324 2.64277 13.7847 3.40983 15.1505 4.77527C15.1621 4.78861 15.1747 4.80114 15.188 4.81277C16.5369 6.18173 17.29 8.02845 17.283 9.95033C17.2759 11.8722 16.5094 13.7134 15.1505 15.0724V15.0724Z"/>
        <path d="M14.8954 12.9466C14.5426 13.5023 13.9852 14.1824 13.2846 14.3512C12.0573 14.6478 10.1738 14.3614 7.83007 12.1762L7.80109 12.1506C5.74029 10.2398 5.20507 8.64948 5.33461 7.38812C5.4062 6.67221 6.00279 6.02448 6.50563 5.60175C6.58513 5.53391 6.6794 5.4856 6.78091 5.4607C6.88241 5.4358 6.98834 5.43499 7.09021 5.45835C7.19208 5.4817 7.28708 5.52857 7.3676 5.59521C7.44812 5.66184 7.51193 5.74639 7.55393 5.8421L8.31245 7.54664C8.36174 7.65716 8.38001 7.77902 8.3653 7.89913C8.35058 8.01925 8.30344 8.1331 8.22893 8.22845L7.84541 8.72618C7.76311 8.82895 7.71346 8.954 7.70282 9.08523C7.69219 9.21646 7.72107 9.34786 7.78575 9.46254C8.00052 9.83925 8.51529 10.3932 9.08631 10.9063C9.72722 11.4858 10.438 12.0159 10.888 12.1966C11.0084 12.2458 11.1408 12.2578 11.2681 12.2311C11.3954 12.2044 11.5118 12.1401 11.6022 12.0466L12.0471 11.5983C12.133 11.5137 12.2397 11.4533 12.3565 11.4234C12.4733 11.3934 12.5959 11.395 12.7119 11.4279L14.5136 11.9392C14.613 11.9697 14.7041 12.0225 14.7799 12.0936C14.8558 12.1647 14.9143 12.2522 14.9512 12.3494C14.988 12.4466 15.0022 12.551 14.9925 12.6545C14.9828 12.758 14.9496 12.8579 14.8954 12.9466V12.9466Z"/>
    </symbol>

    <symbol id="telegram" viewBox="0 0 17 14">
        <path d="M15.9083 0.0540573L15.627 0.161876L0.360436 5.97592C0.252248 6.01129 0.158219 6.08359 0.0930865 6.18151C0.0279536 6.27943 -0.0046014 6.39742 0.000524612 6.51699C0.00565062 6.63657 0.0481677 6.75097 0.121412 6.84226C0.194655 6.93354 0.294486 6.99657 0.405256 7.02144L4.35713 8.16497L5.09434 10.452L5.83155 12.7391C5.8739 12.8512 5.9415 12.9507 6.02848 13.0289C6.11546 13.1072 6.2192 13.1618 6.33068 13.188C6.44216 13.2143 6.55801 13.2113 6.66818 13.1795C6.77835 13.1477 6.87951 13.0879 6.96286 13.0054L9.00448 10.9666L13.0135 13.8402C13.5035 14.193 14.202 13.9316 14.3272 13.3501L16.9824 0.94928C17.1122 0.33504 16.5002 -0.169748 15.9083 0.0540573ZM13.9594 2.8067L7.06177 8.76615L6.73722 9.04713C6.66592 9.10688 6.61937 9.19357 6.60739 9.2889L6.53475 9.92275L6.33538 11.7034C6.33702 11.7251 6.33045 11.7465 6.31712 11.7631C6.30379 11.7796 6.28479 11.7899 6.26429 11.7916C6.2438 11.7933 6.22349 11.7864 6.20784 11.7723C6.19219 11.7582 6.18247 11.7381 6.18083 11.7165L5.61981 9.93745L5.04025 8.11596C5.01573 8.03409 5.01899 7.94574 5.04945 7.86613C5.07992 7.78652 5.13569 7.72063 5.20716 7.67979L12.3845 3.3311L13.7353 2.51429C13.9316 2.3934 14.1325 2.65641 13.9594 2.8067Z"/>
    </symbol>

    <symbol id="close" viewBox="0 0 20 20">
        <path d="M1 1L19 19"/>
        <path d="M19 1L1 19"/>
    </symbol>






    <symbol id="vk" viewBox="0 0 19 11">
        <path d="M18.8235 9.86986C18.8235 9.79452 18.7479 9.79452 18.7479 9.71918C18.4455 9.11644 17.7652 8.36302 16.858 7.53425C16.4044 7.15754 16.1776 6.85616 16.0264 6.70548C15.7997 6.40411 15.7997 6.17809 15.8753 5.87672C15.9509 5.65069 16.2532 5.27397 16.7824 4.59589C17.0848 4.21917 17.236 3.99315 17.4628 3.76713C18.5967 2.26028 19.1259 1.28082 18.9747 0.828761L18.8991 0.753425C18.8235 0.678083 18.7479 0.602742 18.5967 0.602742C18.4455 0.5274 18.2187 0.5274 17.992 0.602742H15.1193C15.0437 0.602742 15.0437 0.602742 14.8925 0.602742C14.8169 0.602742 14.7413 0.602742 14.7413 0.602742H14.6657H14.5901L14.5145 0.678078C14.4389 0.753421 14.4389 0.753418 14.4389 0.828761C14.1365 1.65753 13.7585 2.33561 13.3806 3.08904C13.1538 3.46575 12.927 3.84247 12.7002 4.14384C12.4734 4.44521 12.3222 4.67123 12.171 4.82192C12.0198 4.9726 11.8686 5.04794 11.793 5.19863C11.7174 5.27397 11.5663 5.34932 11.5663 5.27398C11.4907 5.27398 11.4151 5.27397 11.4151 5.19863C11.3395 5.12329 11.2639 5.04794 11.1883 4.9726C11.1127 4.89726 11.1127 4.74657 11.0371 4.59589C11.0371 4.4452 11.0371 4.29452 11.0371 4.21917C11.0371 4.14383 11.0371 3.91781 11.0371 3.76713C11.0371 3.5411 11.0371 3.39041 11.0371 3.31507C11.0371 3.08904 11.0371 2.78768 11.0371 2.48631C11.0371 2.18494 11.0371 1.9589 11.0371 1.80822C11.0371 1.65753 11.0371 1.43151 11.0371 1.28082C11.0371 1.05479 11.0371 0.904103 11.0371 0.828761C11.0371 0.753418 10.9615 0.602738 10.9615 0.527395C10.8859 0.452053 10.8103 0.376708 10.7347 0.301365C10.6591 0.226023 10.5079 0.226025 10.4323 0.150683C10.0543 0.0753402 9.60076 0 9.07158 0C7.86204 0 7.03047 0.0753448 6.72809 0.22603C6.5769 0.301372 6.4257 0.37671 6.35011 0.527395C6.19891 0.67808 6.19891 0.753425 6.27451 0.753425C6.65249 0.828768 6.95488 0.979446 7.10607 1.20547L7.18167 1.35617C7.25727 1.43151 7.25725 1.58219 7.33285 1.80822C7.40845 2.03424 7.40845 2.26027 7.40845 2.56164C7.40845 3.0137 7.40845 3.46576 7.40845 3.76713C7.40845 4.14384 7.33285 4.36986 7.33285 4.59589C7.33285 4.82191 7.25727 4.9726 7.18167 5.04795C7.10608 5.19863 7.10607 5.27398 7.03047 5.27398C7.03047 5.27398 7.03047 5.34931 6.95487 5.34931C6.87927 5.34931 6.80368 5.42466 6.65249 5.42466C6.57689 5.42466 6.4257 5.34932 6.35011 5.27398C6.19891 5.19863 6.04772 5.04795 5.97212 4.89726C5.82093 4.74658 5.66973 4.52054 5.51854 4.21917C5.36735 3.9178 5.14055 3.61644 4.98936 3.16438L4.83818 2.86302C4.76258 2.71233 4.61139 2.41096 4.4602 2.03425C4.309 1.65753 4.15781 1.35617 4.00661 0.979455C3.93102 0.82877 3.85543 0.753421 3.77983 0.678078H3.70423C3.70423 0.678078 3.62863 0.602742 3.55303 0.602742C3.47743 0.602742 3.40185 0.527395 3.32625 0.527395H0.604774C0.302388 0.527395 0.151197 0.602736 0.075601 0.678078L0 0.753425C0 0.753425 0 0.828765 0 0.904108C0 0.97945 4.61291e-06 1.05479 0.075601 1.20547C0.453583 2.10958 0.907159 3.0137 1.36074 3.91781C1.81432 4.74658 2.2679 5.5 2.57029 6.0274C2.94827 6.5548 3.25065 7.0822 3.62863 7.53425C4.00661 7.98631 4.2334 8.28767 4.30899 8.43836C4.46019 8.58904 4.53578 8.66438 4.61138 8.73972L4.83818 8.96575C4.98937 9.11644 5.21616 9.34247 5.51854 9.5685C5.82093 9.79452 6.1989 10.0205 6.57689 10.2466C6.95487 10.4726 7.40846 10.6233 7.86204 10.774C8.39121 10.9247 8.84478 11 9.29836 10.9247H10.4323C10.6591 10.9247 10.8103 10.8493 10.9615 10.6986L11.0371 10.6233C11.0371 10.5479 11.1127 10.5479 11.1127 10.4726C11.1127 10.3973 11.1127 10.3219 11.1127 10.1712C11.1127 9.86987 11.1127 9.64384 11.1883 9.41781C11.2639 9.19179 11.2639 9.0411 11.3395 8.89042C11.4151 8.73973 11.4907 8.66438 11.5663 8.58904C11.6419 8.5137 11.7175 8.43836 11.7175 8.43836H11.793C11.9442 8.36302 12.171 8.43836 12.3222 8.58904C12.549 8.73973 12.7758 8.96576 12.927 9.19178C13.0782 9.41781 13.305 9.64384 13.6074 9.94521C13.9098 10.2466 14.1365 10.4726 14.2877 10.548L14.5145 10.6986C14.6657 10.774 14.8169 10.8493 15.0437 10.9247C15.2705 11 15.4217 11 15.5729 11L18.1432 10.9247C18.3699 10.9247 18.5967 10.8493 18.7479 10.774C18.8991 10.6986 18.9747 10.6233 18.9747 10.4726C18.9747 10.3973 18.9747 10.2466 18.9747 10.1712C18.8235 10.0206 18.8235 9.9452 18.8235 9.86986Z"/>
    </symbol>

    <symbol id="fb" viewBox="0 0 13 13">
        <path d="M13 2.15544C13 1.01036 11.9896 0 10.8446 0H2.15544C1.01036 0 0 1.01036 0 2.15544V10.8446C0 11.9896 1.01036 13 2.15544 13H6.53368V8.0829H4.9171V5.92746H6.53368V5.05181C6.53368 3.56995 7.6114 2.29015 8.95855 2.29015H10.7098V4.44559H8.95855C8.75648 4.44559 8.5544 4.64767 8.5544 5.05181V5.92746H10.7098V8.0829H8.5544V13H10.8446C11.9896 13 13 11.9896 13 10.8446V2.15544Z"/>
    </symbol>

    <symbol id="instagram" viewBox="0 0 15 15">
        <path d="M12.8654 0H2.13461C0.923075 0 0 0.923077 0 2.13462V12.8654C0 14.0769 0.923075 15 2.13461 15H12.8654C14.0769 15 15 14.0769 15 12.8654V2.13462C15 0.923077 14.0769 0 12.8654 0ZM7.5 12C9.98077 12 12 10.0385 12 7.67308C12 7.26923 11.9423 6.80769 11.8269 6.46154H13.0962V12.5769C13.0962 12.8654 12.8654 13.1538 12.5192 13.1538H2.48077C2.19231 13.1538 1.90385 12.9231 1.90385 12.5769V6.40385H3.23077C3.11539 6.80769 3.05769 7.21154 3.05769 7.61539C3 10.0385 5.01923 12 7.5 12ZM7.5 10.2692C5.88462 10.2692 4.61538 9 4.61538 7.44231C4.61538 5.88462 5.88462 4.61538 7.5 4.61538C9.11538 4.61538 10.3846 5.88462 10.3846 7.44231C10.3846 9.05769 9.11538 10.2692 7.5 10.2692ZM13.0385 4.09615C13.0385 4.44231 12.75 4.73077 12.4038 4.73077H10.7885C10.4423 4.73077 10.1538 4.44231 10.1538 4.09615V2.53846C10.1538 2.19231 10.4423 1.90385 10.7885 1.90385H12.4038C12.75 1.90385 13.0385 2.19231 13.0385 2.53846V4.09615Z"/>
    </symbol>

    <symbol id="instagram2" viewBox="0 0 37 38">
        <path d="M36.7671 11.5329C36.7465 9.98661 36.457 8.45567 35.9116 7.00859C35.4386 5.78798 34.7163 4.67945 33.7907 3.75382C32.865 2.8282 31.7565 2.10583 30.5359 1.63288C29.1074 1.09665 27.5983 0.806699 26.0728 0.775378C24.1087 0.687586 23.486 0.663086 18.5003 0.663086C13.5145 0.663086 12.8755 0.663086 10.9257 0.775378C9.40088 0.80693 7.89248 1.09687 6.46464 1.63288C5.24384 2.1055 4.13514 2.82775 3.20947 3.75342C2.28381 4.67909 1.56156 5.78779 1.08893 7.00859C0.551629 8.43598 0.262309 9.94473 0.233474 11.4696C0.145682 13.4358 0.119141 14.0585 0.119141 19.0442C0.119141 24.03 0.119141 24.667 0.233474 26.6188C0.264099 28.146 0.551974 29.6527 1.08893 31.0839C1.56235 32.3043 2.28514 33.4126 3.21111 34.3379C4.13709 35.2631 5.2459 35.9851 6.46668 36.4576C7.89061 37.0154 9.39928 37.3261 10.9277 37.3763C12.8939 37.4641 13.5166 37.4907 18.5023 37.4907C23.4881 37.4907 24.1271 37.4907 26.0769 37.3763C27.6023 37.3463 29.1115 37.057 30.54 36.5209C31.7603 36.0474 32.8685 35.3248 33.7941 34.3993C34.7196 33.4737 35.4422 32.3655 35.9157 31.1452C36.4526 29.716 36.7405 28.2093 36.7711 26.68C36.8589 24.716 36.8855 24.0933 36.8855 19.1055C36.8814 14.1197 36.8814 13.4868 36.7671 11.5329ZM18.488 28.4726C13.2736 28.4726 9.04939 24.2484 9.04939 19.034C9.04939 13.8196 13.2736 9.59538 18.488 9.59538C20.9913 9.59538 23.392 10.5898 25.1621 12.3599C26.9322 14.13 27.9266 16.5307 27.9266 19.034C27.9266 21.5373 26.9322 23.938 25.1621 25.7081C23.392 27.4782 20.9913 28.4726 18.488 28.4726ZM28.3023 11.4472C27.0834 11.4472 26.1014 10.4631 26.1014 9.24625C26.1014 8.95736 26.1583 8.67129 26.2688 8.40439C26.3794 8.13749 26.5414 7.89497 26.7457 7.69069C26.95 7.48641 27.1925 7.32437 27.4594 7.21381C27.7263 7.10326 28.0124 7.04636 28.3013 7.04636C28.5902 7.04636 28.8762 7.10326 29.1432 7.21381C29.4101 7.32437 29.6526 7.48641 29.8569 7.69069C30.0611 7.89497 30.2232 8.13749 30.3337 8.40439C30.4443 8.67129 30.5012 8.95736 30.5012 9.24625C30.5012 10.4631 29.5171 11.4472 28.3023 11.4472Z"/>
        <path d="M18.4881 25.1656C21.8742 25.1656 24.6192 22.4206 24.6192 19.0344C24.6192 15.6483 21.8742 12.9033 18.4881 12.9033C15.1019 12.9033 12.3569 15.6483 12.3569 19.0344C12.3569 22.4206 15.1019 25.1656 18.4881 25.1656Z"/>
    </symbol>


    <symbol id="fb2" viewBox="0 0 25 48">
        <path d="M23.3618 26.761L24.6587 18.3366H16.5524V12.8697C16.5524 10.5654 17.6844 8.31783 21.3152 8.31783H25V1.14595C25 1.14595 21.6565 0.577148 18.459 0.577148C11.7838 0.577148 7.42064 4.6126 7.42064 11.9169V18.3381H0V26.7625H7.42064V47.1289H16.5524V26.7625L23.3618 26.761Z"/>
    </symbol>


    <symbol id="mail2" viewBox="0 0 32 16">
        <path fill-rule="evenodd" clip-rule="evenodd"
              d="M10.8134 0.0448983C10.4895 0.111352 10.24 0.242007 10.0617 0.438473C9.86365 0.656747 9.66919 1.13273 9.67156 1.39346C9.67363 1.61553 9.74358 1.67362 14.8252 5.67145C17.844 8.0464 20.0897 9.76944 20.2495 9.83338C20.6569 9.99627 21.3257 9.98269 21.6976 9.80385C21.8623 9.72473 24.2475 7.85065 26.9981 5.63928L31.9992 1.61862L32 1.3613C32.0015 0.856429 31.6636 0.360246 31.1588 0.12634C30.9213 0.0162706 30.4019 0.0098383 20.9915 0.000832012C15.5372 -0.00437877 10.957 0.0154349 10.8134 0.0448983ZM1.12622 2.25401C0.563362 2.51436 0.52532 3.28156 1.06228 3.54358C1.35591 3.68678 5.42376 3.69553 5.75412 3.55362C6.24853 3.3412 6.29102 2.60571 5.8272 2.28881C5.63374 2.15668 1.4044 2.12535 1.12622 2.25401ZM9.66675 8.50733C9.66675 11.7609 9.68846 13.555 9.72769 13.5412C9.87078 13.4909 15.4904 7.99919 15.4435 7.95557C15.2894 7.81237 9.72931 3.45204 9.70078 3.45204C9.68208 3.45204 9.66675 5.72696 9.66675 8.50733ZM29.1879 5.68843C27.6566 6.91972 26.4037 7.95673 26.4037 7.99288C26.4037 8.0291 27.6566 9.30928 29.1879 10.8378L31.9722 13.6168L31.9885 11.0755C31.9976 9.67776 31.9976 7.39017 31.9885 5.99201L31.9722 3.44979L29.1879 5.68843ZM3.55936 6.57729C3.0353 6.8431 3.08748 7.63025 3.64502 7.86975C3.9461 7.99906 5.62354 7.96946 5.8272 7.83122C6.29102 7.51632 6.24847 6.77935 5.75412 6.56699C5.44441 6.43396 3.82697 6.44155 3.55936 6.57729ZM13.2387 12.15L9.89881 15.3798L10.1611 15.6191C10.3375 15.7801 10.5259 15.881 10.7364 15.9275C11.1748 16.0242 30.4955 16.0242 30.9338 15.9275C31.1456 15.8808 31.3293 15.7819 31.5015 15.6219L31.7562 15.3854L28.5262 12.1688C26.7496 10.3997 25.2715 8.94292 25.2415 8.93147C25.2115 8.91995 24.6724 9.32369 24.0434 9.82856C23.4145 10.3334 22.7732 10.8261 22.6183 10.9234C21.7687 11.4572 20.6081 11.5355 19.6463 11.1242C19.3033 10.9774 19.0055 10.7652 17.7526 9.77445C17.1584 9.30458 16.6511 8.92014 16.6254 8.92014C16.5996 8.92014 15.0756 10.3736 13.2387 12.15ZM0.204347 10.6518C0.0235255 10.8179 0 10.8778 0 11.1717C0 11.4656 0.0235255 11.5255 0.204347 11.6916L0.408694 11.8794H3.07309H5.73748L5.95021 11.6606C6.12459 11.4813 6.16294 11.3932 6.16294 11.1717C6.16294 10.9502 6.12459 10.8621 5.95021 10.6828L5.73748 10.4641H3.07309H0.408694L0.204347 10.6518Z"/>
    </symbol>


    <symbol id="marker" viewBox="0 0 31 48">
        <path d="M15.6667 0.577148C7.02824 0.577148 0 7.60539 0 16.2438C0 18.8371 0.648361 21.4083 1.88092 23.6889L14.81 47.0723C14.9821 47.384 15.3101 47.5771 15.6667 47.5771C16.0233 47.5771 16.3513 47.384 16.5234 47.0723L29.4572 23.6812C30.685 21.4083 31.3334 18.837 31.3334 16.2438C31.3334 7.60539 24.3051 0.577148 15.6667 0.577148ZM15.6667 24.0771C11.3475 24.0771 7.8334 20.5631 7.8334 16.2438C7.8334 11.9246 11.3475 8.41054 15.6667 8.41054C19.9859 8.41054 23.5 11.9246 23.5 16.2438C23.5 20.5631 19.9859 24.0771 15.6667 24.0771Z"/>
    </symbol>


    <symbol id="arrow-select" viewBox="0 0 14 9">
        <path d="M0.441942 2.09868C0.197864 1.8546 0.197864 1.45887 0.441942 1.2148L1.32583 0.330913C1.5699 0.0868355 1.96563 0.0868354 2.20971 0.330913L8.39689 6.5181C8.64097 6.76217 8.64097 7.1579 8.39689 7.40198L7.51301 8.28586C7.26893 8.52994 6.8732 8.52994 6.62913 8.28586L0.441942 2.09868Z"/>
        <path d="M11.9324 0.330913C12.1765 0.0868356 12.5722 0.0868353 12.8163 0.330913L13.7002 1.2148C13.9443 1.45887 13.9443 1.8546 13.7002 2.09868L7.51301 8.28586C7.26893 8.52994 6.8732 8.52994 6.62913 8.28586L5.74524 7.40198C5.50116 7.1579 5.50116 6.76217 5.74524 6.5181L11.9324 0.330913Z"/>
    </symbol>

    <symbol id="calendar" viewBox="0 0 14 14">
        <g>
            <path d="M5.10071 7.7237C5.10071 7.54833 4.95846 7.40625 4.78294 7.40625H3.67404C3.49872 7.40625 3.35645 7.54833 3.35645 7.7237V8.83246C3.35645 9.00806 3.49872 9.1502 3.67404 9.1502H4.78294C4.95846 9.1502 5.10071 9.00806 5.10071 8.83246V7.7237Z"/>
            <path d="M7.87253 7.7237C7.87253 7.54833 7.73024 7.40625 7.55507 7.40625H6.44602C6.2707 7.40625 6.12842 7.54833 6.12842 7.7237V8.83246C6.12842 9.00806 6.2707 9.1502 6.44602 9.1502H7.55507C7.73024 9.1502 7.87253 9.00806 7.87253 8.83246V7.7237Z"/>
            <path d="M10.6432 7.7237C10.6432 7.54833 10.5009 7.40625 10.3256 7.40625H9.2167C9.04118 7.40625 8.89893 7.54833 8.89893 7.7237V8.83246C8.89893 9.00806 9.04118 9.1502 9.2167 9.1502H10.3256C10.5009 9.1502 10.6432 9.00806 10.6432 8.83246V7.7237Z"/>
            <path d="M5.10071 10.4954C5.10071 10.3197 4.95846 10.1777 4.78294 10.1777H3.67404C3.49872 10.1777 3.35645 10.3197 3.35645 10.4954V11.6039C3.35645 11.7794 3.49872 11.9215 3.67404 11.9215H4.78294C4.95846 11.9215 5.10071 11.7794 5.10071 11.6039V10.4954Z"/>
            <path d="M7.87253 10.4954C7.87253 10.3197 7.73024 10.1777 7.55507 10.1777H6.44602C6.2707 10.1777 6.12842 10.3197 6.12842 10.4954V11.6039C6.12842 11.7794 6.2707 11.9215 6.44602 11.9215H7.55507C7.73024 11.9215 7.87253 11.7794 7.87253 11.6039V10.4954Z"/>
            <path d="M10.6432 10.4954C10.6432 10.3197 10.5009 10.1777 10.3257 10.1777H9.2167C9.04118 10.1777 8.89893 10.3197 8.89893 10.4954V11.6039C8.89893 11.7794 9.04118 11.9215 9.2167 11.9215H10.3257C10.5009 11.9215 10.6432 11.7794 10.6432 11.6039V10.4954Z"/>
            <path d="M12.6264 1.55881V3.25234C12.6264 4.0178 12.0054 4.63464 11.2401 4.63464H10.3656C9.60015 4.63464 8.97095 4.0178 8.97095 3.25234V1.55273H5.02923V3.25234C5.02923 4.0178 4.40005 4.63464 3.63477 4.63464H2.76007C1.99475 4.63464 1.37381 4.0178 1.37381 3.25234V1.55881C0.704918 1.57898 0.155273 2.13246 0.155273 2.81277V12.7377C0.155273 13.4308 0.717049 14 1.41015 14H12.59C13.2821 14 13.8449 13.4296 13.8449 12.7377V2.81277C13.8449 2.13246 13.2953 1.57898 12.6264 1.55881ZM12.2202 12.1196C12.2202 12.4191 11.9773 12.6621 11.6777 12.6621H2.29859C1.99894 12.6621 1.75608 12.4191 1.75608 12.1196V6.99305C1.75608 6.69341 1.99891 6.45041 2.29859 6.45041H11.6777C11.9773 6.45041 12.2202 6.69341 12.2202 6.99305L12.2202 12.1196Z"/>
            <path d="M2.7567 3.72677H3.62173C3.8843 3.72677 4.09718 3.5142 4.09718 3.25163V0.475307C4.09718 0.212717 3.8843 0 3.62173 0H2.7567C2.49411 0 2.28125 0.212717 2.28125 0.475307V3.25163C2.28125 3.5142 2.49411 3.72677 2.7567 3.72677Z"/>
            <path d="M10.3543 3.72677H11.2194C11.4818 3.72677 11.6946 3.5142 11.6946 3.25163V0.475307C11.6947 0.212717 11.4818 0 11.2194 0H10.3543C10.0918 0 9.87891 0.212717 9.87891 0.475307V3.25163C9.87891 3.5142 10.0918 3.72677 10.3543 3.72677Z"/>
        </g>
    </symbol>

    <symbol id="oil" viewBox="0 0 10 13">
        <path d="M9.92188 4.53711C9.92188 4.43263 9.88201 4.33209 9.81039 4.25599L6.52914 0.76966C6.45163 0.687328 6.34356 0.640625 6.23047 0.640625H2.12891C2.01177 0.640625 1.9002 0.690719 1.82236 0.778273L0.181731 2.62398C0.115012 2.69906 0.078125 2.79602 0.078125 2.89648V10.1289C0.078125 10.4437 0.196988 10.7314 0.392195 10.9492C0.196988 11.1671 0.078125 11.4547 0.078125 11.7695C0.078125 12.448 0.630113 13 1.30859 13H8.69141C9.36989 13 9.92188 12.448 9.92188 11.7695C9.92188 11.4547 9.80301 11.1671 9.60781 10.9492C9.80304 10.7314 9.92188 10.4437 9.92188 10.1289V4.53711ZM5 10.539C4.32152 10.539 3.76953 9.98697 3.76953 9.30848C3.76953 9.13955 3.81779 8.83177 4.23506 8.11247C4.44582 7.74913 4.65377 7.44741 4.66252 7.43475C4.73911 7.3239 4.86525 7.2577 5 7.2577C5.13475 7.2577 5.26089 7.32388 5.33748 7.43475C5.34623 7.44741 5.55418 7.74913 5.76494 8.11247C6.18221 8.8318 6.23047 9.13955 6.23047 9.30848C6.23047 9.98697 5.67848 10.539 5 10.539ZM8.02359 5.70001C7.86497 5.84942 7.66309 5.92311 7.46124 5.92311C7.24295 5.92311 7.02543 5.83659 6.86402 5.66515L4.98026 3.66364C4.66944 3.3336 4.68546 2.81448 5.01509 2.50407C5.34554 2.19364 5.86505 2.20928 6.17466 2.53891L8.05843 4.54042C8.36924 4.87048 8.35322 5.38958 8.02359 5.70001Z"/>
        <path d="M4.58984 9.30913C4.58984 9.53482 4.77384 9.71882 5 9.71882C5.22605 9.71882 5.40996 9.53499 5.41016 9.30899C5.40666 9.18316 5.23617 8.82588 5.00008 8.42822C4.7638 8.82629 4.59318 9.18373 4.58984 9.30913Z"/>
    </symbol>

    <symbol id="transmission" viewBox="0 0 14 14">
        <path d="M8.05225 12.9062H7.50537V9.11827C8.27294 8.92 8.87849 8.31444 9.07679 7.54688H12.0718C12.3738 7.54688 12.6187 7.30204 12.6187 7V1.09375H13.1929C13.4949 1.09375 13.7397 0.848914 13.7397 0.546875C13.7397 0.244836 13.4949 0 13.1929 0H11.0054C10.7033 0 10.4585 0.244836 10.4585 0.546875C10.4585 0.848914 10.7033 1.09375 11.0054 1.09375H11.5249V6.45312H9.07679C8.87852 5.68556 8.27296 5.08 7.50537 4.88173V1.09375H8.05225C8.35429 1.09375 8.59912 0.848914 8.59912 0.546875C8.59912 0.244836 8.35429 0 8.05225 0H5.86475C5.56271 0 5.31787 0.244836 5.31787 0.546875C5.31787 0.848914 5.56271 1.09375 5.86475 1.09375H6.41162V4.88173C5.64405 5.08 5.0385 5.68556 4.8402 6.45312H2.28271V1.09375H2.82959C3.13163 1.09375 3.37646 0.848914 3.37646 0.546875C3.37646 0.244836 3.13163 0 2.82959 0H0.64209C0.340051 0 0.0952148 0.244836 0.0952148 0.546875C0.0952148 0.848914 0.340051 1.09375 0.64209 1.09375H1.18896V12.9062H0.64209C0.340051 12.9062 0.0952148 13.1511 0.0952148 13.4531C0.0952148 13.7552 0.340051 14 0.64209 14H2.82959C3.13163 14 3.37646 13.7552 3.37646 13.4531C3.37646 13.1511 3.13163 12.9062 2.82959 12.9062H2.28271V7.54688H4.8402C5.03847 8.31444 5.64403 8.92 6.41162 9.11827V12.9062H5.86475C5.56271 12.9062 5.31787 13.1511 5.31787 13.4531C5.31787 13.7552 5.56271 14 5.86475 14H8.05225C8.35429 14 8.59912 13.7552 8.59912 13.4531C8.59912 13.1511 8.35429 12.9062 8.05225 12.9062ZM5.86475 7C5.86475 6.39691 6.3554 5.90625 6.9585 5.90625C7.56159 5.90625 8.05225 6.39691 8.05225 7C8.05225 7.60309 7.56159 8.09375 6.9585 8.09375C6.3554 8.09375 5.86475 7.60309 5.86475 7ZM13.2115 11.961C13.6302 11.6692 13.905 11.1846 13.905 10.6367C13.905 9.74714 13.1812 9.02344 12.2917 9.02344C11.3713 9.02344 10.6226 9.77219 10.6226 10.6926V13.4531C10.6226 13.7552 10.8674 14 11.1694 14C11.4715 14 11.7163 13.7552 11.7163 13.4531V12.25H12.1318L12.8603 13.6983C12.9534 13.8833 13.1427 14 13.3498 14C13.7578 14 14.0227 13.5699 13.839 13.2055L13.2115 11.961ZM11.7163 10.6926C11.7163 10.3753 11.9744 10.1172 12.2917 10.1172C12.5782 10.1172 12.8112 10.3502 12.8112 10.6367C12.8112 10.9232 12.5782 11.1562 12.2917 11.1562H11.7163V10.6926Z"/>
    </symbol>

    <symbol id="arrow-left" viewBox="0 0 17 11">
        <path d="M6.45089 9.93655C6.61634 10.0946 6.61634 10.3508 6.45089 10.5088L6.06062 10.8815C5.89517 11.0395 5.62692 11.0395 5.46147 10.8815L0.124087 5.78406C-0.0413661 5.62605 -0.0413642 5.36986 0.124087 5.21184L0.514351 4.83912C0.679804 4.68111 0.948058 4.68111 1.11351 4.83912L6.45089 9.93655Z"/>
        <path d="M5.46575 0.118511C5.63121 -0.0395031 5.89946 -0.0395031 6.06491 0.118511L6.45518 0.491232C6.62063 0.649246 6.62063 0.905438 6.45518 1.06345L1.1178 6.16088C0.952345 6.31889 0.684094 6.31889 0.518641 6.16088L0.128375 5.78816C-0.0370784 5.63014 -0.0370784 5.37395 0.128375 5.21594L5.46575 0.118511Z"/>
        <path d="M17 5.64622C17 5.86969 16.8103 6.05084 16.5763 6.05084L1.83908 6.05084C1.60509 6.05084 1.41541 5.86969 1.41541 5.64622L1.41541 4.95764C1.41541 4.73417 1.60509 4.55301 1.83908 4.55301L16.5763 4.55302C16.8103 4.55302 17 4.73417 17 4.95764L17 5.64622Z"/>
    </symbol>


    <symbol id="checkbox" viewBox="0 0 15 12">
        <path d="M0.486328 6.33691L1.90054 4.9227L6.35914 9.3813L4.94493 10.7955L0.486328 6.33691Z"/>
        <path d="M13.4922 0.402344L14.9064 1.81656L5.43594 11.287L4.02173 9.87281L13.4922 0.402344Z"/>
    </symbol>

    <symbol id="tab-view1" viewBox="0 0 15 16">
        <path d="M0.524414 1.07324H3.2378V3.78662H0.524414V1.07324ZM6.09449 1.07324H8.80787V3.78662H6.09449V1.07324ZM11.6646 1.07324H14.3779V3.78662H11.6646V1.07324ZM0.524414 6.64331H3.2378V9.3567H0.524414V6.64331ZM6.09449 6.64331H8.80787V9.3567H6.09449V6.64331ZM11.6646 6.64331H14.3779V9.3567H11.6646V6.64331ZM0.524414 12.2134H3.2378V14.9268H0.524414V12.2134ZM6.09449 12.2134H8.80787V14.9268H6.09449V12.2134ZM11.6646 12.2134H14.3779V14.9268H11.6646V12.2134Z"/>
    </symbol>

    <symbol id="tab-view2" viewBox="0 0 19 14">
        <path d="M0.8479 0.116699H3.77647V3.04527H0.8479V0.116699Z"/>
        <path d="M6.00983 0.116699H18.0543V3.04179H6.00983V0.116699Z"/>
        <path d="M0.8479 5.54033H3.77647V8.4689H0.8479V5.54033Z"/>
        <path d="M6.00983 5.54033H18.0543V8.46542H6.00983V5.54033Z"/>
        <path d="M0.8479 10.9448H3.77647V13.8734H0.8479V10.9448Z"/>
        <path d="M6.00983 10.9448H18.0543V13.8699H6.00983V10.9448Z"/>
    </symbol>

    <symbol id="tab-view3" viewBox="0 0 17 14">
        <path d="M0.0491636 0.27832H16.8533V3.13503H0.0491636V0.27832Z"/>
        <path d="M0.0490723 5.57514H16.8532V8.4359H0.0490723V5.57514Z"/>
        <path d="M0.0490723 10.8533H16.8532V13.7216H0.0490723V10.8533Z"/>
    </symbol>

    <symbol id="filter" viewBox="0 0 22 16">
        <path d="M0.236328 2.0365H21.2153V3.29392H0.236328V2.0365Z" fill="#2AB051"/>
        <path fill-rule="evenodd" clip-rule="evenodd" d="M0.236328 2.0365V3.29392H21.2153V2.0365H0.236328Z"
              fill="#8FBA44"/>
        <path d="M2.51758 0.406616H6.64885V4.53788H2.51758V0.406616Z" fill="white"/>
        <path fill-rule="evenodd" clip-rule="evenodd"
              d="M5.64885 1.40662H3.51758V3.53788H5.64885V1.40662ZM2.51758 0.406616V4.53788H6.64885V0.406616H2.51758Z"
              fill="#8FBA44"/>
        <path d="M0.236328 12.5642H21.2153V13.8216H0.236328V12.5642Z" fill="#2AB051"/>
        <path fill-rule="evenodd" clip-rule="evenodd" d="M0.236328 12.5642V13.8216H21.2153V12.5642H0.236328Z"
              fill="#8FBA44"/>
        <path d="M8.66016 10.9343H12.7914V15.0656H8.66016V10.9343Z" fill="white"/>
        <path fill-rule="evenodd" clip-rule="evenodd"
              d="M11.7914 11.9343H9.66016V14.0656H11.7914V11.9343ZM8.66016 10.9343V15.0656H12.7914V10.9343H8.66016Z"
              fill="#8FBA44"/>
        <path d="M0.236328 7.06421H21.2153V8.32163H0.236328V7.06421Z" fill="#2AB051"/>
        <path fill-rule="evenodd" clip-rule="evenodd" d="M0.236328 7.06421V8.32163H21.2153V7.06421H0.236328Z"
              fill="#8FBA44"/>
        <path d="M15.0103 5.43433H19.1415V9.56559H15.0103V5.43433Z" fill="white"/>
        <path fill-rule="evenodd" clip-rule="evenodd"
              d="M18.1415 6.43433H16.0103V8.56559H18.1415V6.43433ZM15.0103 5.43433V9.56559H19.1415V5.43433H15.0103Z"
              fill="#8FBA44"/>
    </symbol>

    <symbol id="sorting" viewBox="0 0 19 12">
        <path fill-rule="evenodd" clip-rule="evenodd" d="M0 0V2H19V0H0Z" fill="#8FBA44"/>
        <path fill-rule="evenodd" clip-rule="evenodd" d="M0 10V12H7V10H0Z" fill="#8FBA44"/>
        <path fill-rule="evenodd" clip-rule="evenodd" d="M0 5V7H13V5H0Z" fill="#8FBA44"/>
    </symbol>


    <symbol id="phone2" viewBox="0 0 16 16">
        <path d="M14.9531 11.3829C13.7166 11.2697 12.5109 10.9554 11.3714 10.448C10.8114 10.1954 10.1566 10.424 9.88114 10.968L9.104 12.5109C6.74743 11.2046 4.79314 9.24914 3.48914 6.89486L5.03086 6.11886C5.57486 5.84571 5.80457 5.19086 5.55314 4.62857C5.04457 3.49029 4.72914 2.28571 4.61714 1.04686C4.56229 0.450286 4.07657 0 3.48571 0H0.571429C0.256 0 0 0.256 0 0.571429C0 2.89829 0.507429 5.14171 1.50743 7.24229C3.02629 10.3989 5.60114 12.9737 8.76 14.4937C10.8594 15.4937 13.1029 16 15.4286 16C15.744 16 16 15.744 16 15.4286V12.5143C16 11.9234 15.5497 11.4366 14.9531 11.3829Z"/>
    </symbol>

    <symbol id="camera" viewBox="0 0 31 28">
        <path d="M29.3974 9.08971H24.8554L23.8875 6.50849C23.7468 6.13317 23.388 5.88458 22.9872 5.88458H14.0128C13.612 5.88458 13.2532 6.13317 13.1125 6.50849L12.1446 9.08971H7.60256C6.7175 9.08971 6 9.80721 6 10.6923V23.5128C6 24.3979 6.7175 25.1154 7.60256 25.1154H29.3974C30.2825 25.1154 31 24.3979 31 23.5128V10.6923C31 9.80721 30.2825 9.08971 29.3974 9.08971ZM18.5 11.0128C21.8579 11.0128 24.5897 13.7446 24.5897 17.1025C24.5897 20.4604 21.8579 23.1923 18.5 23.1923C15.1421 23.1923 12.4103 20.4604 12.4103 17.1025C12.4103 13.7446 15.1421 11.0128 18.5 11.0128Z"
              fill="#8FBA44"/>
        <path d="M14.333 17.1025C14.333 19.4 16.2022 21.2692 18.4997 21.2692C20.7972 21.2692 22.6663 19.4 22.6663 17.1025C22.6663 14.805 20.7972 12.9359 18.4997 12.9359C16.2022 12.9359 14.333 14.805 14.333 17.1025Z"
              fill="#8FBA44"/>
        <path d="M5.88889 1.4H5.28889V2V5.28889L2 5.28889L1.4 5.28889V5.88889L1.4 8.11111V8.71111H2L5.28889 8.71111V12V12.6H5.88889H8.11111H8.71111V12V8.71111L12 8.71111H12.6V8.11111V5.88889V5.28889H12L8.71111 5.28889V2V1.4H8.11111H5.88889Z"
              fill="#8FBA44" stroke="white" stroke-width="1.2"/>
    </symbol>

    <symbol id="cube-tab" viewBox="0 0 15 16">
        <path d="M0.0244141 0.573242H3.7378V4.28662H0.0244141V0.573242Z"/>
        <path d="M5.59449 0.573242H9.30787V4.28662H5.59449V0.573242Z"/>
        <path d="M11.1646 0.573242H14.8779V4.28662H11.1646V0.573242Z"/>
        <path d="M0.0244141 6.14331H3.7378V9.8567H0.0244141V6.14331Z"/>
        <path d="M5.59449 6.14331H9.30787V9.8567H5.59449V6.14331Z"/>
        <path d="M11.1646 6.14331H14.8779V9.8567H11.1646V6.14331Z"/>
        <path d="M0.0244141 11.7134H3.7378V15.4268H0.0244141V11.7134Z"/>
        <path d="M5.59449 11.7134H9.30787V15.4268H5.59449V11.7134Z"/>
        <path d="M11.1646 11.7134H14.8779V15.4268H11.1646V11.7134Z"/>
    </symbol>

    <symbol id="line-tab" viewBox="0 0 19 14">
        <path d="M0.847656 0.116699H3.77623V3.04527H0.847656V0.116699Z"/>
        <path d="M6.00959 0.116699H18.0541V3.04179H6.00959V0.116699Z"/>
        <path d="M0.847656 5.54033H3.77623V8.4689H0.847656V5.54033Z"/>
        <path d="M6.00959 5.54033H18.0541V8.46542H6.00959V5.54033Z"/>
        <path d="M0.847656 10.9448H3.77623V13.8734H0.847656V10.9448Z"/>
        <path d="M6.00959 10.9448H18.0541V13.8699H6.00959V10.9448Z"/>
    </symbol>

</svg>