<svg width="50" height="50" viewBox="0 0 50 50" fill="none" xmlns="http://www.w3.org/2000/svg">
    <g clip-path="url(#clip0_485_4461)">
        <path d="M38.0382 8.5373C38.0382 7.36426 37.5804 6.25996 36.7507 5.43027L32.6079 1.2875C31.7897 0.469238 30.6283 0 29.4725 0H29.2207V8.78906H38.0383L38.0382 8.5373Z" fill="#2F5048"/>
        <path d="M26.7517 30.2282C27.032 29.377 27.5213 28.5846 28.1593 27.9423L38.0774 18.0641V11.7188H27.7845C26.9748 11.7188 26.3672 11.0636 26.3672 10.2539V0H4.39453C1.97129 0 0 1.97129 0 4.39453V45.6055C0 48.0287 1.97129 50 4.39453 50H33.6438C36.0671 50 38.0774 48.0287 38.0774 45.6055V34.6728L36.4677 36.2435C35.8154 36.89 35.0516 37.3606 34.1903 37.6482L29.5326 39.2032L28.823 39.2419C27.65 39.2419 26.5399 38.6711 25.8505 37.7155C25.1667 36.7643 24.9808 35.5312 25.3526 34.4168L26.7517 30.2282ZM7.32422 26.3672H21.9251C22.7348 26.3672 23.3899 27.0224 23.3899 27.832C23.3899 28.6417 22.7348 29.2969 21.9251 29.2969H7.32422C6.51455 29.2969 5.85937 28.6417 5.85937 27.832C5.85937 27.0224 6.51455 26.3672 7.32422 26.3672ZM5.85937 21.9727C5.85937 21.163 6.51455 20.5078 7.32422 20.5078H21.9251C22.7348 20.5078 23.3899 21.163 23.3899 21.9727C23.3899 22.7823 22.7348 23.4375 21.9251 23.4375H7.32422C6.51455 23.4375 5.85937 22.7823 5.85937 21.9727ZM5.85937 33.6914C5.85937 32.8817 6.51455 32.2266 7.32422 32.2266H21.9251C22.7348 32.2266 23.3899 32.8817 23.3899 33.6914C23.3899 34.5011 22.7348 35.1562 21.9251 35.1562H7.32422C6.51455 35.1562 5.85937 34.5011 5.85937 33.6914ZM27.7845 41.0156C28.5941 41.0156 29.2493 41.6708 29.2493 42.4805C29.2493 43.2901 28.5942 43.9453 27.7845 43.9453H18.9954C18.1857 43.9453 17.5306 43.2901 17.5306 42.4805C17.5306 41.6708 18.1857 41.0156 18.9954 41.0156H27.7845ZM7.32422 17.5781C6.51455 17.5781 5.85937 16.9229 5.85937 16.1133C5.85937 15.3036 6.51455 14.6484 7.32422 14.6484H27.7845C28.5941 14.6484 29.2493 15.3036 29.2493 16.1133C29.2493 16.9229 28.5941 17.5781 27.7845 17.5781H7.32422Z" fill="#2F5048"/>
        <path d="M29.4071 31.5242L28.1326 35.3475C27.9416 35.9203 28.4866 36.4651 29.0594 36.2738L32.8805 34.9976L29.4071 31.5242Z" fill="#8FBA44"/>
        <path d="M40.7821 19.4636L31.1348 29.111L35.2954 33.2716C37.4759 31.0908 41.7186 26.8475 44.9423 23.6238L40.7821 19.4636Z" fill="#8FBA44"/>
        <path d="M49.1393 15.2622C48.6243 14.7443 47.8661 14.4482 47.0621 14.4482C46.2581 14.4482 45.5 14.7443 44.9821 15.2637L42.8535 17.3923L47.0135 21.5522C48.1788 20.3868 48.9843 19.5813 49.1423 19.4234C50.2865 18.2774 50.2864 16.4108 49.1393 15.2622Z" fill="#8FBA44"/>
        <path d="M49.1426 19.4236C49.1427 19.4236 49.1427 19.4235 49.1428 19.4234C49.1465 19.4197 49.1481 19.4181 49.1512 19.415C49.1481 19.4182 49.1465 19.4198 49.1426 19.4236Z" fill="#2F5048"/>
        <path d="M49.1523 19.4148C49.157 19.4102 49.1625 19.4047 49.1653 19.4019C49.1624 19.4048 49.157 19.4102 49.1523 19.4148Z" fill="black"/>
        <path d="M49.1641 19.402C49.1735 19.3925 49.1737 19.3923 49.1641 19.402V19.402Z" fill="black"/>
    </g>
    <defs>
        <clipPath id="clip0_485_4461">
            <rect width="50" height="50" fill="white"/>
        </clipPath>
    </defs>
</svg>
