<svg width="46" height="48" viewBox="0 0 46 48" fill="none" xmlns="http://www.w3.org/2000/svg">
    <path d="M45.3984 24.6998L41.4984 23.6998L39.6984 25.1998C39.5984 25.0998 36.0984 15.8998 36.1984 16.1998C35.6984 14.8998 34.3984 13.8998 32.9984 13.7998C26.9984 13.2998 20.8984 13.2998 14.8984 13.7998C13.4984 13.8998 12.1984 14.7998 11.6984 16.1998C11.6984 16.2998 7.99844 25.7998 8.19844 25.1998L6.39844 23.6998L2.49844 24.6998C2.19844 24.7998 1.89844 25.0998 1.89844 25.3998V26.3998C1.89844 26.8998 2.19844 27.2998 2.69844 27.4998L6.49844 28.9998L5.99844 29.6998C5.49844 30.4998 5.29844 31.3998 5.29844 32.2998V44.2998C5.29844 46.0998 6.69844 47.4998 8.49844 47.4998H10.9984C12.7984 47.4998 14.1984 46.0998 14.1984 44.2998V42.5998H33.8984V44.2998C33.8984 46.0998 35.2984 47.4998 37.0984 47.4998H39.5984C41.3984 47.4998 42.7984 46.0998 42.7984 44.2998V32.2998C42.7984 31.3998 42.5984 30.4998 42.0984 29.6998L41.5984 28.9998L45.1984 27.4998C45.5984 27.2998 45.9984 26.8998 45.9984 26.3998V25.3998C45.9984 25.0998 45.7984 24.7998 45.3984 24.6998V24.6998ZM13.2984 34.0998L11.7984 37.1998C11.6984 37.4998 11.3984 37.5998 11.1984 37.5998H7.99844C7.59844 37.5998 7.29844 37.2998 7.29844 36.8998V33.7998C7.29844 33.3998 7.59844 33.0998 7.99844 33.0998H12.6984C13.1984 33.0998 13.5984 33.5998 13.2984 34.0998V34.0998ZM9.79844 27.0998L12.3984 20.2998C19.9984 19.6998 25.3984 19.4998 34.5984 20.1998C34.9984 20.1998 35.3984 20.2998 35.7984 20.2998L38.3984 27.0998H36.9984C36.4984 24.2998 34.0984 22.1998 31.1984 22.1998C28.2984 22.1998 25.8984 24.2998 25.3984 27.0998H9.79844ZM27.3984 27.0998C27.7984 25.3998 29.3984 24.1998 31.1984 24.1998C32.9984 24.1998 34.4984 25.3998 34.9984 27.0998H27.3984ZM31.3984 38.3998H16.8984C16.3984 38.3998 16.0984 37.8998 16.2984 37.3998L18.2984 32.6998C18.3984 32.3998 18.6984 32.2998 18.8984 32.2998H29.1984C29.4984 32.2998 29.6984 32.4998 29.7984 32.6998L31.7984 37.3998C32.1984 37.8998 31.8984 38.3998 31.3984 38.3998ZM40.7984 36.8998C40.7984 37.2998 40.4984 37.5998 40.0984 37.5998H36.8984C36.5984 37.5998 36.3984 37.3998 36.2984 37.1998L34.7984 34.0998C34.5984 33.5998 34.8984 33.0998 35.3984 33.0998H40.0984C40.4984 33.0998 40.7984 33.3998 40.7984 33.7998V36.8998Z" fill="#2F5048"/>
    <path d="M8.6 18.9999C8.8 18.5999 9.7 16.2999 9.6 16.3999C9.5 16.3999 9.4 16.4999 9.2 16.4999C8.7 16.4999 8.2 16.0999 8.2 15.4999V14.9999C7 14.5999 6 13.3999 6 11.9999C6 11.3999 6.5 10.9999 7 10.9999C7.5 10.9999 8 11.3999 8 11.9999C8 12.6999 8.5 13.1999 9.2 13.1999C9.9 13.1999 10.4 12.6999 10.4 11.9999C10.4 11.2999 9.9 10.7999 9.2 10.7999C7.5 10.6999 6 9.2999 6 7.4999C6 6.0999 6.9 4.8999 8.2 4.4999V3.9999C8.2 3.4999 8.7 2.9999 9.2 2.9999C9.8 2.9999 10.2 3.4999 10.2 3.9999V4.4999C11.5 4.8999 12.4 6.0999 12.4 7.4999C12.4 8.0999 11.9 8.4999 11.4 8.4999C10.9 8.4999 10.4 8.0999 10.4 7.4999C10.4 6.7999 9.9 6.2999 9.2 6.2999C8.5 6.2999 8 6.7999 8 7.4999C8 8.1999 8.5 8.6999 9.2 8.6999C11 8.6999 12.4 10.0999 12.4 11.8999C12.4 12.1999 12.4 12.3999 12.3 12.5999C13 12.1999 13.9 11.8999 14.8 11.7999C15.9 11.6999 17.1 11.5999 18.3 11.5999C18.4 10.9999 18.5 10.2999 18.5 9.6999C18.5 4.5999 14.4 0.399902 9.2 0.399902C4.1 0.499902 0 4.5999 0 9.7999C0 14.5999 3.8 18.6999 8.6 18.9999V18.9999Z" fill="#8FBA44"/>
</svg>
