<svg width="26" height="26" viewBox="0 0 26 26" fill="none" xmlns="http://www.w3.org/2000/svg">
    <path d="M24.302 11.172L19.2409 16.1055L20.4361 23.0735C20.4881 23.3782 20.363 23.6861 20.1127 23.8681C19.9713 23.9713 19.8031 24.0233 19.635 24.0233C19.5058 24.0233 19.3758 23.9924 19.2571 23.9298L12.9993 20.64L6.74221 23.929C6.46921 24.0737 6.1369 24.0501 5.88665 23.8673C5.6364 23.6853 5.51127 23.3773 5.56327 23.0727L6.75846 16.1047L1.69659 11.172C1.47559 10.9558 1.39515 10.6325 1.49102 10.3392C1.5869 10.0458 1.84121 9.83053 2.14752 9.78585L9.14234 8.77022L12.2705 2.4311C12.5443 1.87616 13.4543 1.87616 13.7281 2.4311L16.8562 8.77022L23.851 9.78585C24.1573 9.83053 24.4116 10.045 24.5075 10.3392C24.6034 10.6333 24.523 10.955 24.302 11.172Z" fill="#8FBA44"/>
</svg>
