<svg width="26" height="26" viewBox="0 0 26 26" fill="none" xmlns="http://www.w3.org/2000/svg">
    <path d="M24.5077 10.3382C24.4118 10.0441 24.1575 9.82956 23.8512 9.78487L16.8563 8.76924L13.7282 2.43012C13.4544 1.87518 12.5444 1.87518 12.2706 2.43012L9.14247 8.76924L2.14766 9.78487C1.84135 9.82956 1.58704 10.0441 1.49116 10.3382C1.39529 10.6323 1.47491 10.9549 1.69672 11.171L6.75779 16.1045L5.5626 23.0725C5.5106 23.3772 5.63572 23.6851 5.88597 23.8671C6.13704 24.0507 6.46854 24.0735 6.74154 23.9289L12.9994 20.6399L19.2565 23.9289C19.3751 23.9914 19.5051 24.0223 19.6343 24.0223C19.8025 24.0223 19.9707 23.9703 20.112 23.8671C20.3623 23.6851 20.4874 23.3772 20.4354 23.0725L19.2402 16.1045L24.3013 11.171C24.5231 10.9549 24.6027 10.6323 24.5077 10.3382ZM17.7997 15.24C17.6087 15.4261 17.521 15.6958 17.5657 15.9591L18.5545 21.7254L13.3764 19.0035C13.2594 18.9409 13.1294 18.9092 12.9994 18.9092C12.8694 18.9092 12.7394 18.9401 12.6216 19.0027L7.44354 21.7246L8.43235 15.9582C8.47704 15.695 8.3901 15.4261 8.19835 15.2392L4.00991 11.1564L9.79816 10.3154C10.063 10.2772 10.2913 10.1107 10.41 9.87099L12.9994 4.62549L15.588 9.87099C15.7067 10.1107 15.935 10.2772 16.1998 10.3154L21.9881 11.1564L17.7997 15.24Z" fill="#8FBA44"/>
</svg>
