<svg width="30" height="30" viewBox="0 0 30 30" fill="none" xmlns="http://www.w3.org/2000/svg">
    <path d="M15 30C23.2843 30 30 23.2843 30 15C30 6.71573 23.2843 0 15 0C6.71573 0 0 6.71573 0 15C0 23.2843 6.71573 30 15 30Z" fill="#6F3FAA"/>
    <path d="M23.6638 10.1323V10.1102C23.4627 9.29538 22.9377 8.45333 22.2491 7.74424C21.4445 6.91242 20.4201 6.25958 19.4417 6.04822H19.4212C16.5034 5.48913 13.506 5.48913 10.5883 6.04822H10.5678C8.75077 6.44197 6.77861 8.34083 6.33884 10.1102V10.1323C5.79851 12.5853 5.79851 15.1265 6.33884 17.5795V17.5999C6.65247 18.8613 7.74338 20.1874 9.00134 20.9886C9.41216 21.2563 9.85935 21.4635 10.3292 21.6039V23.5778C10.3298 23.7355 10.3775 23.8895 10.466 24.0201C10.5545 24.1506 10.6798 24.2519 10.8261 24.311C10.9724 24.37 11.1329 24.3842 11.2873 24.3517C11.4416 24.3191 11.5828 24.2414 11.6928 24.1283L13.694 22.0488C14.1269 22.0726 14.5633 22.0863 14.9962 22.0863C16.4783 22.0858 17.957 21.9454 19.4127 21.667H19.4332C21.2451 21.2715 23.219 19.3726 23.6553 17.6033V17.5829C24.1989 15.1294 24.2019 12.587 23.6638 10.1323ZM22.0803 17.2147C21.7871 18.3687 20.2905 19.8056 19.0991 20.0698C17.5515 20.3663 15.9765 20.4948 14.4013 20.4533C14.386 20.4524 14.3707 20.455 14.3565 20.4609C14.3423 20.4668 14.3296 20.4759 14.3195 20.4874L12.8587 21.9874L11.3042 23.5812C11.2793 23.6075 11.2471 23.6257 11.2118 23.6334C11.1765 23.6412 11.1396 23.6382 11.106 23.6248C11.0724 23.6114 11.0436 23.5882 11.0233 23.5583C11.003 23.5283 10.9922 23.4929 10.9922 23.4567V20.184C10.9923 20.1577 10.9831 20.1322 10.9663 20.112C10.9495 20.0917 10.9261 20.078 10.9002 20.0732C10.6517 20.0142 10.4121 19.9225 10.1877 19.8005C9.1752 19.2601 8.15418 18.1522 7.91895 17.2147C7.43172 14.9974 7.43172 12.7007 7.91895 10.4834C8.21043 9.33458 9.71554 7.90106 10.8985 7.63515C13.6074 7.11682 16.3901 7.11682 19.0991 7.63515C19.7553 7.78174 20.5053 8.28117 21.0917 8.89481C21.5741 9.39424 21.944 9.97038 22.0803 10.4886C22.5668 12.7042 22.5668 14.999 22.0803 17.2147Z" fill="white"/>
    <path d="M19.1416 17.3865C18.9201 17.8919 18.5394 18.311 18.0575 18.5797C17.9063 18.6439 17.7493 18.6935 17.5887 18.728C17.4063 18.6735 17.2325 18.636 17.0773 18.5695C15.7852 18.0667 14.5824 17.3593 13.5148 16.4746C13.1977 16.2042 12.8998 15.912 12.6234 15.6002C11.9406 14.8139 11.3672 13.9389 10.9188 12.999C10.7006 12.5541 10.5165 12.0939 10.329 11.6354C10.1586 11.2178 10.4109 10.7831 10.6699 10.4712C10.9236 10.1819 11.2355 9.94954 11.5853 9.78937C11.7084 9.72751 11.8492 9.71069 11.9834 9.74182C12.1176 9.77296 12.2367 9.85009 12.3199 9.95983C12.7555 10.4491 13.1393 10.9821 13.4654 11.5502C13.5681 11.7154 13.6033 11.9138 13.5636 12.1042C13.524 12.2946 13.4125 12.4625 13.2523 12.5729C13.1671 12.6326 13.0819 12.7007 13.0086 12.7672C12.9363 12.8207 12.874 12.8865 12.8245 12.9615C12.7818 13.0318 12.7558 13.1109 12.7487 13.1928C12.7416 13.2747 12.7536 13.3572 12.7836 13.4337C13.1126 14.3388 13.612 15.0939 14.3586 15.624C14.6113 15.8027 14.8835 15.9519 15.17 16.0689C15.357 16.1707 15.5672 16.2223 15.7802 16.2189C16.1518 16.1746 16.2745 15.7638 16.5336 15.5524C16.6525 15.4551 16.7997 15.3987 16.9532 15.3916C17.1068 15.3845 17.2585 15.4272 17.3859 15.5132C17.662 15.6837 17.9279 15.8763 18.1938 16.0638C18.4568 16.2433 18.71 16.4368 18.9523 16.6433C19.0657 16.7257 19.1466 16.845 19.1812 16.9808C19.2157 17.1165 19.2017 17.26 19.1416 17.3865Z" fill="white"/>
    <path d="M15.4877 9.21635H15.2695C15.3394 9.21296 15.4127 9.21635 15.4877 9.21635Z" fill="white"/>
    <path d="M19.2601 14.3251C19.0896 14.3251 19.0061 14.1802 18.9942 14.0217C18.972 13.7098 18.955 13.3961 18.9123 13.0859C18.8387 12.5625 18.6564 12.0602 18.3771 11.6115C18.0901 11.1439 17.7082 10.7418 17.256 10.4312C16.8038 10.1205 16.2915 9.90826 15.7521 9.80805C15.5067 9.76373 15.2561 9.75351 15.0089 9.72794C14.8521 9.71089 14.6459 9.70066 14.6118 9.50635C14.6067 9.46861 14.6097 9.43021 14.6206 9.39373C14.6316 9.35725 14.6502 9.32353 14.6752 9.29481C14.7002 9.26609 14.731 9.24304 14.7657 9.22719C14.8003 9.21135 14.8379 9.20308 14.876 9.20294C14.9169 9.20058 14.9578 9.20058 14.9987 9.20294C15.7438 9.20924 16.4758 9.3992 17.1299 9.75599C17.784 10.1128 18.34 10.6254 18.7487 11.2484C19.0713 11.7506 19.2904 12.3121 19.393 12.9001C19.4578 13.2683 19.4817 13.6467 19.5106 14.0217C19.5165 14.0584 19.5144 14.096 19.5046 14.1319C19.4948 14.1678 19.4775 14.2012 19.4538 14.2299C19.4301 14.2586 19.4006 14.2819 19.3672 14.2983C19.3338 14.3147 19.2973 14.3239 19.2601 14.3251Z" fill="white"/>
    <path d="M18.3386 13.5278C18.3377 13.5784 18.3308 13.6287 18.3182 13.6778C18.3033 13.7271 18.2736 13.7706 18.2331 13.8024C18.1926 13.8342 18.1433 13.8527 18.0919 13.8555C18.0405 13.8583 17.9895 13.8452 17.9458 13.818C17.9021 13.7908 17.8679 13.7507 17.8477 13.7034C17.829 13.6345 17.8203 13.5633 17.8222 13.492C17.8261 13.1107 17.7507 12.7328 17.6006 12.3823C17.5665 12.3073 17.529 12.2306 17.4864 12.1573C17.2424 11.7368 16.8802 11.3971 16.4449 11.1806C16.1822 11.0566 15.9033 10.9705 15.6165 10.9249C15.4903 10.9045 15.3642 10.8926 15.2381 10.8755C15.2052 10.8739 15.1731 10.8655 15.1436 10.8509C15.1141 10.8364 15.088 10.8159 15.0667 10.7908C15.0455 10.7657 15.0296 10.7366 15.0201 10.7051C15.0105 10.6736 15.0076 10.6406 15.0114 10.6079C15.0114 10.5745 15.0185 10.5415 15.0321 10.511C15.0458 10.4805 15.0658 10.4533 15.0907 10.4311C15.1157 10.4089 15.145 10.3922 15.1769 10.3821C15.2088 10.372 15.2424 10.3688 15.2756 10.3727C15.7761 10.392 16.2664 10.5199 16.7125 10.7477C17.2573 11.0218 17.7016 11.4608 17.9824 12.0022C18.1405 12.3183 18.2464 12.6579 18.296 13.0079C18.3052 13.0535 18.312 13.0996 18.3165 13.146C18.325 13.2482 18.3284 13.3505 18.3369 13.4766C18.3369 13.4886 18.3386 13.5039 18.3386 13.5278Z" fill="white"/>
    <path d="M17.1716 13.2929C17.1619 13.3361 17.1396 13.3754 17.1073 13.4058C17.0751 13.4362 17.0346 13.4562 16.9909 13.4633H16.9534C16.8975 13.4669 16.842 13.4522 16.7953 13.4215C16.7485 13.3907 16.7131 13.3456 16.6943 13.2929C16.6837 13.2649 16.6768 13.2357 16.6738 13.2059C16.6649 13.0912 16.6478 12.9773 16.6227 12.865C16.572 12.6377 16.4429 12.4355 16.2579 12.294C16.1685 12.2298 16.0688 12.1814 15.963 12.1508C15.8284 12.1116 15.6869 12.1218 15.554 12.0895C15.4882 12.0778 15.4298 12.0406 15.3915 11.986C15.3531 11.9313 15.338 11.8637 15.3494 11.798C15.3621 11.735 15.3973 11.6788 15.4484 11.6399C15.4996 11.601 15.5632 11.582 15.6272 11.5866C16.4079 11.6429 16.9909 12.0179 17.1409 12.8548C17.1563 12.9325 17.1671 13.011 17.1733 13.09C17.1828 13.1573 17.1822 13.2257 17.1716 13.2929Z" fill="white"/>
</svg>
