<svg width="19" height="19" viewBox="0 0 19 19" fill="none" xmlns="http://www.w3.org/2000/svg">
    <path d="M10.6875 15.4375C14.9506 15.4375 18.4062 12.2479 18.4062 8.3125C18.4062 4.37713 14.9506 1.1875 10.6875 1.1875C6.42438 1.1875 2.96875 4.37713 2.96875 8.3125C2.96875 8.3125 3.52569 11.875 0.59375 11.875C0.59375 14.8438 5.9375 15.4375 10.6875 15.4375Z" fill="white"/>
    <path d="M10.6875 16.0312C3.496 16.0312 0 14.6716 0 11.875C0 11.5472 0.266 11.2812 0.59375 11.2812C1.18275 11.2812 1.61263 11.1126 1.90831 10.7682C2.60181 9.95719 2.3845 8.41937 2.38213 8.40394C2.375 4.0565 6.10375 0.59375 10.6875 0.59375C15.2701 0.59375 19 4.0565 19 8.3125C19 12.5685 15.2701 16.0312 10.6875 16.0312ZM1.27775 12.407C1.843 14.0042 5.06825 14.8438 10.6875 14.8438C14.6169 14.8438 17.8125 11.913 17.8125 8.3125C17.8125 4.71081 14.6169 1.78125 10.6875 1.78125C6.75806 1.78125 3.5625 4.71081 3.5625 8.3125C3.56962 8.3125 3.86531 10.3087 2.81081 11.5401C2.41775 11.9985 1.90475 12.2894 1.27775 12.407Z" fill="#292929"/>
    <path d="M13.0625 18.4062C14.3742 18.4062 15.4375 17.3429 15.4375 16.0312C15.4375 14.7196 14.3742 13.6562 13.0625 13.6562C11.7508 13.6562 10.6875 14.7196 10.6875 16.0312C10.6875 17.3429 11.7508 18.4062 13.0625 18.4062Z" fill="#292929"/>
    <path d="M5.9375 18.4062C7.24918 18.4062 8.3125 17.3429 8.3125 16.0312C8.3125 14.7196 7.24918 13.6562 5.9375 13.6562C4.62582 13.6562 3.5625 14.7196 3.5625 16.0312C3.5625 17.3429 4.62582 18.4062 5.9375 18.4062Z" fill="#292929"/>
    <path d="M8.33602 7.125C8.00827 7.125 7.73633 6.859 7.73633 6.53125C7.73633 6.2035 7.99639 5.9375 8.32414 5.9375H8.33602C8.66377 5.9375 8.92977 6.2035 8.92977 6.53125C8.92977 6.859 8.66377 7.125 8.33602 7.125Z" fill="#292929"/>
    <path d="M13.086 7.125C12.7595 7.125 12.4863 6.859 12.4863 6.53125C12.4863 6.2035 12.7464 5.9375 13.0741 5.9375H13.086C13.4138 5.9375 13.6798 6.2035 13.6798 6.53125C13.6798 6.859 13.4138 7.125 13.086 7.125Z" fill="#292929"/>
    <path d="M10.6876 12.4689C8.97525 12.4689 7.5158 11.3027 7.13937 9.63074C7.06812 9.31012 7.2688 8.99305 7.58824 8.92062C7.90887 8.85174 8.22593 9.04887 8.29837 9.36949C8.55131 10.4952 9.53456 11.2814 10.6876 11.2814C11.8419 11.2814 12.8239 10.4952 13.0769 9.36949C13.1505 9.05005 13.464 8.84937 13.787 8.92062C14.1076 8.99305 14.3083 9.31012 14.2371 9.63074C13.8606 11.3016 12.4012 12.4689 10.6876 12.4689Z" fill="#292929"/>
</svg>
