<svg width="30" height="30" viewBox="0 0 30 30" fill="none" xmlns="http://www.w3.org/2000/svg">
    <path d="M15 30C23.2843 30 30 23.2843 30 15C30 6.71573 23.2843 0 15 0C6.71573 0 0 6.71573 0 15C0 23.2843 6.71573 30 15 30Z" fill="#29A71A"/>
    <path d="M21.6147 8.38606C20.0541 6.80986 17.9816 5.84323 15.771 5.66053C13.5605 5.47782 11.3574 6.09107 9.55916 7.38965C7.76093 8.68824 6.48594 10.5867 5.96416 12.7425C5.44238 14.8984 5.70817 17.1697 6.71358 19.1469L5.72664 23.9383C5.7164 23.986 5.71611 24.0353 5.72579 24.0831C5.73547 24.1309 5.75491 24.1762 5.78289 24.2162C5.82389 24.2768 5.8824 24.3235 5.95063 24.35C6.01885 24.3765 6.09354 24.3816 6.16471 24.3645L10.8607 23.2514C12.8323 24.2314 15.0876 24.4801 17.2254 23.9532C19.3631 23.4264 21.2446 22.1583 22.5351 20.3744C23.8256 18.5906 24.4413 16.4067 24.2728 14.2115C24.1043 12.0163 23.1624 9.95202 21.6147 8.38606ZM20.1505 20.0724C19.0707 21.1492 17.6803 21.86 16.1751 22.1046C14.6699 22.3493 13.126 22.1154 11.7607 21.4361L11.1062 21.1122L8.22721 21.794L8.23574 21.7582L8.83233 18.8605L8.51187 18.2281C7.8143 16.8581 7.56823 15.3025 7.80889 13.7841C8.04956 12.2657 8.76462 10.8624 9.85165 9.77527C11.2175 8.40983 13.0698 7.64277 15.0011 7.64277C16.9324 7.64277 18.7847 8.40983 20.1505 9.77527C20.1621 9.78861 20.1747 9.80114 20.188 9.81277C21.5369 11.1817 22.29 13.0285 22.283 14.9503C22.2759 16.8722 21.5094 18.7134 20.1505 20.0724Z" fill="white"/>
    <path d="M19.8954 17.9466C19.5426 18.5023 18.9852 19.1824 18.2846 19.3512C17.0573 19.6478 15.1738 19.3614 12.8301 17.1762L12.8011 17.1506C10.7403 15.2398 10.2051 13.6495 10.3346 12.3881C10.4062 11.6722 11.0028 11.0245 11.5056 10.6018C11.5851 10.5339 11.6794 10.4856 11.7809 10.4607C11.8824 10.4358 11.9883 10.435 12.0902 10.4583C12.1921 10.4817 12.2871 10.5286 12.3676 10.5952C12.4481 10.6618 12.5119 10.7464 12.5539 10.8421L13.3125 12.5466C13.3617 12.6572 13.38 12.779 13.3653 12.8991C13.3506 13.0193 13.3034 13.1331 13.2289 13.2285L12.8454 13.7262C12.7631 13.829 12.7135 13.954 12.7028 14.0852C12.6922 14.2165 12.7211 14.3479 12.7857 14.4625C13.0005 14.8392 13.5153 15.3932 14.0863 15.9063C14.7272 16.4858 15.438 17.0159 15.888 17.1966C16.0084 17.2458 16.1408 17.2578 16.2681 17.2311C16.3954 17.2044 16.5118 17.1401 16.6022 17.0466L17.0471 16.5983C17.133 16.5137 17.2397 16.4533 17.3565 16.4234C17.4733 16.3934 17.5959 16.395 17.7119 16.4279L19.5136 16.9392C19.613 16.9697 19.7041 17.0225 19.7799 17.0936C19.8558 17.1647 19.9143 17.2522 19.9512 17.3494C19.988 17.4466 20.0022 17.551 19.9925 17.6545C19.9828 17.758 19.9496 17.8579 19.8954 17.9466Z" fill="white"/>
</svg>
