<svg width="50" height="50" viewBox="0 0 50 50" fill="none" xmlns="http://www.w3.org/2000/svg">
    <g clip-path="url(#clip0_485_7484)">
        <circle cx="24.375" cy="24.375" r="11.875" fill="#8FBA44"/>
        <path d="M25.0001 50C38.8056 50 50.0001 38.8055 50.0001 24.9999C50.0001 11.1944 38.8056 0 25.0001 0C11.1945 0 0 11.1945 0 25.0001C0 38.8056 11.1945 50 25.0001 50ZM15.6667 36.2917L12.7223 39.2361C12.4515 39.507 12.0973 39.6459 11.7432 39.6459C11.389 39.6459 11.0349 39.507 10.764 39.2361C10.2224 38.6945 10.2224 37.8125 10.764 37.2709L13.7084 34.3264C14.25 33.7848 15.132 33.7848 15.6737 34.3264C16.2153 34.8681 16.2153 35.7501 15.6667 36.2917V36.2917ZM26.3889 43.75C26.3889 44.5139 25.7639 45.1389 24.9999 45.1389C24.236 45.1389 23.611 44.5139 23.611 43.75V39.5833C23.611 38.8194 24.236 38.1944 24.9999 38.1944C25.7639 38.1944 26.3889 38.8194 26.3889 39.5833V43.75ZM43.75 23.6111C44.5139 23.6111 45.1389 24.2361 45.1389 25.0001C45.1389 25.764 44.5139 26.389 43.75 26.389H39.5833C38.8194 26.389 38.1944 25.764 38.1944 25.0001C38.1944 24.2361 38.8194 23.6111 39.5833 23.6111H43.75ZM34.3334 13.7083L37.2778 10.7639C37.8194 10.2223 38.7014 10.2223 39.243 10.7639C39.7847 11.3055 39.7847 12.1875 39.243 12.7291L36.2986 15.6737C36.0278 15.9445 35.6736 16.0834 35.3195 16.0834C34.9653 16.0834 34.6112 15.9445 34.3403 15.6737C33.7847 15.125 33.7847 14.25 34.3334 13.7083V13.7083ZM34.3334 34.3334C34.875 33.7918 35.757 33.7918 36.2986 34.3334L39.243 37.2778C39.7847 37.8194 39.7847 38.7014 39.243 39.243C38.9722 39.5139 38.618 39.6528 38.2639 39.6528C37.9097 39.6528 37.5556 39.5139 37.2847 39.243L34.3403 36.2986C33.7847 35.7501 33.7847 34.875 34.3334 34.3334ZM23.6111 6.25001C23.6111 5.4861 24.2361 4.86108 25.0001 4.86108C25.764 4.86108 26.389 5.4861 26.389 6.25001V10.4167C26.389 11.1806 25.764 11.8056 25.0001 11.8056C24.2361 11.8056 23.6111 11.1806 23.6111 10.4167V6.25001ZM19.5556 19.4583C20.1251 18.9445 21 18.9861 21.5209 19.5556L25.1042 23.5209L30.8958 16.8056C31.3958 16.2222 32.2709 16.1598 32.8541 16.6598C33.4375 17.1598 33.5 18.0348 33 18.6181L26.9861 25.5972L28.1181 26.8472C28.6319 27.4167 28.5903 28.2917 28.0208 28.8125C27.7499 29.0485 27.4166 29.1666 27.0833 29.1666C26.7014 29.1666 26.3263 29.0138 26.0555 28.7083L25.1527 27.7152L24.3194 28.6875C24.0416 29 23.6528 29.1666 23.2638 29.1666C22.9444 29.1666 22.618 29.0555 22.361 28.8264C21.7776 28.3264 21.7152 27.4513 22.2151 26.868L23.2777 25.6388L19.4582 21.4166C18.9445 20.8473 18.9861 19.9722 19.5556 19.4583V19.4583ZM10.757 10.757C11.2986 10.2153 12.1806 10.2153 12.7222 10.757L15.6666 13.7014C16.2082 14.243 16.2082 15.125 15.6666 15.6666C15.3957 15.9375 15.0416 16.0764 14.6875 16.0764C14.3333 16.0764 13.9792 15.9375 13.7083 15.6666L10.7639 12.7222C10.2153 12.1806 10.2153 11.3055 10.757 10.757V10.757ZM4.86108 25.0001C4.86108 24.2361 5.4861 23.6111 6.25001 23.6111H10.4167C11.1806 23.6111 11.8056 24.2361 11.8056 25.0001C11.8056 25.764 11.1806 26.389 10.4167 26.389H6.25001C5.4861 26.3889 4.86108 25.7639 4.86108 25.0001V25.0001Z" fill="#196250"/>
    </g>
    <defs>
        <clipPath id="clip0_485_7484">
            <rect width="50" height="50" fill="white"/>
        </clipPath>
    </defs>
</svg>
