<svg width="50" height="50" viewBox="0 0 50 50" fill="none" xmlns="http://www.w3.org/2000/svg">
    <path d="M49.9999 23.6092C49.9999 22.9478 49.4636 22.4114 48.8022 22.4114H45.5016C44.8402 22.4114 44.3039 22.9477 44.3039 23.6092V25.0919L44.0573 25.3521L42.2497 15.6614C42.1317 15.0287 41.5795 14.5701 40.936 14.5701H21.971L23.2127 17.2428H27.1301C26.9504 17.5342 26.9692 17.7763 26.9692 17.9838C26.9692 18.5802 27.4526 19.0636 28.049 19.0636H31.4967C32.0931 19.0636 32.5764 18.5802 32.5764 17.9838C32.5764 17.7834 32.5967 17.537 32.4155 17.2428H39.826L41.5138 26.2911H39.54C39.3783 23.9988 37.463 22.1505 35.1303 22.1505C32.7976 22.1505 30.8824 23.9987 30.7206 26.2911C20.5113 26.3026 18.0316 26.2911 18.0316 26.2911L18.458 24.0052L16.7969 24.3631C16.7969 25.2102 16.7969 30.9377 16.7969 31.758C17.3006 31.238 18.0056 30.9142 18.7865 30.9142C20.3302 30.9142 21.5576 32.1706 21.5576 33.687C21.5576 35.2183 20.317 36.4597 18.7865 36.4597C18.0057 36.4597 17.3006 36.136 16.7969 35.616V46.0389C17.3518 46.5223 18.0766 46.8157 18.8703 46.8157C20.6148 46.8157 22.0291 45.4015 22.0291 43.657V40.8219H24.8832V41.8926C24.8832 42.4908 25.368 42.9756 25.9662 42.9756H33.5792C34.1773 42.9756 34.6622 42.4908 34.6622 41.8926V40.8219H37.5163V43.657C37.5163 45.4015 38.9306 46.8157 40.6751 46.8157C42.4196 46.8157 43.8339 45.4015 43.8339 43.657V40.8219H44.4494C45.6182 40.8219 46.5658 39.8744 46.5658 38.7054V31.9135C46.5658 30.2205 45.8208 28.7024 44.6421 27.666L45.8731 26.368H48.8023C49.4637 26.368 50 25.8317 50 25.1702V23.609H49.9999V23.6092ZM32.8886 38.6026H26.6565C26.1153 38.6026 25.6765 38.1639 25.6765 37.6226C25.6765 37.0814 26.1152 36.6426 26.6565 36.6426H32.8886C33.4298 36.6426 33.8686 37.0813 33.8686 37.6226C33.8686 38.1639 33.4299 38.6026 32.8886 38.6026ZM34.5533 34.7608H24.9918C24.4506 34.7608 24.0118 34.3221 24.0118 33.7808C24.0118 33.2396 24.4505 32.8009 24.9918 32.8009H34.5533C35.0946 32.8009 35.5333 33.2395 35.5333 33.7808C35.5333 34.3221 35.0946 34.7608 34.5533 34.7608ZM32.9605 26.291C33.1136 25.2294 34.0268 24.3777 35.1301 24.3777C36.2335 24.3777 37.1467 25.2293 37.2998 26.291H32.9605ZM40.7589 36.4597C39.2284 36.4597 37.9878 35.2183 37.9878 33.687C37.9878 32.1694 39.2167 30.9142 40.7589 30.9142C42.2894 30.9142 43.53 32.1556 43.53 33.687C43.5299 35.2073 42.2981 36.4597 40.7589 36.4597Z" fill="#196250"/>
    <path d="M14.7979 24.7938L13.8821 24.991C12.8816 25.2068 11.8571 24.9971 11.0267 24.4273C10.7159 24.5823 10.3721 24.6637 10.024 24.6637C9.2284 24.6637 8.48475 24.2372 8.08309 23.5508L4.63477 17.657C4.63477 17.657 4.63564 46.6676 4.63564 46.8548C4.63564 48.1265 5.6664 49.1573 6.93808 49.1573C8.20975 49.1573 9.24051 48.1265 9.24051 46.8548V28.4512H10.2346V46.8547C10.2346 48.1264 11.2654 49.1571 12.5371 49.1571C13.8088 49.1571 14.8395 48.1264 14.8395 46.8547C14.8396 46.8549 14.7979 25.826 14.7979 24.7938Z" fill="#196250"/>
    <path d="M22.3368 19.3086C22.2854 19.1978 19.3851 12.9879 19.3851 12.9879C18.5454 11.2117 16.7334 10.064 14.7686 10.064H4.57598C2.08488 10.064 0.0126239 12.0906 2.62555e-05 14.5818V28.6777C-0.00534482 29.7373 0.813988 30.6006 1.87365 30.606C1.87687 30.606 1.88019 30.606 1.88342 30.606C2.93849 30.606 3.84376 29.7533 3.84903 28.6969V14.6011V14.6009C3.85011 14.3911 4.04444 14.2217 4.2544 14.2222C4.46417 14.2228 4.63399 14.3931 4.63399 14.603V15.2467H4.63409C5.01758 14.6403 5.07491 14.6985 9.18671 12.2929C10.2581 11.666 11.6362 12.0278 12.2623 13.098L12.4322 13.3886C13.567 12.7247 14.9104 13.0082 15.6328 14.2429C16.3264 15.4285 15.88 14.5519 17.7184 18.4407L12.7026 19.5214C11.6667 19.7447 11.008 20.7653 11.231 21.8012C11.4543 22.8372 12.475 23.4958 13.5108 23.2728L20.8905 21.6827C21.9386 21.4568 22.6278 20.3916 22.3368 19.3086Z" fill="#196250"/>
    <path d="M9.73631 8.79587C11.9325 8.79587 13.7129 7.01551 13.7129 4.81932C13.7129 2.62313 11.9325 0.842773 9.73631 0.842773C7.54013 0.842773 5.75977 2.62313 5.75977 4.81932C5.75977 7.01551 7.54013 8.79587 9.73631 8.79587Z" fill="#196250"/>
    <path d="M9.43289 21.2427L7.90966 18.6391C7.28222 17.5666 7.64227 16.1909 8.71483 15.5635L11.0228 14.2131L10.8529 13.9226C10.6814 13.6293 10.3047 13.531 10.0117 13.7025L6.22236 15.9195C5.92929 16.0909 5.83076 16.4676 6.00224 16.7607L9.49237 22.726C9.56346 22.8476 9.67 22.9355 9.791 22.9848C9.66961 22.7307 9.57498 22.4588 9.51307 22.1713C9.44569 21.8592 9.42039 21.5477 9.43289 21.2427Z" fill="#8FBA44"/>
    <path d="M14.1693 14.9766C13.9979 14.6836 13.6213 14.5848 13.3281 14.7565L9.53876 16.9734C9.2457 17.1449 9.14716 17.5216 9.31865 17.8146L10.1426 19.2228C10.6558 18.5228 11.4167 18.0003 12.3319 17.803L15.4321 17.1351L14.1693 14.9766Z" fill="#8FBA44"/>
</svg>
