<svg width="80" height="80" viewBox="0 0 80 80" fill="none" xmlns="http://www.w3.org/2000/svg">
    <circle cx="39.9998" cy="39.9998" r="21.3333" fill="#8FBA44"/>
    <path fill-rule="evenodd" clip-rule="evenodd" d="M63.1609 40.0008C63.1609 27.2287 52.7737 16.8376 39.9968 16.8376C27.2276 16.8376 16.8328 27.2287 16.8328 40.0008C16.8328 52.7724 27.2276 63.1649 39.9968 63.1649C52.7739 63.1651 63.1609 52.7724 63.1609 40.0008ZM71.2598 40.0008C71.2598 57.2372 57.2332 71.2591 39.997 71.2591C22.7606 71.2591 8.74184 57.2372 8.74184 40.0008C8.74184 22.7646 22.7606 8.74193 39.997 8.74193C57.2332 8.74193 71.2598 22.7646 71.2598 40.0008ZM0.963243 48.2152C-0.0911323 47.2835 -0.301914 45.8005 0.439961 44.6102L4.63387 37.9202C5.47731 36.5738 5.6959 35.054 5.26637 33.5247L3.12652 25.926C2.75152 24.5733 3.36856 23.2113 4.64152 22.613L11.7798 19.2508C13.2168 18.5738 14.2243 17.4132 14.6929 15.8949L17.0046 8.34678C17.4107 7.0035 18.6761 6.19428 20.0661 6.37787L27.8915 7.41037C29.4692 7.61818 30.9451 7.18537 32.1557 6.15928L38.1771 1.05943C39.2471 0.152715 40.7467 0.152715 41.8165 1.05943L47.8457 6.15928C49.0562 7.18553 50.5323 7.61818 52.11 7.41037L59.9354 6.37787C61.3256 6.19428 62.5829 7.00412 62.997 8.34678L65.3087 15.8949C65.7773 17.4132 66.777 18.5744 68.2139 19.2508L75.36 22.613C76.6329 23.2113 77.25 24.5733 76.8751 25.926L74.7353 33.5249C74.3057 35.0549 74.5243 36.5747 75.3678 37.9204L79.5539 44.6104C80.3036 45.8005 80.0928 47.2837 79.0384 48.2154L73.1342 53.4527C71.9471 54.5077 71.3067 55.9041 71.2911 57.4919L71.1973 65.3862C71.1817 66.7912 70.1976 67.9227 68.8154 68.1376L61.0134 69.3527C59.4436 69.5971 58.155 70.4274 57.2803 71.7543L52.9303 78.3451C52.1571 79.5165 50.7201 79.9383 49.4393 79.3697L42.2229 76.1755C40.7693 75.5318 39.2362 75.5304 37.7792 76.1755L30.5629 79.3697C29.2743 79.9383 27.8373 79.5166 27.064 78.3451L22.7217 71.7543C21.847 70.4274 20.5584 69.5972 18.9886 69.3527L11.1865 68.1376C9.79637 67.9227 8.82012 66.7912 8.80449 65.3862L8.71074 57.4919C8.69512 55.9041 8.0548 54.5077 6.86762 53.4527L0.963243 48.2152ZM39.9968 14.1713C54.242 14.1713 65.8318 25.758 65.8318 40.0008C65.8318 54.2444 54.242 65.8312 39.9968 65.8312C25.7595 65.8312 14.1696 54.2444 14.1696 40.0008C14.1696 25.758 25.7595 14.1713 39.9968 14.1713ZM11.405 40.0008C11.405 24.2351 24.2365 11.409 39.9968 11.409C55.765 11.409 68.5887 24.2351 68.5887 40.0008C68.5887 55.7674 55.765 68.5927 39.9968 68.5927C24.2365 68.5929 11.405 55.7676 11.405 40.0008ZM53.5861 32.7572L37.2165 49.1299C36.7018 49.6469 35.854 49.6519 35.3343 49.1299L26.4154 40.2102C25.8922 39.6901 25.8922 38.8458 26.4154 38.3249C26.9309 37.8047 27.7743 37.8047 28.2976 38.3249L36.2715 46.3019L51.7039 30.8719C52.2271 30.3518 53.0706 30.3518 53.5861 30.8719C54.1093 31.3929 54.1093 32.2371 53.5861 32.7572Z" fill="#196250"/>
</svg>
