<svg width="80" height="80" viewBox="0 0 80 80" fill="none" xmlns="http://www.w3.org/2000/svg">
    <g clip-path="url(#clip0_168_6677)">
        <circle cx="40.0002" cy="40.0002" r="22.6667" fill="#8FBA44"/>
        <path d="M77.8404 33.8293L75.6428 31.1031C74.539 29.7309 73.9788 28.0069 74.0655 26.2478L74.2406 22.7514C74.469 18.1646 71.4178 13.9662 66.986 12.7657L63.6063 11.8503C61.9056 11.3918 60.44 10.3247 59.4762 8.85077L57.5621 5.91958C55.0511 2.07468 50.1158 0.470699 45.824 2.1047L42.5527 3.35187C40.907 3.97879 39.093 3.97879 37.4473 3.35187L34.176 2.1047C29.8859 0.470699 24.9489 2.07468 22.4379 5.91958L20.5238 8.85077C19.56 10.3247 18.0944 11.3918 16.3937 11.8503L13.014 12.7657C8.58224 13.9662 5.531 18.1646 5.75942 22.7514L5.93449 26.2478C6.0212 28.0069 5.46097 29.7309 4.35719 31.1031L2.15963 33.8293C-0.719876 37.404 -0.719876 42.5961 2.15963 46.1709L4.35719 48.897C5.38594 50.1776 5.94283 51.7632 5.94283 53.3972C5.94283 53.657 5.95417 53.3585 5.75942 57.2488C5.531 61.8356 8.58224 66.034 13.014 67.2345L16.3937 68.1499C18.0944 68.6084 19.56 69.6755 20.5238 71.1494L22.4379 74.0806C24.2886 76.9151 27.4566 78.5307 30.7112 78.5307C35.446 78.5307 37.9322 74.8881 42.5527 76.6483L45.824 77.8955C50.1158 79.5295 55.0511 77.9255 57.5621 74.0806L59.4762 71.1494C60.44 69.6755 61.9056 68.6084 63.6063 68.1499L66.986 67.2345C71.4178 66.034 74.469 61.8356 74.2406 57.2488L74.0655 53.7523C73.9788 51.9933 74.539 50.2693 75.6428 48.897L77.8404 46.1709C80.7199 42.5961 80.7199 37.404 77.8404 33.8293ZM40 69.1786C23.971 69.1786 10.8215 56.0253 10.8215 40.0001C10.8215 23.9711 23.9748 10.8216 40 10.8216C56.029 10.8216 69.1785 23.9749 69.1785 40.0001C69.1785 56.0291 56.0253 69.1786 40 69.1786ZM40 13.4893C25.3819 13.4893 13.4892 25.382 13.4892 40.0001C13.4892 54.6182 25.3819 66.5109 40 66.5109C54.6181 66.5109 66.5108 54.6182 66.5108 40.0001C66.5108 25.382 54.6181 13.4893 40 13.4893ZM40.8672 34.4979C40.8672 33.7612 41.4644 33.164 42.2011 33.164H48.8037C49.5404 33.164 50.1376 33.7612 50.1376 34.4979C50.1376 35.2345 49.5404 35.8317 48.8037 35.8317H43.5349V38.6662H46.6028C47.3395 38.6662 47.9367 39.2635 47.9367 40.0001C47.9367 40.7367 47.3395 41.334 46.6028 41.334H43.5349V44.1685H48.8037C49.5404 44.1685 50.1376 44.7657 50.1376 45.5023C50.1376 46.239 49.5404 46.8362 48.8037 46.8362H42.2011C41.4644 46.8362 40.8672 46.239 40.8672 45.5023V34.4979ZM29.8627 34.4979C29.8627 33.7612 30.46 33.164 31.1966 33.164H35.0482C37.3006 33.164 39.1332 34.9966 39.1332 37.249C39.1332 38.9308 38.1114 40.3787 36.656 41.0042L38.9431 44.816C39.4798 45.7104 38.8254 46.8364 37.8006 46.8364C37.3474 46.8364 36.9056 46.6054 36.6555 46.1886L33.3541 40.6864C32.8214 39.7987 33.4627 38.6662 34.4979 38.6662H35.0482C35.8296 38.6662 36.4654 38.0305 36.4654 37.249C36.4654 36.4675 35.8296 35.8317 35.0482 35.8317H32.5305V45.5023C32.5305 46.239 31.9332 46.8362 31.1966 46.8362C30.46 46.8362 29.8627 46.239 29.8627 45.5023V34.4979ZM26.7946 35.8317H21.5258V38.6662H25.6942C26.4308 38.6662 27.0281 39.2635 27.0281 40.0001C27.0281 40.7367 26.4308 41.334 25.6942 41.334H21.5258V45.5023C21.5258 46.239 20.9286 46.8362 20.192 46.8362C19.4553 46.8362 18.8581 46.239 18.8581 45.5023V34.4979C18.8581 33.7612 19.4553 33.164 20.192 33.164H26.7946C27.5313 33.164 28.1285 33.7612 28.1285 34.4979C28.1285 35.2345 27.5314 35.8317 26.7946 35.8317ZM50.0041 55.3397H29.9959C29.2593 55.3397 28.6621 54.7424 28.6621 54.0058C28.6621 53.2691 29.2593 52.6719 29.9959 52.6719H50.0041C50.7407 52.6719 51.3379 53.2691 51.3379 54.0058C51.3379 54.7424 50.7409 55.3397 50.0041 55.3397ZM61.1419 34.4979C61.1419 35.2345 60.5447 35.8317 59.808 35.8317H54.5392V38.6662H57.6072C58.3438 38.6662 58.941 39.2635 58.941 40.0001C58.941 40.7367 58.3438 41.334 57.6072 41.334H54.5392V44.1685H59.808C60.5447 44.1685 61.1419 44.7657 61.1419 45.5023C61.1419 46.239 60.5447 46.8362 59.808 46.8362H53.2054C52.4687 46.8362 51.8715 46.239 51.8715 45.5023V34.4979C51.8715 33.7612 52.4687 33.164 53.2054 33.164H59.808C60.5448 33.164 61.1419 33.7611 61.1419 34.4979Z" fill="#196250"/>
        <path d="M77.8404 33.8293L75.6428 31.1031C74.539 29.7309 73.9788 28.0069 74.0655 26.2478L74.2406 22.7514C74.469 18.1646 71.4178 13.9662 66.986 12.7657L63.6063 11.8503C61.9056 11.3918 60.44 10.3247 59.4762 8.85077L57.5621 5.91958C55.0511 2.07468 50.1158 0.470699 45.824 2.1047L42.5527 3.35187C40.907 3.97879 39.093 3.97879 37.4473 3.35187L34.176 2.1047C29.8859 0.470699 24.9489 2.07468 22.4379 5.91958L20.5238 8.85077C19.56 10.3247 18.0944 11.3918 16.3937 11.8503L13.014 12.7657C8.58224 13.9662 5.531 18.1646 5.75942 22.7514L5.93449 26.2478C6.0212 28.0069 5.46097 29.7309 4.35719 31.1031L2.15963 33.8293C-0.719876 37.404 -0.719876 42.5961 2.15963 46.1709L4.35719 48.897C5.38594 50.1776 5.94283 51.7632 5.94283 53.3972C5.94283 53.657 5.95417 53.3585 5.75942 57.2488C5.531 61.8356 8.58224 66.034 13.014 67.2345L16.3937 68.1499C18.0944 68.6084 19.56 69.6755 20.5238 71.1494L22.4379 74.0806C24.2886 76.9151 27.4566 78.5307 30.7112 78.5307C35.446 78.5307 37.9322 74.8881 42.5527 76.6483L45.824 77.8955C50.1158 79.5295 55.0511 77.9255 57.5621 74.0806L59.4762 71.1494C60.44 69.6755 61.9056 68.6084 63.6063 68.1499L66.986 67.2345C71.4178 66.034 74.469 61.8356 74.2406 57.2488L74.0655 53.7523C73.9788 51.9933 74.539 50.2693 75.6428 48.897L77.8404 46.1709C80.7199 42.5961 80.7199 37.404 77.8404 33.8293ZM40 69.1786C23.971 69.1786 10.8215 56.0253 10.8215 40.0001C10.8215 23.9711 23.9748 10.8216 40 10.8216C56.029 10.8216 69.1785 23.9749 69.1785 40.0001C69.1785 56.0291 56.0253 69.1786 40 69.1786ZM40 13.4893C25.3819 13.4893 13.4892 25.382 13.4892 40.0001C13.4892 54.6182 25.3819 66.5109 40 66.5109C54.6181 66.5109 66.5108 54.6182 66.5108 40.0001C66.5108 25.382 54.6181 13.4893 40 13.4893ZM40.8672 34.4979C40.8672 33.7612 41.4644 33.164 42.2011 33.164H48.8037C49.5404 33.164 50.1376 33.7612 50.1376 34.4979C50.1376 35.2345 49.5404 35.8317 48.8037 35.8317H43.5349V38.6662H46.6028C47.3395 38.6662 47.9367 39.2635 47.9367 40.0001C47.9367 40.7367 47.3395 41.334 46.6028 41.334H43.5349V44.1685H48.8037C49.5404 44.1685 50.1376 44.7657 50.1376 45.5023C50.1376 46.239 49.5404 46.8362 48.8037 46.8362H42.2011C41.4644 46.8362 40.8672 46.239 40.8672 45.5023V34.4979ZM29.8627 34.4979C29.8627 33.7612 30.46 33.164 31.1966 33.164H35.0482C37.3006 33.164 39.1332 34.9966 39.1332 37.249C39.1332 38.9308 38.1114 40.3787 36.656 41.0042L38.9431 44.816C39.4798 45.7104 38.8254 46.8364 37.8006 46.8364C37.3474 46.8364 36.9056 46.6054 36.6555 46.1886L33.3541 40.6864C32.8214 39.7987 33.4627 38.6662 34.4979 38.6662H35.0482C35.8296 38.6662 36.4654 38.0305 36.4654 37.249C36.4654 36.4675 35.8296 35.8317 35.0482 35.8317H32.5305V45.5023C32.5305 46.239 31.9332 46.8362 31.1966 46.8362C30.46 46.8362 29.8627 46.239 29.8627 45.5023V34.4979ZM26.7946 35.8317H21.5258V38.6662H25.6942C26.4308 38.6662 27.0281 39.2635 27.0281 40.0001C27.0281 40.7367 26.4308 41.334 25.6942 41.334H21.5258V45.5023C21.5258 46.239 20.9286 46.8362 20.192 46.8362C19.4553 46.8362 18.8581 46.239 18.8581 45.5023V34.4979C18.8581 33.7612 19.4553 33.164 20.192 33.164H26.7946C27.5313 33.164 28.1285 33.7612 28.1285 34.4979C28.1285 35.2345 27.5314 35.8317 26.7946 35.8317ZM50.0041 55.3397H29.9959C29.2593 55.3397 28.6621 54.7424 28.6621 54.0058C28.6621 53.2691 29.2593 52.6719 29.9959 52.6719H50.0041C50.7407 52.6719 51.3379 53.2691 51.3379 54.0058C51.3379 54.7424 50.7409 55.3397 50.0041 55.3397ZM61.1419 34.4979C61.1419 35.2345 60.5447 35.8317 59.808 35.8317H54.5392V38.6662H57.6072C58.3438 38.6662 58.941 39.2635 58.941 40.0001C58.941 40.7367 58.3438 41.334 57.6072 41.334H54.5392V44.1685H59.808C60.5447 44.1685 61.1419 44.7657 61.1419 45.5023C61.1419 46.239 60.5447 46.8362 59.808 46.8362H53.2054C52.4687 46.8362 51.8715 46.239 51.8715 45.5023V34.4979C51.8715 33.7612 52.4687 33.164 53.2054 33.164H59.808C60.5448 33.164 61.1419 33.7611 61.1419 34.4979Z" fill="#196250"/>
    </g>
    <defs>
        <clipPath id="clip0_168_6677">
            <rect width="80" height="80" fill="white"/>
        </clipPath>
    </defs>
</svg>
