<svg width="80" height="80" viewBox="0 0 80 80" fill="none" xmlns="http://www.w3.org/2000/svg">
    <mask id="mask0_168_6671" style="mask-type:alpha" maskUnits="userSpaceOnUse" x="47" y="43" width="33" height="25">
        <path d="M77.8005 43.2139H50.0745C48.8627 43.2139 47.875 44.2016 47.875 45.4131C47.875 46.0302 48.1372 46.586 48.5462 46.9871L68.0695 66.5103C68.4705 66.9425 69.0498 67.2129 69.6827 67.2129C70.4465 67.2129 71.1176 66.8269 71.5113 66.2404C76.3112 60.6688 79.3979 53.5926 79.9538 45.8065C79.9846 45.6753 79.9999 45.5442 79.9999 45.4128C80.0002 44.2016 79.0199 43.2139 77.8005 43.2139Z" fill="#2F5048"/>
    </mask>
    <g mask="url(#mask0_168_6671)">
        <path d="M68.6667 73.3332L42 41.9998C52 36.6665 72.6667 39.3332 80.6667 39.3332C93.3886 39.3332 75.5556 66.4443 68.6667 73.3332Z" fill="#8FBA44"/>
    </g>
    <path d="M41.7013 3.35693C40.4896 3.36434 39.5098 4.34468 39.5098 5.55615V36.3691C39.5098 37.5885 40.4896 38.5762 41.7013 38.5762H72.5222C73.7339 38.5762 74.7214 37.5885 74.7214 36.3691C73.6332 18.6364 59.442 4.44518 41.7013 3.35693Z" fill="#196250"/>
    <path d="M58.6397 64.7129L35.9063 41.9795C35.5206 41.5859 35.2892 41.0379 35.2892 40.4438L35.281 8.33414C35.281 7.12267 34.3012 6.14258 33.0895 6.14258C14.6233 7.26935 0 22.61 0 41.3545C0 60.8393 15.7965 76.6432 35.281 76.6432C44.1708 76.6432 52.2888 73.356 58.4931 67.9308C58.9716 67.5293 59.2726 66.9277 59.2726 66.2563C59.2726 65.6619 59.0331 65.114 58.6397 64.7129Z" fill="#196250"/>
</svg>
