<svg width="80" height="80" viewBox="0 0 80 80" fill="none" xmlns="http://www.w3.org/2000/svg">
    <path d="M42 10C20.0002 8.70574 7.11097 31.5555 8.66652 43.3333L19.9999 42.6666C20.4443 39.3333 26.2671 20.6666 35.3337 20.6666C39.5294 20.6666 47.7899 20.9614 54.0003 24.6666C61.2099 28.9679 60.0003 37.3333 60.0003 42.6666L70.0002 43.3333C71.3336 28.6666 64.6661 11.3335 42 10Z" fill="#8FBA44"/>
    <path d="M43.2556 48.4698C43.3637 48.3508 43.465 48.2263 43.5602 48.0969C43.6353 47.9742 43.7036 47.8472 43.7659 47.7172C43.83 47.5958 43.9087 47.4786 43.9569 47.3528C44.0058 47.2271 44.0345 47.1026 44.0741 46.9787C44.1242 46.8377 44.1663 46.6949 44.2017 46.5502C44.2298 46.4068 44.2328 46.2512 44.2475 46.0998C44.2701 45.8459 44.2701 45.5908 44.2475 45.3369C44.2328 45.1855 44.2298 45.0329 44.2017 44.887C44.1663 44.7424 44.1242 44.5989 44.0741 44.4586C44.0345 44.334 44.007 44.204 43.9569 44.0844C43.9069 43.9642 43.83 43.8415 43.7659 43.72C43.7036 43.59 43.6353 43.4631 43.5602 43.3398C43.465 43.2104 43.3637 43.0859 43.2556 42.9669C42.8382 42.467 42.312 42.0684 41.7169 41.8011C41.6986 41.8011 41.6828 41.7816 41.6645 41.7742C41.4478 41.687 41.225 41.6174 40.9973 41.5655C40.9497 41.5545 40.9058 41.5325 40.8545 41.524C40.2887 41.408 39.7058 41.408 39.14 41.524C39.0912 41.5325 39.0473 41.5545 38.9972 41.5655C38.7696 41.6174 38.5462 41.687 38.3301 41.7742C38.3136 41.7816 38.2984 41.7895 38.2831 41.7986C37.6874 42.0648 37.1607 42.4633 36.7426 42.9644C36.6333 43.084 36.5302 43.2092 36.4344 43.3398C36.3593 43.4631 36.2909 43.59 36.2287 43.72C36.1646 43.8415 36.0858 43.9587 36.037 44.0844C35.9888 44.2101 35.9601 44.334 35.9198 44.4586C35.8704 44.5989 35.8277 44.7424 35.7929 44.887C35.7703 45.0335 35.7556 45.1806 35.7483 45.3283C35.7245 45.5877 35.7245 45.8489 35.7483 46.1083C35.7556 46.256 35.7703 46.4037 35.7929 46.5502C35.8277 46.6949 35.8704 46.8377 35.9198 46.9787C35.9601 47.1026 35.987 47.2326 36.037 47.3528C36.095 47.4767 36.1585 47.5982 36.2287 47.7154C36.2903 47.8466 36.3593 47.9736 36.4344 48.0969C36.5302 48.2281 36.6333 48.3532 36.7426 48.4728C36.8537 48.6071 36.9733 48.7347 37.1003 48.8543C37.9511 49.6526 39.0937 50.064 40.2582 49.9914C41.4228 49.9182 42.5049 49.3682 43.2502 48.4698H43.2556Z" fill="#196250"/>
    <path d="M40.0002 32.8569C41.6805 32.8575 43.3443 33.1871 44.897 33.8286L53.1746 28.17C54.4259 27.3107 56.1116 27.4681 57.1822 28.5448C58.2521 29.6208 58.4005 31.3078 57.5344 32.5542L51.8905 40.8086C52.3519 41.9316 52.6522 43.1151 52.7816 44.323L72.5716 44.2858H72.5844C72.7669 42.8642 72.8579 41.433 72.8572 39.9999C72.8609 28.261 66.6018 17.412 56.4376 11.5398C46.2734 5.66759 33.7484 5.66332 23.5805 11.53C13.4127 17.3961 7.1468 28.2414 7.14314 39.9797C7.14009 41.4263 7.2353 42.871 7.42878 44.3041L27.2304 44.2858C27.9366 37.7702 33.4468 32.8392 40.0002 32.8569ZM24.8488 24.8485C24.5809 25.1164 24.2171 25.2672 23.8381 25.2672C23.4591 25.2672 23.0953 25.1164 22.8273 24.8485L20.8571 22.8697C19.518 24.3529 18.3602 25.9899 17.4086 27.7471C17.203 28.12 17.0174 28.4758 16.8459 28.8439V28.8573L19.4429 29.9327C19.9147 30.128 20.2462 30.5602 20.3127 31.0668C20.3792 31.5727 20.1705 32.0757 19.7652 32.3863C19.3605 32.697 18.8204 32.7684 18.3486 32.5725L15.7558 31.4983C15.3652 32.5786 15.0551 33.6864 14.8275 34.8125C14.7286 35.2525 14.6614 35.67 14.5961 36.0912C14.5961 36.1186 14.5876 36.1455 14.5815 36.1711C14.4747 36.9335 14.3947 37.7043 14.3404 38.4844V38.571H17.1431C17.9323 38.571 18.5714 39.2107 18.5714 39.9999C18.5714 40.789 17.9323 41.4287 17.1431 41.4287H12.8572C12.0681 41.4287 11.429 40.789 11.429 39.9999C11.429 39.4286 11.4443 38.8573 11.4742 38.3067C11.5346 37.423 11.6243 36.5758 11.7427 35.7353C11.7427 35.6926 11.7543 35.6511 11.7629 35.6114C11.8374 35.1354 11.9161 34.6727 12.0186 34.2113C12.2823 32.8899 12.6497 31.591 13.1173 30.327C13.2467 29.9346 13.3962 29.5494 13.5659 29.1728C13.5744 29.1484 13.5842 29.1283 13.5933 29.1057C13.6019 29.0825 13.5933 29.0758 13.6019 29.0599C13.6104 29.0441 13.6202 29.0367 13.6275 29.0239L13.6428 28.9842C13.796 28.5796 14.0261 28.0913 14.2543 27.6171C14.4448 27.2057 14.6614 26.79 14.8916 26.3744C16.1898 23.9714 17.831 21.7711 19.7628 19.8412C19.7774 19.8271 19.7817 19.8058 19.7957 19.7911C19.8104 19.7771 19.8317 19.7716 19.8476 19.7569C21.7812 17.8215 23.987 16.1785 26.3942 14.8784C26.7916 14.6568 27.2091 14.4414 27.6387 14.2412C28.069 14.041 28.55 13.8127 29.0346 13.6186C29.0456 13.6186 29.0529 13.6028 29.0657 13.5973C29.0786 13.5912 29.0871 13.5973 29.0987 13.5973L29.1732 13.5698C29.5662 13.3928 29.9678 13.2366 30.3774 13.1011C31.6365 12.6409 32.9299 12.2771 34.2446 12.014C34.673 11.9158 35.1345 11.8413 35.6118 11.7656C35.6527 11.7571 35.6954 11.7497 35.7399 11.7442C36.5737 11.6258 37.4221 11.5367 38.2857 11.4757C39.4198 11.414 40.5562 11.414 41.6903 11.4757C42.5759 11.5367 43.4243 11.6271 44.2617 11.7455C44.3056 11.751 44.3496 11.7583 44.3929 11.7687C44.869 11.8425 45.3286 11.9182 45.79 12.0226C47.1096 12.2887 48.4066 12.6549 49.67 13.1182C50.0637 13.2494 50.4506 13.4007 50.8291 13.571L50.9029 13.5985H50.9359C50.9456 13.5985 50.956 13.6144 50.9676 13.6199C51.4516 13.814 51.9259 14.0312 52.3818 14.2516C52.7932 14.4426 53.21 14.6587 53.6257 14.89C56.0268 16.1876 58.2259 17.8276 60.1546 19.7582C60.1705 19.7728 60.19 19.7771 60.2059 19.793C60.2218 19.8082 60.2242 19.8284 60.2388 19.843C62.1749 21.7772 63.8186 23.983 65.1186 26.3915C65.3402 26.7912 65.5574 27.2069 65.7558 27.6372C65.9548 28.0669 66.1843 28.5454 66.379 29.03C66.379 29.0428 66.3942 29.0502 66.4003 29.0611C66.3997 29.0715 66.3997 29.0813 66.4003 29.091C66.4089 29.1142 66.4187 29.1399 66.426 29.1655C66.603 29.5598 66.7598 29.9626 66.8959 30.3728C67.3586 31.6313 67.7224 32.9247 67.9842 34.24C68.0819 34.6684 68.1588 35.1384 68.2332 35.6157C68.2418 35.6542 68.2473 35.6957 68.2528 35.7372C68.3712 36.5715 68.4609 37.4199 68.5219 38.2829C68.5549 38.8561 68.5714 39.4286 68.5714 39.9999C68.5714 40.789 67.9323 41.4287 67.1431 41.4287H62.8573C62.0681 41.4287 61.429 40.789 61.429 39.9999C61.429 39.2107 62.0681 38.571 62.8573 38.571H65.6771C65.6771 38.5356 65.6771 38.4996 65.6771 38.4642C65.6246 37.6982 65.5428 36.9286 65.436 36.1699C65.436 36.1443 65.4256 36.1168 65.4213 36.0912C65.356 35.6627 65.2889 35.2525 65.1973 34.84C64.9678 33.7047 64.656 32.5871 64.2647 31.4971L61.6689 32.5725C61.1971 32.7684 60.6569 32.697 60.2523 32.3863C59.847 32.0757 59.6383 31.5727 59.7048 31.0668C59.7713 30.5602 60.1027 30.128 60.5745 29.9327L63.1728 28.8573C62.9915 28.4715 62.8072 28.1169 62.6119 27.7641C61.6549 26.0002 60.4903 24.3572 59.1433 22.8697L57.1676 24.8485C56.6091 25.4064 55.7039 25.4064 55.1461 24.8485C54.5876 24.29 54.5876 23.3855 55.1461 22.827L57.1303 20.8568C55.6472 19.5177 54.009 18.3598 52.2518 17.4083C51.8789 17.2014 51.523 17.0159 51.1562 16.8456L51.1416 16.8382L50.0673 19.4286C49.8464 19.9626 49.3251 20.3111 48.7471 20.3111C48.5598 20.3111 48.3736 20.2739 48.2003 20.2025C47.8499 20.0578 47.5716 19.7795 47.427 19.4292C47.2817 19.0788 47.2823 18.6858 47.4276 18.3354L48.5018 15.7414C47.4215 15.3526 46.3143 15.0426 45.1888 14.8143C44.7445 14.7142 44.3319 14.6483 43.9028 14.583L43.8131 14.5653C43.0605 14.4597 42.2902 14.3785 41.5102 14.3242H41.429V17.1428C41.429 17.932 40.7894 18.571 40.0002 18.571C39.211 18.571 38.5714 17.932 38.5714 17.1428V14.323C38.536 14.323 38.4987 14.323 38.4633 14.323C37.7028 14.3755 36.9344 14.4573 36.1776 14.5629C36.1489 14.5696 36.119 14.5757 36.0903 14.5799C35.6618 14.6459 35.2547 14.7112 34.8433 14.8039C33.7062 15.0322 32.5881 15.3447 31.4974 15.7384L32.5716 18.333C32.7169 18.6827 32.7169 19.0764 32.5722 19.4261C32.427 19.7765 32.1486 20.0548 31.7989 20.2001C31.625 20.2709 31.4394 20.3081 31.2514 20.3087C30.6734 20.3081 30.1522 19.9596 29.9318 19.4255L28.8576 16.8315C28.4731 17.0116 28.1185 17.1941 27.7675 17.3912C26.003 18.3476 24.3593 19.5116 22.8701 20.8568L24.8488 22.8343C25.4024 23.3916 25.4024 24.2912 24.8488 24.8485Z" fill="#196250"/>
    <path d="M39.9997 32.8569C41.68 32.8575 43.3438 33.1871 44.8966 33.8286L53.1741 28.17C54.4254 27.3107 56.1112 27.4681 57.1817 28.5448C58.2517 29.6208 58.4 31.3078 57.5339 32.5542L51.89 40.8086C52.3514 41.9316 52.6517 43.1151 52.7811 44.323L72.5711 44.2858H72.5839C72.7664 42.8642 72.8574 41.433 72.8568 39.9999C72.8604 28.261 66.6013 17.412 56.4371 11.5398C46.2729 5.66759 33.7479 5.66332 23.58 11.53C13.4122 17.3961 7.14631 28.2414 7.14265 39.9797C7.1396 41.4263 7.23481 42.871 7.42829 44.3041L27.2299 44.2858C27.9361 37.7702 33.4464 32.8392 39.9997 32.8569ZM24.8483 24.8485C24.5804 25.1164 24.2166 25.2672 23.8376 25.2672C23.4586 25.2672 23.0948 25.1164 22.8269 24.8485L20.8566 22.8697C19.5175 24.3529 18.3597 25.9899 17.4082 27.7471C17.2025 28.12 17.0169 28.4758 16.8454 28.8439V28.8573L19.4425 29.9327C19.9143 30.128 20.2457 30.5602 20.3122 31.0668C20.3787 31.5727 20.17 32.0757 19.7647 32.3863C19.3601 32.697 18.8199 32.7684 18.3481 32.5725L15.7553 31.4983C15.3647 32.5786 15.0546 33.6864 14.827 34.8125C14.7281 35.2526 14.661 35.67 14.5957 36.0912C14.5957 36.1186 14.5871 36.1455 14.581 36.1711C14.4742 36.9335 14.3942 37.7043 14.3399 38.4844V38.571H17.1427C17.9318 38.571 18.5709 39.2107 18.5709 39.9999C18.5709 40.789 17.9318 41.4287 17.1427 41.4287H12.8568C12.0676 41.4287 11.4285 40.789 11.4285 39.9999C11.4285 39.4286 11.4438 38.8573 11.4737 38.3067C11.5341 37.423 11.6239 36.5758 11.7423 35.7353C11.7423 35.6926 11.7539 35.6511 11.7624 35.6114C11.8369 35.1354 11.9156 34.6727 12.0181 34.2113C12.2818 32.8899 12.6492 31.5911 13.1168 30.327C13.2462 29.9346 13.3957 29.5494 13.5654 29.1728C13.5739 29.1484 13.5837 29.1283 13.5928 29.1057C13.6014 29.0825 13.5928 29.0758 13.6014 29.0599C13.6099 29.0441 13.6197 29.0367 13.627 29.0239L13.6423 28.9842C13.7955 28.5796 14.0256 28.0913 14.2539 27.6171C14.4443 27.2057 14.661 26.79 14.8911 26.3744C16.1893 23.9714 17.8305 21.7711 19.7623 19.8412C19.7769 19.8271 19.7812 19.8058 19.7952 19.7911C19.8099 19.7771 19.8312 19.7716 19.8471 19.7569C21.7807 17.8215 23.9865 16.1785 26.3937 14.8784C26.7911 14.6568 27.2086 14.4414 27.6383 14.2412C28.0686 14.041 28.5495 13.8127 29.0341 13.6186C29.0451 13.6186 29.0524 13.6028 29.0653 13.5973C29.0781 13.5912 29.0866 13.5973 29.0982 13.5973L29.1727 13.5698C29.5657 13.3928 29.9674 13.2366 30.3769 13.1011C31.6361 12.6409 32.9294 12.2771 34.2441 12.014C34.6726 11.9158 35.134 11.8413 35.6113 11.7656C35.6522 11.7571 35.6949 11.7497 35.7395 11.7442C36.5732 11.6258 37.4216 11.5367 38.2852 11.4757C39.4193 11.414 40.5557 11.414 41.6898 11.4757C42.5754 11.5367 43.4238 11.6271 44.2612 11.7455C44.3051 11.751 44.3491 11.7583 44.3924 11.7687C44.8685 11.8425 45.3281 11.9182 45.7895 12.0226C47.1091 12.2887 48.4061 12.6549 49.6695 13.1182C50.0632 13.2494 50.4501 13.4007 50.8286 13.571L50.9024 13.5985H50.9354C50.9451 13.5985 50.9555 13.6144 50.9671 13.6199C51.4511 13.814 51.9254 14.0312 52.3813 14.2516C52.7927 14.4426 53.2095 14.6587 53.6252 14.89C56.0263 16.1876 58.2254 17.8276 60.1541 19.7582C60.17 19.7728 60.1895 19.7771 60.2054 19.793C60.2213 19.8082 60.2237 19.8284 60.2384 19.843C62.1744 21.7772 63.8181 23.983 65.1181 26.3915C65.3397 26.7912 65.557 27.2069 65.7553 27.6372C65.9543 28.0669 66.1838 28.5454 66.3785 29.03C66.3785 29.0428 66.3937 29.0502 66.3999 29.0611C66.3992 29.0715 66.3992 29.0813 66.3999 29.0911C66.4084 29.1142 66.4182 29.1399 66.4255 29.1655C66.6025 29.5598 66.7593 29.9626 66.8955 30.3728C67.3581 31.6313 67.7219 32.9247 67.9837 34.24C68.0814 34.6684 68.1583 35.1384 68.2327 35.6157C68.2413 35.6542 68.2468 35.6957 68.2523 35.7372C68.3707 36.5715 68.4604 37.4199 68.5214 38.2829C68.5544 38.8561 68.5709 39.4286 68.5709 39.9999C68.5709 40.789 67.9318 41.4287 67.1427 41.4287H62.8568C62.0676 41.4287 61.4285 40.789 61.4285 39.9999C61.4285 39.2107 62.0676 38.571 62.8568 38.571H65.6766C65.6766 38.5356 65.6766 38.4996 65.6766 38.4642C65.6241 37.6982 65.5423 36.9286 65.4355 36.1699C65.4355 36.1443 65.4251 36.1168 65.4208 36.0912C65.3555 35.6627 65.2884 35.2526 65.1968 34.84C64.9674 33.7047 64.6555 32.5871 64.2642 31.4971L61.6684 32.5725C61.1966 32.7684 60.6564 32.697 60.2518 32.3863C59.8465 32.0757 59.6378 31.5727 59.7043 31.0668C59.7708 30.5602 60.1022 30.128 60.574 29.9327L63.1723 28.8573C62.991 28.4715 62.8067 28.1169 62.6114 27.7641C61.6544 26.0002 60.4898 24.3572 59.1428 22.8697L57.1671 24.8485C56.6086 25.4064 55.7034 25.4064 55.1456 24.8485C54.5871 24.29 54.5871 23.3855 55.1456 22.827L57.1298 20.8568C55.6467 19.5177 54.0085 18.3598 52.2513 17.4083C51.8784 17.2014 51.5225 17.0159 51.1557 16.8456L51.1411 16.8382L50.0668 19.4286C49.8459 19.9626 49.3247 20.3111 48.7467 20.3111C48.5593 20.3111 48.3731 20.2739 48.1998 20.2025C47.8494 20.0578 47.5711 19.7795 47.4265 19.4292C47.2812 19.0788 47.2818 18.6858 47.4271 18.3354L48.5013 15.7414C47.421 15.3526 46.3138 15.0426 45.1883 14.8143C44.744 14.7142 44.3314 14.6483 43.9023 14.583L43.8126 14.5653C43.06 14.4597 42.2897 14.3785 41.5097 14.3242H41.4285V17.1428C41.4285 17.932 40.7889 18.571 39.9997 18.571C39.2105 18.571 38.5709 17.932 38.5709 17.1428V14.323C38.5355 14.323 38.4982 14.323 38.4628 14.323C37.7023 14.3755 36.9339 14.4573 36.1771 14.5629C36.1484 14.5696 36.1185 14.5757 36.0898 14.5799C35.6613 14.6459 35.2542 14.7112 34.8428 14.8039C33.7058 15.0322 32.5876 15.3447 31.4969 15.7384L32.5711 18.333C32.7164 18.6827 32.7164 19.0764 32.5717 19.4261C32.4265 19.7765 32.1481 20.0548 31.7984 20.2001C31.6245 20.2709 31.4389 20.3081 31.2509 20.3087C30.6729 20.3081 30.1517 19.9596 29.9313 19.4255L28.8571 16.8315C28.4726 17.0116 28.118 17.1941 27.767 17.3912C26.0025 18.3476 24.3588 19.5116 22.8696 20.8568L24.8483 22.8343C25.4019 23.3916 25.4019 24.2912 24.8483 24.8485Z" fill="#196250"/>
    <path d="M55.1514 30.5626C55.0586 30.4686 54.9133 30.4503 54.7998 30.5187L47.6758 35.3899C48.6816 36.1412 49.5721 37.036 50.3186 38.0455L55.1855 30.927C55.2673 30.8141 55.2527 30.6584 55.1514 30.5626Z" fill="#196250"/>
    <path d="M40 80C62.0917 80 80 62.0917 80 40C80 17.9083 62.0917 0 40 0C17.9083 0 0 17.9083 0 40C0.0250244 62.0807 17.9193 79.975 40 80ZM28.5712 61.4288C29.3604 61.4288 30 62.0679 30 62.8571C30 63.6462 29.3604 64.2859 28.5712 64.2859H25.7141V68.5712C25.7141 69.3604 25.0745 70 24.2859 70C23.4967 70 22.8571 69.3604 22.8571 68.5712V58.5712C22.8571 56.9934 24.1364 55.7141 25.7141 55.7141H28.5712C29.3604 55.7141 30 56.3538 30 57.1429C30 57.9321 29.3604 58.5712 28.5712 58.5712H25.7141V61.4288H28.5712ZM40 65.7141C40 68.0811 38.0811 70 35.7141 70C33.3472 70 31.4288 68.0811 31.4288 65.7141V57.1429C31.4288 56.3538 32.0679 55.7141 32.8571 55.7141C33.6462 55.7141 34.2859 56.3538 34.2859 57.1429V65.7141C34.2859 66.5033 34.9255 67.1429 35.7141 67.1429C36.5033 67.1429 37.1429 66.5033 37.1429 65.7141V57.1429C37.1429 56.3538 37.7826 55.7141 38.5712 55.7141C39.3604 55.7141 40 56.3538 40 57.1429V65.7141ZM40 52.8571C39.5203 52.8571 39.0417 52.8094 38.5712 52.7142C38.4912 52.6984 38.4186 52.663 38.3398 52.644C37.9596 52.5592 37.5873 52.4432 37.226 52.2974C37.1954 52.2845 37.1716 52.2656 37.1417 52.2528C36.3245 51.8988 35.5811 51.3947 34.95 50.7672C34.8071 50.6244 34.7144 50.4712 34.5917 50.3271C34.4043 50.1239 34.2291 49.9097 34.0674 49.6857C33.9459 49.4873 33.8348 49.2828 33.7341 49.0729C33.6139 48.869 33.5034 48.6591 33.4045 48.4442C33.3258 48.2526 33.2831 48.0542 33.2214 47.8583C33.1323 47.6093 33.0573 47.3547 32.9974 47.0972C32.9572 46.8945 32.9572 46.6858 32.9346 46.4801C32.8949 46.2262 32.8693 45.9705 32.8571 45.7141C32.8693 45.4584 32.8949 45.2032 32.9346 44.95C32.9572 44.7443 32.9572 44.5355 32.9974 44.3329C33.0573 44.0747 33.1323 43.8208 33.2214 43.5712C33.2831 43.3759 33.3258 43.1769 33.4045 42.9858C33.5034 42.7704 33.6139 42.561 33.7341 42.3572C33.8348 42.1472 33.9459 41.9427 34.0674 41.7444C34.2291 41.5204 34.4043 41.3062 34.5917 41.1029C34.7144 40.9601 34.8126 40.8002 34.95 40.6628C35.5817 40.0348 36.3257 39.5312 37.1429 39.1772C37.1729 39.1644 37.1973 39.1455 37.2272 39.1327C37.5885 38.9868 37.9614 38.8708 38.3417 38.786C38.4198 38.7671 38.493 38.7317 38.573 38.7158C39.5154 38.5236 40.4871 38.5236 41.4301 38.7158C41.51 38.7317 41.5826 38.7671 41.6614 38.786C42.0416 38.8708 42.4146 38.9868 42.7759 39.1327C42.8058 39.1455 42.8302 39.1644 42.8601 39.1772C43.6768 39.5312 44.4202 40.0354 45.0513 40.6628C45.1941 40.8057 45.2869 40.9589 45.4102 41.1029C45.5969 41.3062 45.7721 41.5204 45.9344 41.7444C46.0553 41.9427 46.1664 42.1472 46.2671 42.3572C46.3879 42.561 46.4978 42.7704 46.5973 42.9858C46.6754 43.1769 46.7188 43.3759 46.7798 43.5712C46.8689 43.8208 46.944 44.0747 47.0044 44.3329C47.0441 44.5355 47.0441 44.7443 47.0673 44.95C47.1063 45.2032 47.1313 45.4584 47.1429 45.7141C47.1307 45.9705 47.1051 46.2256 47.0654 46.4783C47.0428 46.6846 47.0428 46.8927 47.0026 47.0959C46.9427 47.3535 46.8677 47.608 46.7786 47.8571C46.7169 48.053 46.6742 48.2513 46.5955 48.443C46.4966 48.6578 46.3861 48.8678 46.2659 49.0717C46.1652 49.281 46.0541 49.4855 45.9326 49.6844C45.7709 49.9084 45.5957 50.1227 45.4083 50.3259C45.2856 50.4688 45.1874 50.6287 45.05 50.766C44.4183 51.3934 43.6743 51.8976 42.8571 52.2516C42.8271 52.2644 42.8027 52.2827 42.7728 52.2955C42.4115 52.4414 42.0386 52.558 41.6583 52.6428C41.5802 52.6611 41.507 52.6971 41.427 52.713C40.9576 52.8082 40.4791 52.8564 40 52.8571ZM47.1429 61.4288C47.9321 61.4288 48.5712 62.0679 48.5712 62.8571C48.5712 63.6462 47.9321 64.2859 47.1429 64.2859H44.2859V67.1429H47.1429C47.9321 67.1429 48.5712 67.7826 48.5712 68.5712C48.5712 69.3604 47.9321 70 47.1429 70H44.2859C42.7075 70 41.4288 68.7207 41.4288 67.1429V58.5712C41.4288 56.9934 42.7075 55.7141 44.2859 55.7141H47.1429C47.9321 55.7141 48.5712 56.3538 48.5712 57.1429C48.5712 57.9321 47.9321 58.5712 47.1429 58.5712H44.2859V61.4288H47.1429ZM57.1429 70H51.4288C50.6396 70 50 69.3604 50 68.5712V57.1429C50 56.3538 50.6396 55.7141 51.4288 55.7141C52.2174 55.7141 52.8571 56.3538 52.8571 57.1429V67.1429H57.1429C57.9321 67.1429 58.5712 67.7826 58.5712 68.5712C58.5712 69.3604 57.9321 70 57.1429 70ZM4.59412 44.6869C4.38477 43.1262 4.28162 41.5533 4.28589 39.9786C4.28955 27.2192 11.1005 15.4309 22.1521 9.05457C33.2043 2.67822 46.8182 2.68188 57.8662 9.06494C68.9148 15.448 75.7184 27.2406 75.7141 40C75.7166 41.5704 75.6128 43.139 75.4041 44.6954C75.2002 46.1023 73.9929 47.1454 72.5714 47.1429H52.7698C51.3232 47.1527 50.1025 46.0681 49.9414 44.6301C49.3896 39.5551 45.1044 35.7104 40 35.7104C34.8956 35.7104 30.6104 39.5551 30.0586 44.6301C29.8975 46.0681 28.6768 47.1527 27.2302 47.1429H7.42859C6.00342 47.1454 4.79431 46.098 4.59412 44.6869Z" fill="#196250"/>
</svg>
