<svg width="20" height="20" viewBox="0 0 20 20" fill="none" xmlns="http://www.w3.org/2000/svg">
    <path d="M19.4294 2.73409C19.1352 2.43936 18.6578 2.43885 18.3636 2.73284L9.32087 11.7517L6.05829 8.20819C5.77638 7.90217 5.29974 7.88233 4.99321 8.16421C4.68692 8.44612 4.66731 8.92299 4.94923 9.22928L8.74321 13.3496C8.88216 13.5007 9.07661 13.5883 9.28165 13.5926C9.28716 13.5928 9.29247 13.5928 9.29774 13.5928C9.497 13.5928 9.68868 13.5137 9.82989 13.373L19.4279 3.80014C19.7229 3.5062 19.7234 3.02881 19.4294 2.73409Z" fill="#8FBA44"/>
    <path d="M19.2462 9.24621C18.8299 9.24621 18.4925 9.58363 18.4925 10C18.4925 14.6829 14.6829 18.4925 10 18.4925C5.31734 18.4925 1.50754 14.6829 1.50754 10C1.50754 5.31734 5.31734 1.50754 10 1.50754C10.4163 1.50754 10.7538 1.17012 10.7538 0.753789C10.7538 0.337422 10.4163 0 10 0C4.48594 0 0 4.48594 0 10C0 15.5138 4.48594 20 10 20C15.5138 20 20 15.5138 20 10C20 9.58367 19.6626 9.24621 19.2462 9.24621Z" fill="#8FBA44"/>
</svg>
