<svg width="20" height="20" viewBox="0 0 20 20" fill="none" xmlns="http://www.w3.org/2000/svg">
    <g clip-path="url(#clip0_168_6434)">
        <path d="M10 0C5.9657 0 2.69531 3.27242 2.69531 7.30863C2.69531 11.7521 5.73992 12.7992 7.33731 15.5235C8.82441 18.0588 8.82562 20 10 20C11.2179 20 11.141 18.1916 12.6627 15.5236C14.184 12.8551 17.3047 11.7521 17.3047 7.30863C17.3047 3.27242 14.0343 0 10 0V0ZM10 10.1095C8.49078 10.1095 7.26727 8.88531 7.26727 7.37547C7.26727 6.62012 7.57313 5.93684 8.06777 5.44187C8.56238 4.9473 9.24539 4.64105 10 4.64105C11.5092 4.64105 12.7323 5.8652 12.7323 7.37547C12.7323 8.88531 11.5092 10.1095 10 10.1095Z" fill="#4CAF50"/>
        <path d="M10.0002 0C9.79688 0 9.59562 0.00871094 9.39648 0.025C13.1483 0.332188 16.0975 3.47582 16.0975 7.30863C16.0975 11.7521 12.9768 12.8551 11.4555 15.5235C10.2502 17.6367 10.0477 19.2104 9.41051 19.7736C9.57387 19.9208 9.76313 20 10.0002 20C11.218 20 11.1412 18.1916 12.6629 15.5236C14.1842 12.8551 17.3049 11.7521 17.3049 7.30863C17.3049 3.27242 14.0345 0 10.0002 0V0Z" fill="#43A047"/>
        <path d="M8.06765 5.4416L3.26508 10.2468C2.91379 9.44629 2.69531 8.49933 2.69531 7.30832C2.69531 5.30687 3.49945 3.49363 4.80172 2.17383L8.06765 5.4416Z" fill="#F44336"/>
        <path d="M11.952 9.28934C12.4352 8.79618 12.7331 8.12067 12.7331 7.37555C12.7331 5.86528 11.5097 4.64117 10.0007 4.64117C9.24598 4.64117 8.56289 4.94731 8.06836 5.44211L12.9063 0.601562C14.6355 1.35215 16.0171 2.7527 16.7442 4.49516L11.9521 9.28989L11.952 9.28934Z" fill="#42A5F5"/>
        <path d="M12.9059 0.601562L12.498 1.00961C14.1205 1.96695 15.3409 3.53356 15.8444 5.39508L16.7439 4.49516C16.0168 2.75266 14.6352 1.35215 12.9059 0.601562Z" fill="#2196F3"/>
        <path d="M11.952 9.28914L6.6775 14.5665C5.5307 13.1211 4.05934 12.0585 3.26562 10.2466L8.0682 5.44141C7.57367 5.93621 7.2677 6.61969 7.2677 7.37484C7.2677 8.88465 8.49113 10.1087 10.0005 10.1087C10.7648 10.1087 11.4559 9.79473 11.9518 9.28859L11.952 9.28914Z" fill="#FFC107"/>
        <path d="M12.9066 0.601406L8.06867 5.44199L4.80273 2.17426C6.12727 0.831797 7.96715 0 10.0011 0C11.0336 0 12.0164 0.214531 12.9066 0.601406Z" fill="#1E88E5"/>
        <path d="M10.0002 0C9.79695 0 9.5957 0.00867187 9.3966 0.025C9.39656 0.025 9.39652 0.0250391 9.39648 0.0250391C10.5219 0.117188 11.575 0.464805 12.498 1.00945L12.9058 0.601406C12.0155 0.214531 11.0328 0 10.0002 0V0Z" fill="#1976D2"/>
    </g>
    <defs>
        <clipPath id="clip0_168_6434">
            <rect width="20" height="20" fill="white"/>
        </clipPath>
    </defs>
</svg>
