<svg width="20" height="20" viewBox="0 0 20 20" fill="none" xmlns="http://www.w3.org/2000/svg">
<path d="M15.275 9.82242H16.6701C16.9855 9.82242 17.2421 9.56582 17.2421 9.25043V7.85535C17.2421 7.53996 16.9855 7.28336 16.6701 7.28336H15.275C14.9596 7.28336 14.703 7.53996 14.703 7.85535V9.25043C14.703 9.56582 14.9596 9.82242 15.275 9.82242ZM15.2889 7.8693H16.6561V9.23648H15.2889V7.8693ZM15.275 13.5334H16.6701C16.9855 13.5334 17.2421 13.2768 17.2421 12.9614V11.5663C17.2421 11.2509 16.9855 10.9943 16.6701 10.9943H15.275C14.9596 10.9943 14.703 11.2509 14.703 11.5663V12.9614C14.703 13.2768 14.9596 13.5334 15.275 13.5334ZM15.2889 11.5802H16.6561V12.9474H15.2889V11.5802ZM11.2939 9.82242H12.689C13.0044 9.82242 13.261 9.56582 13.261 9.25043V7.85535C13.261 7.53996 13.0044 7.28336 12.689 7.28336H11.2939C10.9785 7.28336 10.7219 7.53996 10.7219 7.85535V9.25043C10.7219 9.56582 10.9785 9.82242 11.2939 9.82242ZM11.3079 7.8693H12.675V9.23648H11.3079V7.8693ZM4.7268 14.5312H3.33172C3.01633 14.5312 2.75973 14.7879 2.75973 15.1032V16.4983C2.75973 16.8137 3.01633 17.0703 3.33172 17.0703H4.7268C5.04219 17.0703 5.29879 16.8137 5.29879 16.4983V15.1032C5.29879 14.7879 5.04219 14.5312 4.7268 14.5312ZM4.71285 16.4844H3.34566V15.1172H4.71285V16.4844ZM4.7268 7.28336H3.33172C3.01633 7.28336 2.75973 7.53996 2.75973 7.85535V9.25043C2.75973 9.56582 3.01633 9.82242 3.33172 9.82242H4.7268C5.04219 9.82242 5.29879 9.56582 5.29879 9.25043V7.85535C5.29879 7.53992 5.04219 7.28336 4.7268 7.28336ZM4.71285 9.23648H3.34566V7.8693H4.71285V9.23648ZM11.2939 13.4464H12.689C13.0044 13.4464 13.261 13.1898 13.261 12.8744V11.4793C13.261 11.1639 13.0044 10.9073 12.689 10.9073H11.2939C10.9785 10.9073 10.7219 11.1639 10.7219 11.4793V12.8744C10.7219 13.1898 10.9785 13.4464 11.2939 13.4464ZM11.3079 11.4932H12.675V12.8604H11.3079V11.4932ZM17.533 1.33883H16.2805V0.890898C16.2805 0.399648 15.8808 0 15.3896 0H15.255C14.7638 0 14.3642 0.399648 14.3642 0.890898V1.33883H5.63762V0.890898C5.63762 0.399648 5.23797 0 4.74672 0H4.61219C4.12094 0 3.72129 0.399648 3.72129 0.890898V1.33883H2.46875C1.65996 1.33883 1.00195 1.99684 1.00195 2.80562V18.5352C1.00195 19.3429 1.65906 20 2.4668 20H17.5351C18.3428 20 18.9999 19.3429 18.9999 18.5352V2.80562C18.9999 1.99684 18.3419 1.33883 17.533 1.33883ZM14.9501 0.890898C14.9501 0.722734 15.0869 0.585938 15.2551 0.585938H15.3896C15.5578 0.585938 15.6946 0.722734 15.6946 0.890898V1.33883H14.9501V0.890898ZM4.30727 0.890898C4.30727 0.722734 4.44406 0.585938 4.61223 0.585938H4.74676C4.91492 0.585938 5.05172 0.722734 5.05172 0.890898V1.33883H4.3073V0.890898H4.30727ZM18.4139 18.5352C18.4139 19.0198 18.0197 19.4141 17.535 19.4141H2.46676C1.98211 19.4141 1.58785 19.0198 1.58785 18.5352V18.5333C1.83332 18.7183 2.13844 18.8281 2.46875 18.8281H14.347C14.7388 18.8281 15.1071 18.6755 15.3842 18.3985L18.4139 15.3687V18.5352ZM15.0852 17.8688C15.1082 17.774 15.1207 17.6751 15.1207 17.5734V15.6177C15.1207 15.249 15.4207 14.9489 15.7895 14.9489H17.7451C17.8469 14.9489 17.9457 14.9364 18.0405 14.9135L15.0852 17.8688ZM18.4139 5.52555H5.93059C5.76879 5.52555 5.63762 5.65672 5.63762 5.81852C5.63762 5.98031 5.76879 6.11148 5.93059 6.11148H18.4139V13.6942C18.4139 14.063 18.1139 14.363 17.7451 14.363H15.7895C15.0977 14.363 14.5348 14.9259 14.5348 15.6178V17.5734C14.5348 17.9422 14.2347 18.2422 13.866 18.2422H2.46875C1.98305 18.2422 1.58789 17.8471 1.58789 17.3613V6.11148H4.75871C4.92051 6.11148 5.05168 5.98031 5.05168 5.81852C5.05168 5.65672 4.92051 5.52555 4.75871 5.52555H1.58785V2.80562C1.58785 2.31992 1.98301 1.92477 2.46871 1.92477H3.72129V2.78617C3.72129 3.27742 4.12094 3.67707 4.61219 3.67707C4.77398 3.67707 4.90516 3.5459 4.90516 3.3841C4.90516 3.2223 4.77398 3.09113 4.61219 3.09113C4.44402 3.09113 4.30723 2.95434 4.30723 2.78617V1.92477H14.3642V2.78617C14.3642 3.27742 14.7638 3.67707 15.2551 3.67707C15.4169 3.67707 15.548 3.5459 15.548 3.3841C15.548 3.2223 15.4169 3.09113 15.2551 3.09113C15.0869 3.09113 14.9501 2.95434 14.9501 2.78617V1.92477H17.5331C18.0188 1.92477 18.4139 2.31992 18.4139 2.80562V5.52555ZM4.7268 10.9073H3.33172C3.01633 10.9073 2.75973 11.1639 2.75973 11.4793V12.8744C2.75973 13.1898 3.01633 13.4464 3.33172 13.4464H4.7268C5.04219 13.4464 5.29879 13.1898 5.29879 12.8744V11.4793C5.29879 11.1639 5.04219 10.9073 4.7268 10.9073ZM4.71285 12.8604H3.34566V11.4932H4.71285V12.8604ZM7.31281 9.82242H8.70789C9.02328 9.82242 9.27988 9.56582 9.27988 9.25043V7.85535C9.27988 7.53996 9.02328 7.28336 8.70789 7.28336H7.31281C6.99742 7.28336 6.74082 7.53996 6.74082 7.85535V9.25043C6.74082 9.56582 6.99742 9.82242 7.31281 9.82242ZM7.32676 7.8693H8.69395V9.23648H7.32676V7.8693ZM11.3075 16.4844C11.3002 16.329 11.172 16.2054 11.0148 16.2054C10.853 16.2054 10.7219 16.3365 10.7219 16.4983C10.7219 16.8137 10.9785 17.0703 11.2939 17.0703H12.6889C13.0043 17.0703 13.2609 16.8137 13.2609 16.4983V15.1032C13.2609 14.7879 13.0043 14.5312 12.6889 14.5312H11.2939C10.9785 14.5312 10.7219 14.7879 10.7219 15.1032V15.5056C10.7219 15.6674 10.853 15.7986 11.0148 15.7986C11.1766 15.7986 11.3078 15.6674 11.3078 15.5056V15.1172H12.675V16.4844H11.3075ZM7.31281 13.4464H8.70789C9.02328 13.4464 9.27988 13.1898 9.27988 12.8744V11.4793C9.27988 11.1639 9.02328 10.9073 8.70789 10.9073H7.31281C6.99742 10.9073 6.74082 11.1639 6.74082 11.4793V12.8744C6.74082 13.1898 6.99742 13.4464 7.31281 13.4464ZM7.32676 11.4932H8.69395V12.8604H7.32676V11.4932ZM7.31281 17.0703H8.70789C9.02328 17.0703 9.27988 16.8137 9.27988 16.4983V15.1032C9.27988 14.7879 9.02328 14.5312 8.70789 14.5312H7.31281C6.99742 14.5312 6.74082 14.7879 6.74082 15.1032V16.4983C6.74082 16.8137 6.99742 17.0703 7.31281 17.0703ZM7.32676 15.1172H8.69395V16.4844H7.32676V15.1172Z" fill="#2F5048"/>
</svg>
