<svg width="20" height="20" viewBox="0 0 20 20" fill="none" xmlns="http://www.w3.org/2000/svg">
<g clip-path="url(#clip0_1321_5577)">
<path d="M9.68767 13.1875C9.68767 13.1384 9.68767 13.0897 9.68267 13.0403L9.16955 5.91532C9.13336 5.41395 8.90901 4.94478 8.54147 4.60187C8.17392 4.25895 7.69034 4.06763 7.18767 4.06626H6.56267V3.42126C6.72666 3.39762 6.88313 3.33704 7.02028 3.24409C7.15743 3.15113 7.27167 3.02824 7.35437 2.88468C7.43708 2.74112 7.48609 2.58064 7.4977 2.41537C7.50932 2.2501 7.48323 2.08435 7.42142 1.93063L7.08486 1.08938C6.99378 0.859653 6.83564 0.662677 6.63102 0.52411C6.4264 0.385543 6.18479 0.311806 5.93767 0.312505H4.06267C3.81543 0.311791 3.5737 0.385549 3.36897 0.524172C3.16424 0.662795 3.006 0.859858 2.91486 1.08969L2.57861 1.93125C2.51691 2.08496 2.49093 2.25067 2.50262 2.41589C2.51431 2.5811 2.56337 2.7415 2.6461 2.88499C2.72883 3.02848 2.84306 3.1513 2.98018 3.2442C3.11731 3.3371 3.27374 3.39764 3.43767 3.42126V4.06626H2.81267C2.31005 4.06763 1.82652 4.2589 1.45898 4.60175C1.09144 4.9446 0.867057 5.41369 0.830797 5.91501L0.317672 13.04C0.312672 13.0897 0.312672 13.1384 0.312672 13.1875C0.313162 13.5233 0.39336 13.8543 0.546671 14.1531C0.699981 14.4519 0.922026 14.71 1.19455 14.9063C0.871111 15.0865 0.614532 15.3664 0.463007 15.7042C0.311482 16.0421 0.273112 16.4198 0.35361 16.7813L0.741735 18.5278C0.813354 18.8575 0.996067 19.1527 1.25929 19.3638C1.52251 19.5749 1.85026 19.6892 2.18767 19.6875H7.81267C8.15013 19.6892 8.47792 19.5748 8.74114 19.3637C9.00437 19.1525 9.18705 18.8573 9.25861 18.5275L9.64673 16.7813C9.72723 16.4198 9.68886 16.0421 9.53734 15.7042C9.38581 15.3664 9.12923 15.0865 8.8058 14.9063C9.07832 14.71 9.30036 14.4519 9.45367 14.1531C9.60698 13.8543 9.68718 13.5233 9.68767 13.1875ZM7.18767 13.1875C6.99854 13.3471 6.75953 13.4356 6.51205 13.4375H3.4883C3.24081 13.4356 3.0018 13.3471 2.81267 13.1875V13.1675C2.81267 12.7378 2.8008 12.3066 2.79298 11.8759H7.20736C7.19955 12.3056 7.18767 12.7369 7.18767 13.1666V13.1875ZM7.21673 11.25H2.78361C2.7584 10.3125 2.71413 9.37501 2.6508 8.43751H7.34955C7.28767 9.37501 7.2434 10.3125 7.21673 11.25ZM2.81267 13.9181C3.02545 14.0125 3.25552 14.0617 3.4883 14.0625H6.51205C6.74482 14.0617 6.9749 14.0125 7.18767 13.9181V14.6875H2.81267V13.9181ZM3.12517 2.33876C3.12525 2.27861 3.1367 2.21902 3.15892 2.16313L3.49548 1.32157C3.54043 1.20793 3.6186 1.11049 3.71979 1.04197C3.82097 0.973457 3.94047 0.937049 4.06267 0.937505H5.93767C6.05983 0.937069 6.17928 0.973489 6.28041 1.04201C6.38154 1.11053 6.45966 1.20796 6.50455 1.32157L6.84111 2.16282C6.86993 2.23466 6.88069 2.31247 6.87245 2.38943C6.86422 2.4664 6.83724 2.54017 6.79388 2.60429C6.75051 2.66841 6.69209 2.72092 6.62373 2.75722C6.55536 2.79352 6.47914 2.8125 6.40173 2.81251H3.59861C3.47304 2.81234 3.35267 2.76236 3.26391 2.67355C3.17515 2.58473 3.12525 2.46432 3.12517 2.33876ZM4.06267 3.43751H5.93767V4.06626H4.06267V3.43751ZM7.18767 4.69126C7.35731 4.691 7.52547 4.72281 7.6833 4.78501C7.56486 5.78875 7.47267 6.79876 7.39674 7.81126H2.60361C2.52767 6.79876 2.43548 5.78875 2.31705 4.78501C2.47487 4.72281 2.64303 4.691 2.81267 4.69126H7.18767ZM0.94111 13.0853L1.45423 5.96032C1.47329 5.69348 1.57118 5.43831 1.73548 5.22719C2.03404 7.86316 2.18501 10.5138 2.18767 13.1666V14.6622C1.83888 14.6032 1.52215 14.4229 1.29342 14.1531C1.0647 13.8832 0.938694 13.5412 0.937672 13.1875C0.937672 13.1531 0.937672 13.1188 0.94111 13.0853ZM8.64861 18.3919C8.60722 18.5825 8.50159 18.7532 8.34942 18.8753C8.19725 18.9973 8.00776 19.0634 7.81267 19.0625H2.18767C1.99258 19.0634 1.8031 18.9973 1.65092 18.8753C1.49875 18.7532 1.39313 18.5825 1.35173 18.3919L1.0258 16.925C1.29483 17.0961 1.60697 17.1871 1.9258 17.1875H8.07455C8.39337 17.1871 8.70552 17.0961 8.97455 16.925L8.64861 18.3919ZM7.96892 15.3125C8.19232 15.3131 8.41018 15.3821 8.5932 15.5102C8.77623 15.6383 8.91563 15.8194 8.99267 16.0291C8.90031 16.1911 8.76672 16.3258 8.60546 16.4195C8.44421 16.5131 8.26104 16.5625 8.07455 16.5625H1.9258C1.73957 16.5622 1.55672 16.5127 1.39577 16.4191C1.23481 16.3254 1.10147 16.1909 1.00923 16.0291C1.08628 15.8194 1.22568 15.6383 1.4087 15.5102C1.59172 15.3821 1.80959 15.3131 2.03298 15.3125H7.96892ZM7.81267 14.6622V13.1666C7.81539 10.5134 7.96646 7.86252 8.26517 5.22626C8.42954 5.43758 8.52743 5.69296 8.54642 5.96001L9.05955 13.085C9.06205 13.1194 9.06298 13.1538 9.06298 13.1881C9.0618 13.5418 8.93569 13.8837 8.70691 14.1534C8.47814 14.4231 8.16141 14.6033 7.81267 14.6622Z" fill="#2F5048"/>
<path d="M19.6877 13.1875C19.6877 13.1384 19.6861 13.0897 19.6827 13.0403L19.1695 5.91532C19.1334 5.41395 18.909 4.94478 18.5415 4.60187C18.1739 4.25895 17.6903 4.06763 17.1877 4.06626H16.5627V3.42126C16.7267 3.39762 16.8831 3.33704 17.0203 3.24409C17.1574 3.15113 17.2717 3.02824 17.3544 2.88468C17.4371 2.74112 17.4861 2.58064 17.4977 2.41537C17.5093 2.2501 17.4832 2.08435 17.4214 1.93063L17.0849 1.08938C16.9938 0.859653 16.8356 0.662677 16.631 0.52411C16.4264 0.385543 16.1848 0.311806 15.9377 0.312505H14.0627C13.8154 0.311791 13.5737 0.385549 13.369 0.524172C13.1642 0.662795 13.006 0.859858 12.9149 1.08969L12.5786 1.93125C12.5169 2.08496 12.4909 2.25067 12.5026 2.41589C12.5143 2.5811 12.5634 2.7415 12.6461 2.88499C12.7288 3.02848 12.8431 3.1513 12.9802 3.2442C13.1173 3.3371 13.2737 3.39764 13.4377 3.42126V4.06626H12.8127C12.3101 4.06763 11.8265 4.2589 11.459 4.60175C11.0914 4.9446 10.8671 5.41369 10.8308 5.91501L10.3177 13.04C10.3142 13.0888 10.3127 13.1375 10.3127 13.1866C10.3132 13.5224 10.3934 13.8533 10.5467 14.1521C10.7 14.4509 10.922 14.7091 11.1945 14.9053C10.8711 15.0856 10.6145 15.3655 10.463 15.7033C10.3115 16.0412 10.2731 16.4189 10.3536 16.7803L10.7417 18.5269C10.8132 18.8568 10.9958 19.1521 11.259 19.3634C11.5223 19.5747 11.8501 19.6891 12.1877 19.6875H17.8127C18.1501 19.6892 18.4779 19.5748 18.7411 19.3637C19.0044 19.1525 19.1871 18.8573 19.2586 18.5275L19.6467 16.7813C19.7272 16.4198 19.6889 16.0421 19.5373 15.7042C19.3858 15.3664 19.1292 15.0865 18.8058 14.9063C19.0783 14.71 19.3004 14.4519 19.4537 14.1531C19.607 13.8543 19.6872 13.5233 19.6877 13.1875ZM17.1877 13.1875C16.9985 13.3471 16.7595 13.4356 16.512 13.4375H13.4883C13.2408 13.4356 13.0018 13.3471 12.8127 13.1875V13.1675C12.8127 12.7378 12.8008 12.3066 12.793 11.8759H17.2074C17.1995 12.3056 17.1877 12.7369 17.1877 13.1666V13.1875ZM17.2167 11.25H12.7836C12.7584 10.3125 12.7141 9.37501 12.6508 8.43751H17.3495C17.2877 9.37501 17.2434 10.3125 17.2167 11.25ZM12.8127 13.9181C13.0254 14.0125 13.2555 14.0617 13.4883 14.0625H16.512C16.7448 14.0617 16.9749 14.0125 17.1877 13.9181V14.6875H12.8127V13.9181ZM13.1252 2.33876C13.1252 2.27861 13.1367 2.21902 13.1589 2.16313L13.4955 1.32157C13.5404 1.20793 13.6186 1.11049 13.7198 1.04197C13.821 0.973457 13.9405 0.937049 14.0627 0.937505H15.9377C16.0598 0.937069 16.1793 0.973489 16.2804 1.04201C16.3815 1.11053 16.4597 1.20796 16.5045 1.32157L16.8411 2.16282C16.8699 2.23466 16.8807 2.31247 16.8725 2.38943C16.8642 2.4664 16.8372 2.54017 16.7939 2.60429C16.7505 2.66841 16.6921 2.72092 16.6237 2.75722C16.5554 2.79352 16.4791 2.8125 16.4017 2.81251H13.5986C13.473 2.81234 13.3527 2.76236 13.2639 2.67355C13.1752 2.58473 13.1253 2.46432 13.1252 2.33876ZM14.0627 3.43751H15.9377V4.06626H14.0627V3.43751ZM17.1877 4.69126C17.3573 4.691 17.5255 4.72281 17.6833 4.78501C17.5649 5.78875 17.4727 6.79876 17.3967 7.81126H12.6036C12.5277 6.79876 12.4355 5.78875 12.317 4.78501C12.4749 4.72281 12.643 4.691 12.8127 4.69126H17.1877ZM10.9411 13.0853L11.4542 5.96032C11.4733 5.69348 11.5712 5.43831 11.7355 5.22719C12.034 7.86316 12.185 10.5138 12.1877 13.1666V14.6622C11.8389 14.6032 11.5222 14.4229 11.2934 14.1531C11.0647 13.8832 10.9387 13.5412 10.9377 13.1875C10.9377 13.1531 10.9377 13.1188 10.9411 13.0853ZM18.6486 18.3919C18.6072 18.5825 18.5016 18.7532 18.3494 18.8753C18.1972 18.9973 18.0078 19.0634 17.8127 19.0625H12.1877C11.9926 19.0634 11.8031 18.9973 11.6509 18.8753C11.4988 18.7532 11.3931 18.5825 11.3517 18.3919L11.0258 16.925C11.2948 17.0961 11.607 17.1871 11.9258 17.1875H18.0745C18.3934 17.1871 18.7055 17.0961 18.9745 16.925L18.6486 18.3919ZM17.9689 15.3125C18.1923 15.3131 18.4102 15.3821 18.5932 15.5102C18.7762 15.6383 18.9156 15.8194 18.9927 16.0291C18.9003 16.1911 18.7667 16.3258 18.6055 16.4195C18.4442 16.5131 18.261 16.5625 18.0745 16.5625H11.9258C11.7396 16.5622 11.5567 16.5127 11.3958 16.4191C11.2348 16.3254 11.1015 16.1909 11.0092 16.0291C11.0863 15.8194 11.2257 15.6383 11.4087 15.5102C11.5917 15.3821 11.8096 15.3131 12.033 15.3125H17.9689ZM17.8127 14.6622V13.1666C17.8154 10.5134 17.9665 7.86252 18.2652 5.22626C18.4295 5.43758 18.5274 5.69296 18.5464 5.96001L19.0595 13.085C19.062 13.1194 19.063 13.1538 19.063 13.1881C19.0618 13.5418 18.9357 13.8837 18.7069 14.1534C18.4781 14.4231 18.1614 14.6033 17.8127 14.6622Z" fill="#2F5048"/>
</g>
<defs>
<clipPath id="clip0_1321_5577">
<rect width="20" height="20" fill="white"/>
</clipPath>
</defs>
</svg>
