<svg width="20" height="20" viewBox="0 0 20 20" fill="none" xmlns="http://www.w3.org/2000/svg">
<path d="M19.9023 9.4297L19.2357 8.76303C19.1732 8.70053 19.0884 8.66536 19 8.66536H18C17.8159 8.66536 17.6667 8.81461 17.6667 8.9987V10.6654H17V8.33203C17 8.14795 16.8508 7.9987 16.6667 7.9987H14.5117L13.2783 6.14703C13.2163 6.05403 13.1118 5.99836 13 5.9987H11V5.33203H13.3333C13.5174 5.33203 13.6667 5.18278 13.6667 4.9987V3.66536C13.6667 3.48128 13.5174 3.33203 13.3333 3.33203H6.66667C6.48258 3.33203 6.33333 3.48128 6.33333 3.66536V4.9987C6.33333 5.18278 6.48258 5.33203 6.66667 5.33203H9V5.9987H7C6.88858 5.9987 6.7845 6.05432 6.72267 6.14703L5.48833 7.9987H3.66667C3.48258 7.9987 3.33333 8.14795 3.33333 8.33203V10.332H2.66667V8.33203C2.66667 8.14795 2.51742 7.9987 2.33333 7.9987H1C0.888583 7.9987 0.7845 8.05432 0.722667 8.14703L0.056 9.14703C0.0195833 9.20186 0.000125 9.2662 0 9.33203V10.332C0.000125 10.3979 0.0195833 10.4622 0.056 10.517L0.666667 11.432V14.332C0.666667 14.5161 0.815917 14.6654 1 14.6654H2.33333C2.51742 14.6654 2.66667 14.5161 2.66667 14.332V12.332H3.33333V14.332C3.33333 14.5161 3.48258 14.6654 3.66667 14.6654H5.48833L6.72167 16.517C6.78371 16.61 6.88821 16.6657 7 16.6654H16.6667C16.8508 16.6654 17 16.5161 17 16.332V13.332H17.6667V15.6654C17.6667 15.8494 17.8159 15.9987 18 15.9987H19C19.0884 15.9987 19.1732 15.9635 19.2357 15.901L19.9023 15.2344C19.9648 15.1719 20 15.0871 20 14.9987V9.66536C20 9.57695 19.9648 9.4922 19.9023 9.4297ZM2 10.6654V13.9987H1.33333V11.332C1.33321 11.2662 1.31375 11.2019 1.27733 11.147L0.666667 10.232V9.43203L1.17833 8.66536H2V10.6654ZM3.33333 11.6654H2.66667V10.9987H3.33333V11.6654ZM7 4.66536V3.9987H13V4.66536H7ZM10.3333 5.33203V5.9987H9.66667V5.33203H10.3333ZM15 15.9987H7.17833L5.945 14.147C5.88296 14.054 5.77846 13.9984 5.66667 13.9987H4V8.66536H5.66667C5.77808 8.66536 5.88217 8.60974 5.944 8.51703L7.17833 6.66536H12.8217L14.055 8.51703C14.117 8.61003 14.2215 8.6657 14.3333 8.66536H15V15.9987ZM16.3333 10.9987V15.9987H15.6667V8.66536H16.3333V10.9987ZM17.6667 12.6654H17V11.332H17.6667V12.6654ZM19.3333 14.8607L18.862 15.332H18.3333V9.33203H18.862L19.3333 9.80336V14.8607Z" fill="#2F5048"/>
<path d="M12.9124 10.776C12.8492 10.7071 12.7601 10.668 12.6667 10.668H11.0824L11.6587 8.07363C11.6986 7.89392 11.5853 7.71588 11.4056 7.67592C11.2994 7.65229 11.1883 7.68204 11.108 7.75563L7.10803 11.4223C6.97237 11.5467 6.96324 11.7576 7.08766 11.8933C7.15082 11.9621 7.23995 12.0013 7.33337 12.0013H8.9177L8.34137 14.5956C8.30145 14.7753 8.41474 14.9534 8.59445 14.9933C8.7007 15.017 8.81178 14.9872 8.89203 14.9136L12.892 11.247C13.0277 11.1225 13.0368 10.9117 12.9124 10.776ZM9.2217 13.707L9.6587 11.7403C9.69866 11.5606 9.58537 11.3825 9.40566 11.3426C9.38191 11.3373 9.3577 11.3346 9.33337 11.3346H8.19037L10.7784 8.96229L10.3414 10.929C10.3014 11.1087 10.4147 11.2868 10.5944 11.3267C10.6182 11.332 10.6424 11.3346 10.6667 11.3346H11.8097L9.2217 13.707Z" fill="#2F5048"/>
<path d="M5.33268 10.668H4.66602V13.3346H5.33268V10.668Z" fill="#2F5048"/>
<path d="M5.33268 9.33203H4.66602V9.9987H5.33268V9.33203Z" fill="#2F5048"/>
</svg>
