<svg width="20" height="20" viewBox="0 0 20 20" fill="none" xmlns="http://www.w3.org/2000/svg">
<g clip-path="url(#clip0_1321_6397)">
<path d="M11.785 17.5611C11.8199 17.7942 11.9616 17.9975 12.1682 18.1109C12.3747 18.2244 12.6223 18.2349 12.8377 18.1392L16.0254 16.7312C16.1833 16.6616 16.2619 16.4831 16.2066 16.3196L14.6071 11.567C14.3511 10.8172 13.588 10.365 12.8074 10.5004L12.3075 10.5902C11.4513 10.7395 10.8728 11.5477 11.0078 12.4065L11.785 17.5611ZM12.5688 17.5293C12.5435 17.5412 12.514 17.54 12.4898 17.526C12.4646 17.5127 12.4473 17.4878 12.4438 17.4595L11.6646 12.3092C11.6486 12.1982 11.6524 12.0854 11.676 11.9758L12.2396 12.4211C12.5117 12.6333 12.7148 12.9217 12.8228 13.2497L14.0442 16.8794L12.5688 17.5293ZM12.4236 11.2487L12.9233 11.159C12.977 11.1494 13.0315 11.1447 13.0861 11.1447C13.4875 11.1458 13.8442 11.4011 13.9744 11.7809L15.4779 16.2466L14.6558 16.6096L13.4542 13.0393C13.3053 12.588 13.0258 12.1911 12.6512 11.8989L12.0402 11.4156C12.1537 11.3317 12.2847 11.2747 12.4236 11.2487Z" fill="#2F5048"/>
<path d="M0.854351 3.16538L5.83089 4.63176C5.89817 4.65174 5.96072 4.68515 6.01457 4.73L7.76988 6.19241L8.05287 6.42902L10.3463 18.3496C10.4622 18.9556 10.8482 19.4756 11.3948 19.7618C11.9414 20.0479 12.5887 20.0689 13.1527 19.8189L16.3504 18.4062C16.6619 18.7753 17.1759 18.9013 17.6229 18.7182L19.3095 18.0264C19.8775 17.7936 20.1492 17.1446 19.9167 16.5766L16.845 9.07847L17.0729 8.81516C17.4981 8.3227 17.4445 7.57914 16.9533 7.1526L13.4387 4.10757C13.2021 3.90269 12.8938 3.80032 12.5818 3.8229C12.2697 3.84548 11.9794 3.99117 11.7746 4.22779L11.2062 4.8853L9.92871 3.82092H9.92672L7.56057 1.89627C7.43929 1.79741 7.2994 1.72388 7.14928 1.67994L1.7584 0.0910691C1.13414 -0.0923036 0.479215 0.264678 0.29508 0.888786L0.0564815 1.69901C-0.0326113 1.99924 0.00156126 2.32251 0.151219 2.59772C0.300877 2.87278 0.553815 3.07705 0.854351 3.16538ZM11.4964 5.57013L12.279 4.66501C12.3679 4.56219 12.4941 4.49888 12.6299 4.48896C12.7655 4.4792 12.8996 4.52375 13.0024 4.61269L16.517 7.65649C16.7306 7.84185 16.7538 8.16496 16.569 8.379L16.2072 8.79746C16.1248 8.8925 16.1028 9.02584 16.1504 9.14208L19.3001 16.8276C19.3931 17.0547 19.2844 17.3144 19.0572 17.4074L17.3699 18.099C17.2607 18.1437 17.1382 18.1432 17.0293 18.0976C16.9205 18.052 16.8343 17.9649 16.7896 17.8556C16.7556 17.7723 16.6894 17.7063 16.6058 17.6726C16.5223 17.6389 16.4288 17.6402 16.3464 17.6767L12.8834 19.2067C12.5051 19.3739 12.0712 19.3594 11.7049 19.1675C11.3385 18.9756 11.0796 18.6271 11.0015 18.2209L8.68568 6.18371C8.67103 6.1082 8.63076 6.04 8.57172 5.99073L8.46706 5.90347L9.74381 4.53442L11.0315 5.6069C11.171 5.72284 11.3777 5.7059 11.4964 5.56891V5.57013ZM0.695693 1.88834L0.93368 1.0775C0.971972 0.94691 1.06076 0.83707 1.18021 0.771928C1.29966 0.706939 1.44001 0.691989 1.57045 0.730585L6.95798 2.31656C7.02327 2.33578 7.08399 2.36767 7.13662 2.41054L9.22817 4.11017L7.95448 5.47661L6.44112 4.21512C6.31755 4.11184 6.17414 4.03511 6.0196 3.9898L1.0423 2.5245C0.770903 2.4444 0.615906 2.15973 0.695693 1.88834Z" fill="#2F5048"/>
<path d="M2.33347 11.498C2.95636 11.5121 3.55789 11.2709 3.99847 10.8303C4.43905 10.3897 4.6804 9.78817 4.66621 9.16513C4.66621 8.10273 3.37513 6.18418 2.83691 5.56328C2.70693 5.42323 2.52447 5.34375 2.33347 5.34375C2.14232 5.34375 1.95986 5.42323 1.82988 5.56328C1.29166 6.18418 0.000580023 8.10273 0.000580023 9.16513C-0.0134552 9.78817 0.227736 10.3897 0.668319 10.8303C1.1089 11.2709 1.71043 11.5121 2.33347 11.498ZM2.33347 5.99913C2.92127 6.67709 3.99969 8.39366 3.99969 9.16513C4.0151 9.61167 3.84454 10.0445 3.5286 10.3604C3.21281 10.6764 2.77985 10.8469 2.33347 10.8315C1.88694 10.8469 1.45414 10.6764 1.13819 10.3604C0.822248 10.0445 0.65169 9.61167 0.667099 9.16513C0.667099 8.39396 1.74582 6.6774 2.33347 5.99913Z" fill="#2F5048"/>
<path d="M9.55582 6.26027C9.47008 6.28224 9.3964 6.33731 9.35124 6.41344C9.30609 6.48972 9.29312 6.58079 9.31524 6.66653L9.48183 7.31916C9.51966 7.46653 9.65239 7.56966 9.80449 7.56981C9.83241 7.56997 9.86017 7.56646 9.88717 7.55944C10.0655 7.51398 10.1732 7.33244 10.1278 7.1541L9.96116 6.50131C9.93935 6.41557 9.88443 6.34204 9.80845 6.29688C9.73248 6.25173 9.64156 6.23846 9.55582 6.26027Z" fill="#2F5048"/>
<path d="M9.84092 8.40924L10.3132 10.4088C10.3488 10.5591 10.483 10.6654 10.6374 10.6654C10.6634 10.6655 10.689 10.6625 10.7142 10.6564C10.8929 10.6143 11.004 10.4353 10.9624 10.2564L10.4902 8.25684C10.4627 8.14089 10.3756 8.04829 10.2615 8.01412C10.1474 7.9798 10.0237 8.00909 9.93688 8.0907C9.85023 8.17247 9.81361 8.29421 9.84092 8.41016V8.40924Z" fill="#2F5048"/>
</g>
<defs>
<clipPath id="clip0_1321_6397">
<rect width="20" height="20" fill="white"/>
</clipPath>
</defs>
</svg>
