<svg width="20" height="20" viewBox="0 0 20 20" fill="none" xmlns="http://www.w3.org/2000/svg">
<path d="M16.1529 16.2028V3.79776C16.8157 3.62653 17.3068 3.02353 17.3068 2.30799C17.3068 1.45969 16.6166 0.769531 15.7683 0.769531C14.92 0.769531 14.2299 1.45969 14.2299 2.30799C14.2299 3.02353 14.7209 3.62653 15.3837 3.79776V9.61569H12.3068V3.79776C12.9696 3.62653 13.4606 3.02353 13.4606 2.30799C13.4606 1.45969 12.7705 0.769531 11.9222 0.769531C11.0739 0.769531 10.3837 1.45969 10.3837 2.30799C10.3837 3.02353 10.8748 3.62653 11.5376 3.79776V9.61569H8.46064V3.79776C9.12344 3.62653 9.61448 3.02353 9.61448 2.30799C9.61448 1.45969 8.92433 0.769531 8.07602 0.769531C7.22771 0.769531 6.53756 1.45969 6.53756 2.30799C6.53756 3.02353 7.0286 3.62653 7.69141 3.79776V9.61569H4.9991C4.78702 9.61569 4.61448 9.44315 4.61448 9.23107V3.79776C5.27729 3.62653 5.76833 3.02353 5.76833 2.30799C5.76833 1.45969 5.07818 0.769531 4.22987 0.769531C3.38156 0.769531 2.69141 1.45969 2.69141 2.30799C2.69141 3.02353 3.18244 3.62653 3.84525 3.79776V9.23107C3.84525 9.8673 4.36287 10.3849 4.9991 10.3849H7.69141V16.2028C7.0286 16.3741 6.53756 16.9771 6.53756 17.6926C6.53756 18.5409 7.22771 19.2311 8.07602 19.2311C8.92433 19.2311 9.61448 18.5409 9.61448 17.6926C9.61448 16.9771 9.12344 16.3741 8.46064 16.2028V10.3849H11.5376V16.2028C10.8748 16.3741 10.3837 16.9771 10.3837 17.6926C10.3837 18.5409 11.0739 19.2311 11.9222 19.2311C12.7705 19.2311 13.4606 18.5409 13.4606 17.6926C13.4606 16.9771 12.9696 16.3741 12.3068 16.2028V10.3849H15.3837V16.2028C14.7209 16.3741 14.2299 16.9771 14.2299 17.6926C14.2299 18.5409 14.92 19.2311 15.7683 19.2311C16.6166 19.2311 17.3068 18.5409 17.3068 17.6926C17.3068 16.9771 16.8157 16.3741 16.1529 16.2028ZM11.1529 2.30799C11.1529 1.88384 11.498 1.53876 11.9222 1.53876C12.3463 1.53876 12.6914 1.88384 12.6914 2.30799C12.6914 2.73215 12.3463 3.07722 11.9222 3.07722C11.498 3.07722 11.1529 2.73215 11.1529 2.30799ZM7.30679 2.30799C7.30679 1.88384 7.65187 1.53876 8.07602 1.53876C8.50017 1.53876 8.84525 1.88384 8.84525 2.30799C8.84525 2.73215 8.50017 3.07722 8.07602 3.07722C7.65187 3.07722 7.30679 2.73215 7.30679 2.30799ZM3.46064 2.30799C3.46064 1.88384 3.80571 1.53876 4.22987 1.53876C4.65402 1.53876 4.9991 1.88384 4.9991 2.30799C4.9991 2.73215 4.65402 3.07722 4.22987 3.07722C3.80571 3.07722 3.46064 2.73215 3.46064 2.30799ZM8.84525 17.6926C8.84525 18.1168 8.50017 18.4618 8.07602 18.4618C7.65187 18.4618 7.30679 18.1168 7.30679 17.6926C7.30679 17.2685 7.65187 16.9234 8.07602 16.9234C8.50017 16.9234 8.84525 17.2685 8.84525 17.6926ZM12.6914 17.6926C12.6914 18.1168 12.3463 18.4618 11.9222 18.4618C11.498 18.4618 11.1529 18.1168 11.1529 17.6926C11.1529 17.2685 11.498 16.9234 11.9222 16.9234C12.3463 16.9234 12.6914 17.2685 12.6914 17.6926ZM14.9991 2.30799C14.9991 1.88384 15.3442 1.53876 15.7683 1.53876C16.1925 1.53876 16.5376 1.88384 16.5376 2.30799C16.5376 2.73215 16.1925 3.07722 15.7683 3.07722C15.3442 3.07722 14.9991 2.73215 14.9991 2.30799ZM15.7683 18.4618C15.3442 18.4618 14.9991 18.1168 14.9991 17.6926C14.9991 17.2685 15.3442 16.9234 15.7683 16.9234C16.1925 16.9234 16.5376 17.2685 16.5376 17.6926C16.5376 18.1168 16.1925 18.4618 15.7683 18.4618Z" fill="#2F5048"/>
</svg>
