<svg width="20" height="20" viewBox="0 0 20 20" fill="none" xmlns="http://www.w3.org/2000/svg">
<g clip-path="url(#clip0_1321_6366)">
<path d="M8.99888 2.43719C8.91874 2.29648 8.73968 2.24739 8.59901 2.32756C8.5956 2.32947 8.51403 2.37609 8.38439 2.46114C8.24899 2.54992 8.2112 2.73168 8.30001 2.86708C8.38883 3.00255 8.57059 3.04027 8.70596 2.95146C8.81769 2.87822 8.88749 2.8381 8.88943 2.837C9.02993 2.75676 9.07899 2.5778 8.99888 2.43719Z" fill="#2F5048"/>
<path d="M11.4326 16.2086C11.334 16.3244 11.2299 16.4414 11.1232 16.5564C11.013 16.6751 11.02 16.8606 11.1387 16.9707C11.2571 17.0806 11.4427 17.0742 11.553 16.9552C11.6653 16.8342 11.775 16.7109 11.879 16.5888C11.9839 16.4655 11.9691 16.2805 11.8459 16.1755C11.7227 16.0705 11.5376 16.0853 11.4326 16.2086Z" fill="#2F5048"/>
<path d="M12.9296 14.4194C12.7836 14.3495 12.6085 14.4113 12.5386 14.5573C12.4752 14.6899 12.4038 14.8255 12.3262 14.9604C12.2455 15.1008 12.2938 15.28 12.4342 15.3607C12.5743 15.4413 12.7536 15.3933 12.8345 15.2527C12.9195 15.105 12.9978 14.9562 13.0676 14.8104C13.1374 14.6644 13.0757 14.4893 12.9296 14.4194Z" fill="#2F5048"/>
<path d="M13.5307 13.184C13.5382 13.0896 13.542 12.9947 13.542 12.9017C13.542 12.8221 13.5393 12.742 13.5338 12.6633C13.5224 12.5018 13.3819 12.3799 13.2208 12.3914C13.0593 12.4027 12.9375 12.5428 12.9488 12.7043C12.9534 12.7693 12.9557 12.8357 12.9557 12.9017C12.9557 12.9792 12.9525 13.0587 12.9462 13.1377C12.9334 13.2991 13.0539 13.4404 13.2154 13.4532C13.3762 13.466 13.5179 13.3457 13.5307 13.184Z" fill="#2F5048"/>
<path d="M12.6622 10.6258C12.5568 10.5028 12.3717 10.4887 12.2488 10.5941C12.1259 10.6995 12.1117 10.8847 12.2171 11.0076C12.3152 11.1219 12.4047 11.24 12.4831 11.3586C12.5725 11.4937 12.7544 11.5308 12.8894 11.4414C13.0245 11.3521 13.0616 11.1702 12.9722 11.0351C12.8804 10.8963 12.7761 10.7585 12.6622 10.6258Z" fill="#2F5048"/>
<path d="M11.3883 9.54739C11.2539 9.46071 11.1115 9.37476 10.9649 9.29192C10.824 9.21225 10.6451 9.26187 10.5654 9.40285C10.4857 9.54382 10.5353 9.72268 10.6763 9.80239C10.813 9.87967 10.9456 9.95971 11.0705 10.0402C11.2057 10.1274 11.3875 10.0897 11.4758 9.9527C11.5636 9.8166 11.5244 9.63517 11.3883 9.54739Z" fill="#2F5048"/>
<path d="M9.1135 8.36128C8.97199 8.2825 8.7935 8.33343 8.71476 8.47501C8.63605 8.61648 8.68694 8.79504 8.82848 8.87375C8.96639 8.95042 9.1116 9.02753 9.26021 9.1028C9.40369 9.17558 9.58065 9.11918 9.65429 8.97387C9.72749 8.82946 9.66976 8.653 9.52532 8.57979C9.38341 8.50782 9.24484 8.43432 9.1135 8.36128Z" fill="#2F5048"/>
<path d="M7.46537 7.95156C7.5883 8.05635 7.77344 8.04211 7.87869 7.91857C7.98375 7.79534 7.96897 7.61028 7.84571 7.50526C7.72711 7.40417 7.61665 7.30095 7.51747 7.19856C7.40481 7.0823 7.21921 7.0793 7.10288 7.19196C6.98655 7.30462 6.98362 7.49025 7.09628 7.60654C7.2084 7.72234 7.33264 7.83843 7.46537 7.95156Z" fill="#2F5048"/>
<path d="M6.48552 5.27352C6.3241 5.26972 6.18883 5.39672 6.18443 5.55857C6.18383 5.57952 6.18356 5.60046 6.1836 5.6212C6.1836 5.78162 6.20051 5.94321 6.23392 6.10139C6.26744 6.26038 6.42349 6.36113 6.58131 6.32774C6.73976 6.29429 6.84111 6.13881 6.80766 5.98036C6.78265 5.86183 6.77001 5.74103 6.77001 5.6209C6.77001 5.60543 6.77021 5.59002 6.77064 5.57465C6.77501 5.41276 6.64737 5.27796 6.48552 5.27352Z" fill="#2F5048"/>
<path d="M6.85956 4.33867C6.9907 4.43362 7.17403 4.40431 7.26898 4.27314C7.35242 4.15794 7.44707 4.04148 7.55026 3.92715C7.65875 3.80692 7.64928 3.62156 7.52908 3.51307C7.40882 3.40451 7.22342 3.41408 7.115 3.53425C6.99774 3.66418 6.88971 3.79705 6.79403 3.92926C6.69904 4.06039 6.72839 4.24365 6.85956 4.33867Z" fill="#2F5048"/>
<path d="M9.99043 17.6297C9.88214 17.7193 9.81771 17.7683 9.81714 17.7688C9.68817 17.8667 9.66293 18.0506 9.76081 18.1796C9.85903 18.309 10.0429 18.3335 10.1716 18.2359C10.1746 18.2336 10.2453 18.1799 10.3641 18.0816C10.4889 17.9784 10.5064 17.7936 10.4032 17.6688C10.3001 17.5441 10.1152 17.5266 9.99043 17.6297Z" fill="#2F5048"/>
<path d="M11.1537 20H16.8609C17.3507 20 17.7961 19.7092 18.0235 19.2413C20.6787 13.7741 20.0689 8.85051 14.213 7.04072C12.3278 6.45811 10.0606 5.50614 9.96502 4.27956C9.88861 3.29921 11.1901 2.1459 13.8335 0.851717C14.2501 0.647642 14.1076 0 13.6476 0C13.0262 0 12.1719 0 11.522 0C11.1543 0 10.7974 0.0833107 10.4613 0.247564C9.64295 0.647575 8.56291 1.21834 7.51882 1.8998C4.41672 3.64019 2.82838 5.32605 2.79803 6.91055C2.77725 7.99522 3.4903 8.98825 4.91732 9.86201C6.2101 10.6535 6.86571 11.5413 6.86595 12.5008C6.86665 15.0595 2.28122 17.8703 0.774394 18.794C0.231307 19.1269 0.459862 20 1.08362 20H9.78656C9.94841 20 10.0795 19.8689 10.0795 19.7071C10.0795 19.5453 9.94837 19.4141 9.78656 19.4141H3.31197C8.30144 16.1341 11.3617 12.0059 6.2693 8.8877C3.09469 6.9439 4.41528 4.72983 7.49771 2.61835C8.6171 1.85291 9.82628 1.21017 10.7186 0.774009C10.9739 0.649243 11.2442 0.585976 11.522 0.585976H12.2997C10.7475 1.42349 8.47096 2.91441 8.56501 4.67547C8.60106 5.35093 8.98373 5.9903 9.70231 6.57587C10.4617 7.1947 11.6269 7.77504 13.1654 8.30082C15.8385 9.2143 17.2993 10.7282 17.5071 12.8005C17.5233 12.9614 17.6667 13.0789 17.8278 13.0627C17.9889 13.0466 18.1063 12.903 18.0901 12.742C17.8574 10.4213 16.2642 8.74055 13.3549 7.74633C10.6634 6.82651 9.20932 5.75384 9.15005 4.64419C9.12807 4.23257 9.29069 3.84557 9.51912 3.50288C8.64405 5.63251 11.8343 6.91882 14.0399 7.60045C16.2665 8.28861 17.7513 9.45736 18.4531 11.0743C19.6378 13.8042 18.3622 17.2025 17.4964 18.9852C17.3679 19.2497 17.1244 19.4141 16.8609 19.4141H15.9122C16.9255 17.8755 17.8419 15.9965 18.0665 14.1743C18.0863 14.0137 17.9721 13.8675 17.8115 13.8476C17.6511 13.8282 17.5047 13.942 17.485 14.1026C17.3718 15.0206 16.9236 16.92 15.2051 19.4141H11.1537C10.9919 19.4141 10.8608 19.5452 10.8608 19.707C10.8608 19.8688 10.9919 20 11.1537 20ZM2.21999 19.4141H1.08366C1.08029 19.4141 1.07872 19.4137 1.07872 19.4137H1.07859C1.07225 19.4102 1.05604 19.3866 1.05514 19.3514C1.05414 19.3097 1.07402 19.2975 1.08056 19.2935C3.81593 17.6167 7.45252 15.0882 7.45182 12.5006C7.45152 11.3235 6.70169 10.2676 5.22318 9.36228C3.34122 8.21 2.76224 6.8735 4.15852 5.17677C3.32828 6.89301 4.21845 8.27611 5.83197 9.30532C5.94866 9.37972 5.98471 9.39923 6.10614 9.47664C10.8755 12.5166 7.0244 16.4601 2.21999 19.4141Z" fill="#2F5048"/>
</g>
<defs>
<clipPath id="clip0_1321_6366">
<rect width="20" height="20" fill="white"/>
</clipPath>
</defs>
</svg>
