<svg width="20" height="20" viewBox="0 0 20 20" fill="none" xmlns="http://www.w3.org/2000/svg">
<g clip-path="url(#clip0_1321_6384)">
<path d="M4.55984 11.2819C3.92089 11.188 3.27754 11.127 2.63233 11.099C2.34942 11.0815 1.9765 11.229 1.91192 11.9423C1.89987 12.1217 1.91718 12.3019 1.96317 12.4757C2.00602 12.6572 2.10264 12.8215 2.24039 12.9472C2.37814 13.0729 2.55061 13.1541 2.73525 13.1802L5.49317 13.5686C5.50694 13.5708 5.52088 13.572 5.53483 13.5719C5.58871 13.572 5.64167 13.5581 5.6886 13.5316C5.73552 13.5052 5.77481 13.467 5.80265 13.4209C5.83049 13.3748 5.84594 13.3223 5.84749 13.2684C5.84904 13.2146 5.83664 13.1612 5.8115 13.1136C4.90442 11.3882 4.67192 11.3165 4.55984 11.2819ZM2.82233 12.5615C2.76175 12.5522 2.70534 12.525 2.6604 12.4833C2.61546 12.4417 2.58406 12.3875 2.57025 12.3277C2.54118 12.2207 2.52909 12.1098 2.53442 11.999C2.53541 11.9041 2.55687 11.8106 2.59733 11.7248H2.60608C3.31858 11.7694 4.11983 11.834 4.33692 11.8723C4.57151 12.1862 4.78131 12.5179 4.96442 12.8644L2.82233 12.5615Z" fill="#2F5048"/>
<path d="M17.3673 11.0989C16.7221 11.1269 16.0788 11.188 15.4398 11.2819C15.3278 11.3164 15.0948 11.3881 14.1865 13.1152C14.1614 13.1628 14.149 13.2162 14.1505 13.27C14.1521 13.3239 14.1675 13.3764 14.1954 13.4225C14.2232 13.4686 14.2625 13.5068 14.3094 13.5332C14.3563 13.5597 14.4093 13.5736 14.4632 13.5735C14.4771 13.5736 14.4911 13.5725 14.5048 13.5702L17.2628 13.1819C17.4474 13.1557 17.6199 13.0745 17.7576 12.9488C17.8954 12.8231 17.992 12.6588 18.0348 12.4773C18.0807 12.3034 18.098 12.1233 18.0861 11.9439C18.0228 11.2289 17.6478 11.0819 17.3673 11.0989ZM17.4294 12.3277C17.4156 12.3874 17.3842 12.4416 17.3393 12.4833C17.2943 12.5249 17.2379 12.5522 17.1773 12.5614L15.0353 12.8631C15.2185 12.5168 15.4281 12.1851 15.6623 11.871C15.8832 11.8323 16.6853 11.7677 17.3973 11.7235C17.4428 11.8082 17.4661 11.9029 17.4653 11.9989C17.4706 12.1097 17.4585 12.2207 17.4294 12.3277Z" fill="#2F5048"/>
<path d="M14.3253 11.5751C14.2938 11.5301 14.2511 11.4942 14.2013 11.471C14.1516 11.4477 14.0966 11.4379 14.042 11.4426C14.0132 11.4451 11.1428 11.6926 10.0003 11.6926C8.85779 11.6926 5.98695 11.4426 5.95862 11.4426C5.9039 11.4378 5.84888 11.4475 5.79912 11.4707C5.74935 11.494 5.7066 11.53 5.67519 11.575C5.64379 11.6201 5.62483 11.6727 5.62023 11.7274C5.61564 11.7821 5.62558 11.8371 5.64904 11.8868L6.47195 13.633C6.49602 13.6838 6.53326 13.7271 6.5798 13.7586C6.62634 13.79 6.68047 13.8084 6.73654 13.8118L9.99862 13.9984L13.2657 13.8118C13.3218 13.8085 13.376 13.7901 13.4225 13.7587C13.4691 13.7272 13.5063 13.6838 13.5303 13.633L14.3532 11.8868C14.3765 11.837 14.3862 11.7819 14.3813 11.7272C14.3764 11.6724 14.357 11.62 14.3253 11.5751ZM13.0428 13.2001L9.99945 13.3759L6.95779 13.2001L6.44487 12.1118C7.34445 12.1851 9.12779 12.3201 10.0007 12.3201C10.8736 12.3201 12.6574 12.1851 13.5574 12.1118L13.0428 13.2001Z" fill="#2F5048"/>
<path d="M11.7963 2.07897L12.2572 2.25147C12.4079 2.3078 12.5447 2.39579 12.6585 2.5095C12.7723 2.62321 12.8603 2.76 12.9168 2.91064L13.0893 3.37314C13.1118 3.43227 13.1517 3.48316 13.2038 3.51906C13.2559 3.55497 13.3177 3.5742 13.3809 3.5742C13.4442 3.5742 13.506 3.55497 13.5581 3.51906C13.6101 3.48316 13.6501 3.43227 13.6726 3.37314L13.8451 2.91231C13.9016 2.76178 13.9896 2.62507 14.1033 2.51138C14.217 2.39769 14.3537 2.30964 14.5043 2.25314L14.9651 2.08064C15.0242 2.05813 15.0751 2.01819 15.111 1.9661C15.1469 1.91401 15.1662 1.85224 15.1662 1.78897C15.1662 1.72571 15.1469 1.66394 15.111 1.61185C15.0751 1.55976 15.0242 1.51982 14.9651 1.49731L14.5043 1.32481C14.3536 1.26838 14.2168 1.18031 14.1031 1.06653C13.9894 0.952747 13.9014 0.815902 13.8451 0.665225L13.6743 0.201058C13.6518 0.141932 13.6118 0.0910417 13.5597 0.0551348C13.5076 0.0192279 13.4459 0 13.3826 0C13.3193 0 13.2576 0.0192279 13.2055 0.0551348C13.1534 0.0910417 13.1134 0.141932 13.0909 0.201058L12.9168 0.661892C12.8604 0.812568 12.7724 0.949413 12.6587 1.0632C12.545 1.17698 12.4082 1.26505 12.2576 1.32148L11.7968 1.49397C11.7376 1.51648 11.6867 1.55643 11.6508 1.60852C11.6149 1.6606 11.5957 1.72238 11.5957 1.78564C11.5957 1.84891 11.6149 1.91068 11.6508 1.96277C11.6867 2.01486 11.7376 2.0548 11.7968 2.07731L11.7963 2.07897ZM13.3818 1.13689C13.5363 1.40745 13.7605 1.63173 14.0309 1.78647C13.7604 1.94111 13.5362 2.16542 13.3818 2.43606C13.2269 2.16555 13.0027 1.94129 12.7322 1.78647C13.0027 1.63166 13.2269 1.4074 13.3818 1.13689Z" fill="#2F5048"/>
<path d="M15.3089 4.02035L15.6581 4.15118C15.7621 4.19024 15.8566 4.25113 15.9352 4.32976C16.0137 4.40838 16.0745 4.50292 16.1135 4.60701L16.2443 4.95618C16.2666 5.01581 16.3066 5.06721 16.3589 5.1035C16.4112 5.13979 16.4734 5.15924 16.537 5.15924C16.6007 5.15924 16.6628 5.13979 16.7151 5.1035C16.7675 5.06721 16.8074 5.01581 16.8297 4.95618L16.9601 4.60701C16.9992 4.5029 17.0601 4.40834 17.1387 4.32972C17.2173 4.25109 17.3119 4.19021 17.416 4.15118L17.7651 4.02035C17.8241 3.99767 17.8748 3.95766 17.9106 3.90559C17.9463 3.85353 17.9655 3.79184 17.9655 3.72868C17.9655 3.66552 17.9463 3.60383 17.9106 3.55177C17.8748 3.4997 17.8241 3.45969 17.7651 3.43701L17.416 3.30451C17.3119 3.26576 17.2174 3.20506 17.1389 3.12656C17.0604 3.04805 16.9997 2.95356 16.961 2.84951L16.8297 2.49993C16.8074 2.4403 16.7675 2.3889 16.7151 2.35261C16.6628 2.31632 16.6007 2.29688 16.537 2.29688C16.4734 2.29688 16.4112 2.31632 16.3589 2.35261C16.3066 2.3889 16.2666 2.4403 16.2443 2.49993L16.1135 2.84951C16.0745 2.95356 16.0137 3.04804 15.9351 3.1266C15.8566 3.20515 15.7621 3.26596 15.6581 3.30493L15.3085 3.43576C15.2494 3.45827 15.1985 3.49822 15.1626 3.55031C15.1267 3.60239 15.1074 3.66417 15.1074 3.72743C15.1074 3.7907 15.1267 3.85247 15.1626 3.90456C15.1985 3.95664 15.2494 3.99659 15.3085 4.0191L15.3089 4.02035ZM16.5368 3.37493C16.6319 3.51211 16.7509 3.63108 16.8881 3.72618C16.7512 3.82146 16.6323 3.94024 16.5368 4.07701C16.4416 3.94017 16.3228 3.82137 16.186 3.72618C16.323 3.63107 16.4419 3.5121 16.5368 3.37493Z" fill="#2F5048"/>
<path d="M17.2616 2.08201L17.6108 2.21285C17.7148 2.25177 17.8092 2.31251 17.8878 2.391C17.9663 2.46948 18.0272 2.56388 18.0662 2.66785L18.197 3.01701C18.2193 3.07665 18.2593 3.12805 18.3116 3.16434C18.3639 3.20062 18.4261 3.22007 18.4897 3.22007C18.5534 3.22007 18.6155 3.20062 18.6679 3.16434C18.7202 3.12805 18.7601 3.07665 18.7824 3.01701L18.9133 2.66785C18.9521 2.56382 19.0129 2.46934 19.0914 2.39078C19.1699 2.31222 19.2643 2.2514 19.3683 2.21243L19.7179 2.0816C19.777 2.05909 19.8279 2.01914 19.8638 1.96706C19.8997 1.91497 19.9189 1.8532 19.9189 1.78993C19.9189 1.72667 19.8997 1.66489 19.8638 1.61281C19.8279 1.56072 19.777 1.52077 19.7179 1.49826L19.3687 1.36701C19.2647 1.32811 19.1703 1.26737 19.0918 1.18888C19.0133 1.11039 18.9526 1.01598 18.9137 0.912014L18.7829 0.562431C18.7606 0.502798 18.7206 0.451397 18.6683 0.415109C18.616 0.37882 18.5538 0.359375 18.4901 0.359375C18.4265 0.359375 18.3643 0.37882 18.312 0.415109C18.2597 0.451397 18.2197 0.502798 18.1974 0.562431L18.0666 0.912014C18.0276 1.01601 17.9668 1.11043 17.8883 1.18892C17.8097 1.26741 17.7152 1.32814 17.6112 1.36701L17.2616 1.49826C17.2025 1.52077 17.1516 1.56072 17.1157 1.61281C17.0798 1.66489 17.0605 1.72667 17.0605 1.78993C17.0605 1.8532 17.0798 1.91497 17.1157 1.96706C17.1516 2.01914 17.2025 2.05909 17.2616 2.0816V2.08201ZM18.4895 1.43868C18.5849 1.57535 18.7037 1.69412 18.8404 1.78951C18.7037 1.88491 18.5849 2.00368 18.4895 2.14035C18.3943 2.0035 18.2755 1.8847 18.1387 1.78951C18.2754 1.69422 18.3942 1.57544 18.4895 1.43868Z" fill="#2F5048"/>
<path d="M19.0883 17.6563C19.0054 17.6563 18.9259 17.6892 18.8673 17.7478C18.8087 17.8064 18.7758 17.8859 18.7758 17.9688V19.2663C18.7758 19.2955 18.7642 19.3236 18.7435 19.3443C18.7228 19.365 18.6947 19.3767 18.6654 19.3767H17.0421C17.0128 19.3767 16.9847 19.365 16.964 19.3443C16.9433 19.3236 16.9316 19.2955 16.9316 19.2663V18.7313C16.9316 18.6484 16.8987 18.5689 16.8401 18.5103C16.7815 18.4517 16.702 18.4188 16.6191 18.4188C16.5363 18.4188 16.4568 18.4517 16.3982 18.5103C16.3396 18.5689 16.3066 18.6484 16.3066 18.7313V19.2663C16.3069 19.4612 16.3844 19.6482 16.5223 19.786C16.6602 19.9239 16.8471 20.0015 17.0421 20.0017H18.6671C18.862 20.0015 19.049 19.9239 19.1868 19.786C19.3247 19.6482 19.4023 19.4612 19.4025 19.2663V17.9688C19.4025 17.9276 19.3943 17.8868 19.3785 17.8488C19.3627 17.8108 19.3396 17.7762 19.3104 17.7472C19.2812 17.7182 19.2465 17.6952 19.2084 17.6796C19.1703 17.664 19.1295 17.656 19.0883 17.6563Z" fill="#2F5048"/>
<path d="M3.35867 18.4183C3.27579 18.4183 3.19631 18.4513 3.1377 18.5099C3.0791 18.5685 3.04617 18.648 3.04617 18.7308V19.2658C3.04617 19.295 3.0346 19.3231 3.01398 19.3438C2.99336 19.3645 2.96538 19.3761 2.93617 19.3763H1.31117C1.28196 19.3761 1.25398 19.3645 1.23336 19.3438C1.21275 19.3231 1.20117 19.295 1.20117 19.2658V17.9688C1.20117 17.8859 1.16825 17.8064 1.10964 17.7478C1.05104 17.6892 0.971552 17.6562 0.888672 17.6562C0.805792 17.6562 0.726306 17.6892 0.667701 17.7478C0.609096 17.8064 0.576172 17.8859 0.576172 17.9688V19.2663C0.576282 19.461 0.653627 19.6478 0.79125 19.7857C0.928873 19.9236 1.11554 20.0012 1.31034 20.0017H2.93534C3.13028 20.0014 3.31716 19.9239 3.45497 19.786C3.59277 19.6481 3.67023 19.4612 3.67034 19.2663V18.7313C3.67045 18.6484 3.63769 18.569 3.57925 18.5103C3.52081 18.4516 3.44148 18.4186 3.35867 18.4183Z" fill="#2F5048"/>
<path d="M19.3454 7.85526L18.3037 7.67526C18.1515 7.64718 17.9943 7.67179 17.858 7.74503C17.7216 7.81827 17.6143 7.93577 17.5537 8.07818L17.4974 8.20318L16.7591 6.46151C16.5922 6.06216 16.3258 5.7122 15.9854 5.44496C15.6449 5.17772 15.2417 5.0021 14.8141 4.93484C13.2209 4.69298 11.6114 4.57513 9.99995 4.58234C8.38851 4.57526 6.77896 4.69326 5.18578 4.93526C4.75826 5.00248 4.35507 5.17803 4.0146 5.4452C3.67414 5.71236 3.40774 6.06224 3.24078 6.46151L2.49995 8.20484L2.44745 8.08234C2.38731 7.93933 2.28027 7.82105 2.14395 7.74699C2.00763 7.67292 1.85016 7.64748 1.69745 7.67484L0.655781 7.85526C0.486736 7.88329 0.333133 7.97043 0.222335 8.10114C0.111538 8.23185 0.050743 8.39766 0.0507813 8.56901V8.77359C0.0509373 8.93854 0.107207 9.09853 0.210342 9.22726C0.313477 9.35599 0.457339 9.4458 0.618281 9.48193L1.60745 9.70526L1.16911 10.374C0.789307 10.9519 0.587224 11.6284 0.587865 12.3198V15.874C0.587865 17.2153 1.52203 18.0823 2.9687 18.0823H17.0312C18.4779 18.0823 19.412 17.2157 19.412 15.874V12.3182C19.4127 11.6267 19.2106 10.9502 18.8308 10.3723L18.3924 9.70568L19.3783 9.48318C19.5397 9.44748 19.6841 9.35788 19.7878 9.22913C19.8915 9.10038 19.9482 8.94015 19.9487 8.77484V8.57026C19.9492 8.39891 19.8888 8.23296 19.7783 8.10201C19.6678 7.97105 19.5144 7.8836 19.3454 7.85526ZM0.752865 8.87026C0.730932 8.86533 0.711338 8.85306 0.697323 8.83548C0.683307 8.81791 0.675708 8.79607 0.675781 8.77359V8.56901C0.675442 8.54541 0.683716 8.52248 0.699054 8.50454C0.714393 8.48659 0.735745 8.47485 0.759115 8.47151L1.80536 8.29068C1.82004 8.28803 1.83518 8.2908 1.84797 8.29846C1.86076 8.30612 1.87035 8.31816 1.87495 8.33234L2.13036 8.90984L1.97453 9.14734L0.752865 8.87026ZM18.787 14.9032H2.00495C1.92207 14.9032 1.84258 14.9361 1.78398 14.9947C1.72537 15.0533 1.69245 15.1328 1.69245 15.2157C1.69245 15.2986 1.72537 15.378 1.78398 15.4366C1.84258 15.4953 1.92207 15.5282 2.00495 15.5282H18.787V15.874C18.787 16.8648 18.1308 17.4573 17.0312 17.4573H2.9687C1.86911 17.4573 1.21286 16.8653 1.21286 15.874V12.3182C1.21243 11.7484 1.37886 11.1911 1.69161 10.7148L2.67661 9.21234H16.3104C16.3932 9.21234 16.4727 9.17942 16.5313 9.12081C16.5899 9.06221 16.6229 8.98272 16.6229 8.89984C16.6229 8.81696 16.5899 8.73748 16.5313 8.67887C16.4727 8.62027 16.3932 8.58734 16.3104 8.58734H3.01786L3.8162 6.70734C3.94185 6.40571 4.14271 6.14132 4.39962 5.93941C4.65653 5.7375 4.96091 5.60481 5.2837 5.55401C6.84441 5.31628 8.42125 5.20037 9.99995 5.20734C11.5786 5.19996 13.1555 5.31545 14.7162 5.55276C15.0391 5.60368 15.3436 5.73655 15.6005 5.93869C15.8574 6.14083 16.0582 6.40548 16.1837 6.70734L17.097 8.86026C17.1041 8.87748 17.1129 8.89396 17.1233 8.90943L18.3083 10.7165C18.621 11.1927 18.7875 11.7501 18.787 12.3198V14.9032ZM19.3237 8.77359C19.3237 8.79652 19.3158 8.81875 19.3013 8.83651C19.2868 8.85427 19.2666 8.86649 19.2441 8.87109L18.0266 9.14609L17.8708 8.90859L18.1279 8.32526C18.1336 8.31263 18.1434 8.30226 18.1557 8.29578C18.168 8.2893 18.1821 8.28706 18.1958 8.28943L19.2399 8.47026C19.2633 8.4736 19.2847 8.48534 19.3 8.50329C19.3153 8.52124 19.3236 8.54416 19.3233 8.56776L19.3237 8.77359Z" fill="#2F5048"/>
</g>
<defs>
<clipPath id="clip0_1321_6384">
<rect width="20" height="20" fill="white"/>
</clipPath>
</defs>
</svg>
