<svg width="20" height="20" viewBox="0 0 20 20" fill="none" xmlns="http://www.w3.org/2000/svg">
<path d="M8.74355 6.96184C8.44171 6.66598 7.97499 6.68988 7.69831 6.97211L6.7394 7.95008L6.4762 7.67473C6.18827 7.3734 5.71995 7.3752 5.4312 7.65109C5.13659 7.93266 5.126 8.40145 5.40756 8.6961L6.19831 9.5234C6.48366 9.822 6.96518 9.83122 7.26042 9.5302L8.75382 8.00707C9.03984 7.71535 9.03523 7.24785 8.74355 6.96184ZM8.33534 7.5968L6.84194 9.11993C6.81413 9.14825 6.77495 9.16582 6.73163 9.16582C6.69034 9.16555 6.65038 9.14832 6.62186 9.11852L5.83112 8.29121C5.7728 8.23016 5.77495 8.13305 5.836 8.07469C5.89717 8.01625 5.99405 8.01836 6.05253 8.07957L6.52487 8.57375C6.63823 8.69235 6.82897 8.69567 6.94589 8.57645L8.11675 7.38234C8.17616 7.3218 8.27292 7.32105 8.33327 7.38027C8.39362 7.43941 8.3948 7.53621 8.33534 7.5968Z" fill="#2F5048"/>
<path d="M8.74355 10.4185C8.45214 10.1327 7.98437 10.137 7.69831 10.4287L6.7394 11.4067L6.4762 11.1313C6.19253 10.8344 5.72479 10.8272 5.4312 11.1077C5.13659 11.3893 5.126 11.8581 5.40756 12.1527L6.19831 12.98C6.4869 13.282 6.96827 13.2847 7.26042 12.9868L8.75382 11.4637C9.03976 11.172 9.03523 10.7045 8.74355 10.4185ZM8.33534 11.0534L6.84194 12.5765C6.78108 12.6385 6.68136 12.6373 6.62186 12.5751L5.83112 11.7477C5.7728 11.6867 5.77495 11.5896 5.836 11.5313C5.89714 11.4728 5.99405 11.4749 6.05253 11.5361L6.52487 12.0303C6.63585 12.1464 6.82624 12.155 6.94589 12.033L8.11675 10.8389C8.17624 10.7783 8.27312 10.7778 8.33327 10.8368C8.39362 10.896 8.3948 10.9928 8.33534 11.0534Z" fill="#2F5048"/>
<path d="M8.74351 13.8755C8.45214 13.5898 7.98425 13.5941 7.69831 13.8857L6.7394 14.8638L6.4762 14.5884C6.19257 14.2916 5.72467 14.2843 5.4312 14.5648C5.13659 14.8463 5.126 15.3151 5.40756 15.6098L6.19827 16.4371C6.33577 16.581 6.52878 16.6642 6.72975 16.6655H6.73261C6.92987 16.6655 7.12225 16.5847 7.26038 16.4439L8.75378 14.9208C9.03976 14.6291 9.03523 14.1616 8.74351 13.8755ZM8.33534 14.5105L6.84194 16.0336C6.81331 16.0628 6.77347 16.0795 6.73257 16.0795C6.69089 16.0795 6.65054 16.0622 6.62186 16.0322L5.83112 15.2049C5.7728 15.1438 5.77495 15.0467 5.836 14.9884C5.89714 14.93 5.99405 14.932 6.05253 14.9932L6.52487 15.4874C6.6421 15.6101 6.83382 15.6045 6.94589 15.4901L8.11675 14.296C8.17663 14.235 8.27355 14.2353 8.33327 14.294C8.39378 14.3532 8.39464 14.45 8.33534 14.5105Z" fill="#2F5048"/>
<path d="M14.3076 7.95703H10C9.83816 7.95703 9.70703 8.0882 9.70703 8.25C9.70703 8.4118 9.8382 8.54297 10 8.54297H14.3076C14.4695 8.54297 14.6006 8.4118 14.6006 8.25C14.6006 8.08824 14.4695 7.95703 14.3076 7.95703Z" fill="#2F5048"/>
<path d="M14.3076 11.5117H10C9.83816 11.5117 9.70703 11.6429 9.70703 11.8047C9.70703 11.9665 9.8382 12.0977 10 12.0977H14.3076C14.4695 12.0977 14.6006 11.9665 14.6006 11.8047C14.6006 11.6429 14.4695 11.5117 14.3076 11.5117Z" fill="#2F5048"/>
<path d="M14.3076 15.0664H10C9.83816 15.0664 9.70703 15.1976 9.70703 15.3594C9.70703 15.5212 9.8382 15.6523 10 15.6523H14.3076C14.4695 15.6523 14.6006 15.5212 14.6006 15.3594C14.6006 15.1976 14.4695 15.0664 14.3076 15.0664Z" fill="#2F5048"/>
<path d="M17.1262 11.6543C16.9644 11.6543 16.8332 11.7855 16.8332 11.9473V18.6461C16.8332 19.0696 16.4887 19.4141 16.0653 19.4141H3.93387C3.51043 19.4141 3.16598 19.0695 3.16598 18.6461V3.53415C3.16598 3.11071 3.51043 2.76622 3.93387 2.76622H6.41575V2.92938V2.93211C6.41575 3.35215 6.75751 3.69387 7.17751 3.69387H7.18024H7.28751V4.21579H4.3961C4.08942 4.21579 3.83992 4.46528 3.83992 4.77196V18.2378C3.83992 18.5445 4.08942 18.794 4.3961 18.794H9.31587C9.47771 18.794 9.60884 18.6628 9.60884 18.501C9.60884 18.3392 9.47771 18.208 9.31587 18.208H4.42594V4.80173H7.28751V5.26317C7.28751 5.61966 7.57747 5.90962 7.93396 5.90962H12.0651C12.4216 5.90962 12.7116 5.61966 12.7116 5.26317V4.80173H15.5731V18.208H10.6832C10.5213 18.208 10.3902 18.3391 10.3902 18.5009C10.3902 18.6627 10.5213 18.7939 10.6832 18.7939H15.603C15.9097 18.7939 16.1591 18.5444 16.1591 18.2377V4.77192C16.1591 4.46528 15.9096 4.21575 15.603 4.21575H12.7116V3.69387H12.8189H12.8216C13.2416 3.69387 13.5833 3.35212 13.5833 2.93211V2.93012C13.5833 2.92985 13.5834 2.92961 13.5834 2.92938V2.76622H16.0653C16.4887 2.76622 16.8332 3.11075 16.8332 3.53415V10.5801C16.8332 10.7419 16.9643 10.873 17.1262 10.873C17.288 10.873 17.4191 10.7419 17.4191 10.5801V3.53415C17.4191 2.78758 16.8118 2.18024 16.0653 2.18024H13.5833V2.00266C13.5833 1.58262 13.2416 1.2409 12.8216 1.2409H11.2261V0.764494C11.2261 0.342969 10.8831 0 10.4616 0H9.53759C9.11603 0 8.77314 0.342969 8.77314 0.764494V1.24082H7.17759C6.75755 1.24082 6.41583 1.58254 6.41583 2.00258V2.18016H3.93395C3.18742 2.18016 2.58008 2.78751 2.58008 3.53407V18.6461C2.58008 19.3926 3.18742 20 3.93395 20H16.0654C16.8119 20 17.4192 19.3926 17.4192 18.6461V11.9473C17.4192 11.7855 17.288 11.6543 17.1262 11.6543ZM12.1256 5.26317C12.1256 5.29653 12.0985 5.32364 12.0651 5.32364H7.93396C7.9006 5.32364 7.87349 5.29649 7.87349 5.26317V4.80173H12.1256V5.26317H12.1256ZM12.1256 4.21579H12.1256H7.87353V3.69387H12.1257V4.21579H12.1256ZM9.359 0.764494C9.35904 0.667697 9.44079 0.585978 9.53751 0.585978H10.4615C10.5583 0.585978 10.64 0.667736 10.64 0.764494V1.24082H9.359V0.764494ZM7.00169 2.00262C7.00169 1.90735 7.0822 1.82684 7.17747 1.82684C7.42724 1.82684 12.5742 1.82684 12.8215 1.82684C12.9168 1.82684 12.9973 1.90735 12.9973 2.00262V2.92969C12.9971 3.02629 12.9155 3.10786 12.8188 3.10786C12.6353 3.10786 7.29786 3.10786 7.1802 3.10786C7.08341 3.10786 7.00169 3.0261 7.00169 2.92934C7.00169 2.5995 7.00169 2.34899 7.00169 2.00262Z" fill="#2F5048"/>
</svg>
