<svg width="20" height="20" viewBox="0 0 20 20" fill="none" xmlns="http://www.w3.org/2000/svg">
<g clip-path="url(#clip0_1321_7200)">
<path d="M10.0007 2.5C9.77065 2.5 9.58398 2.31333 9.58398 2.08333V0.416667C9.58398 0.186667 9.77065 0 10.0007 0C10.2307 0 10.4173 0.186667 10.4173 0.416667V2.08333C10.4173 2.31333 10.2307 2.5 10.0007 2.5Z" fill="#2F5048"/>
<path d="M15.5985 4.81964C15.4918 4.81964 15.3852 4.7788 15.3035 4.69797C15.141 4.53547 15.141 4.2713 15.3035 4.1088L16.4818 2.93047C16.6443 2.76797 16.9085 2.76797 17.071 2.93047C17.2335 3.09297 17.2335 3.35714 17.071 3.51964L15.8927 4.69797C15.8118 4.7788 15.7052 4.81964 15.5985 4.81964Z" fill="#2F5048"/>
<path d="M19.5833 10.4154H17.9167C17.6867 10.4154 17.5 10.2287 17.5 9.9987C17.5 9.7687 17.6867 9.58203 17.9167 9.58203H19.5833C19.8133 9.58203 20 9.7687 20 9.9987C20 10.2287 19.8133 10.4154 19.5833 10.4154Z" fill="#2F5048"/>
<path d="M16.7768 17.1946C16.6702 17.1946 16.5635 17.1538 16.4818 17.073L15.3035 15.8946C15.141 15.7321 15.141 15.468 15.3035 15.3055C15.466 15.143 15.7302 15.143 15.8927 15.3055L17.071 16.4838C17.2335 16.6463 17.2335 16.9105 17.071 17.073C16.9902 17.1538 16.8835 17.1946 16.7768 17.1946Z" fill="#2F5048"/>
<path d="M10.0007 20C9.77065 20 9.58398 19.8133 9.58398 19.5833V17.9167C9.58398 17.6867 9.77065 17.5 10.0007 17.5C10.2307 17.5 10.4173 17.6867 10.4173 17.9167V19.5833C10.4173 19.8133 10.2307 20 10.0007 20Z" fill="#2F5048"/>
<path d="M3.22352 17.1946C3.11685 17.1946 3.01018 17.1538 2.92852 17.073C2.76602 16.9105 2.76602 16.6463 2.92852 16.4838L4.10685 15.3055C4.26935 15.143 4.53352 15.143 4.69602 15.3055C4.85852 15.468 4.85852 15.7321 4.69602 15.8946L3.51768 17.073C3.43685 17.1538 3.33018 17.1946 3.22352 17.1946Z" fill="#2F5048"/>
<path d="M2.08333 10.4154H0.416667C0.186667 10.4154 0 10.2287 0 9.9987C0 9.7687 0.186667 9.58203 0.416667 9.58203H2.08333C2.31333 9.58203 2.5 9.7687 2.5 9.9987C2.5 10.2287 2.31333 10.4154 2.08333 10.4154Z" fill="#2F5048"/>
<path d="M4.40102 4.81964C4.29435 4.81964 4.18768 4.7788 4.10602 4.69797L2.92852 3.51964C2.76602 3.35714 2.76602 3.09297 2.92852 2.93047C3.09102 2.76797 3.35518 2.76797 3.51768 2.93047L4.69602 4.1088C4.85852 4.2713 4.85852 4.53547 4.69602 4.69797C4.61435 4.7788 4.50768 4.81964 4.40102 4.81964Z" fill="#2F5048"/>
<path d="M8.81158 16.6663C8.76241 16.6663 8.71408 16.658 8.66574 16.6405C8.48324 16.5722 8.37241 16.3872 8.39824 16.1955L9.10908 10.833H6.25074C6.09324 10.833 5.94908 10.7438 5.87824 10.603C5.80741 10.4622 5.82241 10.293 5.91741 10.1663L10.9174 3.49967C11.0332 3.34467 11.2391 3.28967 11.4149 3.36634C11.5916 3.44217 11.6941 3.628 11.6624 3.818L10.9091 8.333H13.7507C13.9041 8.333 14.0449 8.41717 14.1174 8.55217C14.1899 8.68717 14.1824 8.8505 14.0991 8.97967L9.15991 16.4797C9.08074 16.5988 8.94824 16.6663 8.81158 16.6663ZM7.08408 9.99967H9.58408C9.70491 9.99967 9.81824 10.0522 9.89741 10.1422C9.97658 10.2313 10.0132 10.3522 9.99741 10.4713L9.46324 14.503L12.9774 9.16634H10.4174C10.2949 9.16634 10.1791 9.11301 10.0991 9.01884C10.0199 8.92551 9.98574 8.80134 10.0066 8.68134L10.5591 5.36634L7.08408 9.99967Z" fill="#2F5048"/>
</g>
<defs>
<clipPath id="clip0_1321_7200">
<rect width="20" height="20" fill="white"/>
</clipPath>
</defs>
</svg>
