<svg width="24" height="24" viewBox="0 0 24 24" fill="none" xmlns="http://www.w3.org/2000/svg">
<path d="M20.2516 1.7639V22.238C20.2516 22.8228 19.8339 23.2968 19.3188 23.2968H4.53434C4.01918 23.2968 3.60156 22.8228 3.60156 22.238V4.95448H6.41542C6.93058 4.95448 7.3482 4.48043 7.3482 3.89566V0.705078H19.3188C19.8339 0.705078 20.2516 1.17913 20.2516 1.7639Z" fill="#E9EDF4"/>
<path d="M3.60156 4.95448H6.41542C6.93058 4.95448 7.3482 4.48043 7.3482 3.89566V0.705078L3.60156 4.95448Z" fill="#D2DBEA"/>
<path d="M22.5886 7.06078V11.9737C22.5886 12.5585 22.1145 13.0325 21.5298 13.0325H2.47093C1.88616 13.0325 1.41211 12.5585 1.41211 11.9737V7.06078C1.41211 6.476 1.88616 6.00195 2.47093 6.00195H21.5298C22.1145 6.00195 22.5886 6.476 22.5886 7.06078Z" fill="#00C0E8"/>
<path d="M17.6906 16.0568C17.6906 16.3101 17.5126 16.512 17.2895 16.512H6.56706C6.34693 16.512 6.16602 16.3101 6.16602 16.0568C6.16602 15.8035 6.34693 15.6016 6.56706 15.6016H17.2895C17.5126 15.6016 17.6906 15.8035 17.6906 16.0568Z" fill="#D2DBEA"/>
<path d="M17.6906 18.3888C17.6906 18.6421 17.5126 18.8441 17.2895 18.8441H6.56706C6.34693 18.8441 6.16602 18.6421 6.16602 18.3888C6.16602 18.1355 6.34693 17.9336 6.56706 17.9336H17.2895C17.5126 17.9336 17.6906 18.1355 17.6906 18.3888Z" fill="#D2DBEA"/>
<path d="M7.50977 11.1969C7.46668 11.154 7.44531 11.1011 7.44531 11.0382V8.00339C7.44531 7.94066 7.46668 7.88689 7.50977 7.84226C7.5525 7.79762 7.60558 7.77539 7.66831 7.77539H8.79883C9.11282 7.77539 9.36926 7.8283 9.56744 7.93394C9.76597 8.03975 9.90797 8.17538 9.99414 8.34065C10.08 8.50592 10.123 8.68446 10.123 8.87609C10.123 9.0679 10.08 9.24644 9.99414 9.41171C9.90797 9.57715 9.76597 9.7126 9.56744 9.81842C9.36926 9.92423 9.11282 9.97696 8.79883 9.97696H7.89648V11.0382C7.89648 11.1011 7.87408 11.154 7.82962 11.1969C7.78481 11.2398 7.73104 11.2614 7.66831 11.2614C7.60558 11.2614 7.5525 11.2398 7.50977 11.1969ZM8.75437 9.55061C9.09145 9.55061 9.32858 9.48616 9.46576 9.35725C9.60294 9.22817 9.67153 9.0679 9.67153 8.87609C9.67153 8.68446 9.60294 8.52401 9.46576 8.39511C9.32858 8.2662 9.09145 8.20175 8.75437 8.20175H7.89648V9.55061H8.75437Z" fill="white"/>
<path d="M7.66866 11.35C7.58318 11.35 7.50666 11.3188 7.44773 11.2597C7.38775 11.1999 7.35742 11.1256 7.35742 11.0385V8.00373C7.35742 7.91739 7.38741 7.8426 7.44669 7.78125C7.50528 7.72007 7.58215 7.6875 7.66866 7.6875H8.79917C9.12661 7.6875 9.3989 7.74437 9.60915 7.85639C9.8225 7.97013 9.97829 8.11937 10.0727 8.30015C10.1648 8.47765 10.2116 8.67153 10.2116 8.87644C10.2116 9.08134 10.1648 9.27539 10.0727 9.45272C9.97863 9.6335 9.8225 9.78292 9.60915 9.89666C9.39924 10.0087 9.12695 10.0655 8.79917 10.0655H7.98506V11.0385C7.98506 11.1247 7.95267 11.2016 7.89131 11.2607C7.82927 11.32 7.75448 11.35 7.66866 11.35ZM7.66866 7.86397C7.62971 7.86397 7.59972 7.87655 7.57387 7.90361C7.54665 7.93187 7.53389 7.96375 7.53389 8.00373V11.0385C7.53389 11.078 7.54596 11.1087 7.5725 11.1347V11.1351C7.62557 11.1881 7.71243 11.1876 7.76896 11.1335C7.79584 11.1075 7.80859 11.0773 7.80859 11.0385V9.88907H8.79917C9.09766 9.88907 9.34203 9.83927 9.52608 9.74087C9.70772 9.64419 9.83869 9.51993 9.91625 9.37121C9.99517 9.21938 10.0352 9.05291 10.0352 8.87644C10.0352 8.70014 9.99517 8.53366 9.91625 8.38166C9.83869 8.23311 9.70738 8.10869 9.52642 8.01218C9.34168 7.91378 9.09731 7.86397 8.79917 7.86397H7.66866ZM8.75471 9.63919H7.80859V8.11386H8.75471C9.11834 8.11386 9.37098 8.18486 9.52642 8.33117C9.68153 8.47679 9.76011 8.66033 9.76011 8.87644C9.76011 9.09254 9.68153 9.27608 9.52642 9.42187C9.37098 9.56819 9.11834 9.63919 8.75471 9.63919ZM7.98506 9.46272H8.75471C9.06698 9.46272 9.28619 9.40568 9.40579 9.29331C9.52539 9.18061 9.58364 9.04429 9.58364 8.87644C9.58364 8.70858 9.52539 8.57227 9.40579 8.45973C9.28619 8.34737 9.06698 8.29033 8.75471 8.29033H7.98506V9.46272Z" fill="white"/>
<path d="M10.8418 11.1721C10.7987 11.1292 10.7773 11.0763 10.7773 11.0134V8.00339C10.7773 7.94066 10.7987 7.88689 10.8418 7.84226C10.8845 7.79762 10.9376 7.77539 11.0003 7.77539H11.9971C12.3739 7.77539 12.6937 7.8588 12.9567 8.02579C13.2193 8.19278 13.4168 8.40838 13.5492 8.67291C13.6812 8.93744 13.7474 9.21507 13.7474 9.50597C13.7474 9.79688 13.6812 10.0745 13.5492 10.339C13.4168 10.6036 13.2193 10.8192 12.9567 10.9862C12.6937 11.1531 12.3739 11.2366 11.9971 11.2366H11.0003C10.9376 11.2366 10.8845 11.215 10.8418 11.1721ZM11.9427 10.815C12.2136 10.815 12.4514 10.7597 12.6565 10.6489C12.8616 10.5383 13.0201 10.3845 13.1325 10.1877C13.2448 9.9911 13.3014 9.76379 13.3014 9.50597C13.3014 9.24816 13.2448 9.02085 13.1325 8.82405C13.0201 8.62741 12.8616 8.47369 12.6565 8.36288C12.4514 8.25224 12.2136 8.19675 11.9427 8.19675H11.2285V10.815H11.9427Z" fill="white"/>
<path d="M11.9975 11.3251H11.0007C10.9152 11.3251 10.8387 11.2939 10.7798 11.2348C10.7198 11.175 10.6895 11.1008 10.6895 11.0137V8.00373C10.6895 7.91739 10.7194 7.8426 10.7787 7.78125C10.8373 7.72007 10.9142 7.6875 11.0007 7.6875H11.9975C12.3897 7.6875 12.7282 7.77642 13.0043 7.95169C13.2796 8.12661 13.4895 8.35616 13.6284 8.63379C13.766 8.9097 13.8359 9.20318 13.8359 9.50632C13.8359 9.80946 13.766 10.1029 13.6284 10.3788C13.4895 10.6565 13.2796 10.886 13.0043 11.0609C12.7282 11.2362 12.3897 11.3251 11.9975 11.3251ZM11.0007 7.86397C10.9617 7.86397 10.9318 7.87655 10.9059 7.90361C10.8787 7.93187 10.8659 7.96375 10.8659 8.00373V11.0137C10.8659 11.0532 10.878 11.0837 10.9045 11.1099V11.1102C10.9307 11.1364 10.9614 11.1487 11.0007 11.1487H11.9975C12.3556 11.1487 12.6623 11.069 12.9098 10.9121C13.1576 10.7545 13.3462 10.5486 13.4706 10.2999C13.596 10.0488 13.6595 9.78171 13.6595 9.50632C13.6595 9.23093 13.596 8.96381 13.4706 8.71272C13.3462 8.46404 13.1576 8.2581 12.9098 8.10059C12.6623 7.94359 12.3556 7.86397 11.9975 7.86397H11.0007ZM11.943 10.9036H11.1406V8.10886H11.943C12.227 8.10886 12.4814 8.16831 12.6989 8.2855C12.9174 8.40372 13.0894 8.57037 13.2093 8.78062C13.3293 8.99035 13.3899 9.23455 13.3899 9.50632C13.3899 9.77809 13.3293 10.0223 13.2093 10.2318C13.0894 10.4423 12.9174 10.6089 12.6989 10.727C12.4817 10.8442 12.2274 10.9036 11.943 10.9036ZM11.3171 10.7271H11.943C12.1977 10.7271 12.4238 10.6747 12.6148 10.5717C12.804 10.4695 12.9526 10.3258 13.0563 10.1443C13.1604 9.96163 13.2135 9.74707 13.2135 9.50632C13.2135 9.26557 13.1604 9.05101 13.0563 8.86816C12.9526 8.68687 12.804 8.54314 12.6148 8.44077C12.4235 8.33772 12.1974 8.28533 11.943 8.28533H11.3171V10.7271Z" fill="white"/>
<path d="M14.5664 11.1969C14.5233 11.154 14.502 11.1011 14.502 11.0382V8.00339C14.502 7.94066 14.5233 7.88689 14.5664 7.84226C14.6091 7.79762 14.6622 7.77539 14.725 7.77539H16.6541C16.7134 7.77539 16.7637 7.79607 16.805 7.83726C16.8464 7.87862 16.8671 7.92911 16.8671 7.98857C16.8671 8.04802 16.8464 8.09766 16.805 8.13729C16.7637 8.17693 16.7134 8.19675 16.6541 8.19675H14.9531V9.29262H16.4804C16.54 9.29262 16.5903 9.31348 16.6317 9.35466C16.673 9.39602 16.6937 9.44635 16.6937 9.50597C16.6937 9.56543 16.673 9.61506 16.6317 9.6547C16.5903 9.69434 16.54 9.71415 16.4804 9.71415H14.9531V11.0382C14.9531 11.1011 14.9307 11.154 14.8863 11.1969C14.8415 11.2398 14.7877 11.2614 14.725 11.2614C14.6622 11.2614 14.6091 11.2398 14.5664 11.1969Z" fill="white"/>
<path d="M14.7253 11.35C14.6398 11.35 14.5633 11.3188 14.5044 11.2597C14.4444 11.1999 14.4141 11.1256 14.4141 11.0385V8.00373C14.4141 7.91739 14.444 7.8426 14.5033 7.78125C14.5619 7.72007 14.6388 7.6875 14.7253 7.6875H16.6544C16.7375 7.6875 16.8092 7.71697 16.8678 7.77505C16.9253 7.83278 16.9557 7.90654 16.9557 7.98891C16.9557 8.07198 16.9246 8.14539 16.8664 8.2014C16.8081 8.25707 16.7368 8.28533 16.6544 8.28533H15.0417V9.20473H16.4807C16.5641 9.20473 16.6358 9.2342 16.6944 9.29245C16.7526 9.35087 16.7823 9.42291 16.7823 9.50632C16.7823 9.58938 16.7513 9.6628 16.693 9.71881C16.6348 9.77447 16.5634 9.80273 16.4807 9.80273H15.0417V11.0385C15.0417 11.1247 15.0093 11.2016 14.948 11.2607C14.8859 11.32 14.8111 11.35 14.7253 11.35ZM14.7253 7.86397C14.6864 7.86397 14.6564 7.87655 14.6305 7.90361C14.6033 7.93187 14.5905 7.96375 14.5905 8.00373V11.0385C14.5905 11.078 14.6026 11.1087 14.6291 11.1347V11.1351C14.6822 11.1881 14.7691 11.1876 14.8256 11.1335C14.8525 11.1075 14.8652 11.0773 14.8652 11.0385V9.62626H16.4807C16.5176 9.62626 16.5462 9.61523 16.571 9.59128C16.5948 9.56853 16.6058 9.54148 16.6058 9.50632C16.6058 9.4703 16.5944 9.44204 16.5696 9.41739C16.5448 9.39275 16.5165 9.3812 16.4807 9.3812H14.8652V8.10886H16.6544C16.6909 8.10886 16.7196 8.09783 16.7444 8.07387C16.7682 8.05113 16.7792 8.02407 16.7792 7.98891C16.7792 7.9529 16.7678 7.92463 16.743 7.89999C16.7182 7.87552 16.6903 7.86397 16.6544 7.86397H14.7253Z" fill="white"/>
</svg>
