<svg xmlns="http://www.w3.org/2000/svg" display="none">
    <symbol id="search" viewBox="0 0 15 15">
        <path d="M14.8582 14.1839L10.9854 10.3731C11.9996 9.27122 12.6227 7.81401 12.6227 6.21051C12.6222 2.78032 9.79685 0 6.31134 0C2.82583 0 0.000488281 2.78032 0.000488281 6.21051C0.000488281 9.6407 2.82583 12.421 6.31134 12.421C7.81732 12.421 9.19857 11.9001 10.2835 11.0341L14.1713 14.86C14.3607 15.0466 14.6683 15.0466 14.8577 14.86C15.0476 14.6734 15.0476 14.3705 14.8582 14.1839ZM6.31134 11.4655C3.36222 11.4655 0.971502 9.11277 0.971502 6.21051C0.971502 3.30825 3.36222 0.955524 6.31134 0.955524C9.26048 0.955524 11.6512 3.30825 11.6512 6.21051C11.6512 9.11277 9.26048 11.4655 6.31134 11.4655Z"/>
    </symbol>

    <symbol id="clock" viewBox="0 0 16 16">
        <path d="M8 0C3.58862 0 0 3.58862 0 8C0 12.4114 3.58862 16 8 16C12.4114 16 16 12.4114 16 8C16 3.58862 12.4114 0 8 0ZM11.8047 12.1379C11.6747 12.2679 11.504 12.3334 11.3334 12.3334C11.1627 12.3334 10.9919 12.2679 10.8621 12.1379L7.52869 8.80469C7.40332 8.68005 7.33337 8.51062 7.33337 8.33337V4C7.33337 3.63135 7.63196 3.33337 8 3.33337C8.36804 3.33337 8.66663 3.63135 8.66663 4V8.05737L11.8047 11.1953C12.0653 11.4561 12.0653 11.8773 11.8047 12.1379V12.1379Z"/>
    </symbol>

    <symbol id="phone" viewBox="0 0 16 16">
        <path d="M6.62534 9.37471C5.09817 7.84754 4.75334 6.32037 4.67555 5.70851C4.65381 5.53933 4.71203 5.36966 4.83306 5.24947L6.06893 4.01416C6.25072 3.83248 6.28299 3.54933 6.14672 3.3314L4.179 0.275955C4.02824 0.034644 3.7187 -0.0524474 3.46424 0.0748512L0.305339 1.56258C0.0995625 1.6639 -0.0214727 1.88254 0.00189102 2.11071C0.167408 3.68313 0.852925 7.54851 4.65155 11.3474C8.45017 15.1463 12.315 15.8315 13.8882 15.9971C14.1164 16.0204 14.3351 15.8994 14.4364 15.6936L15.9241 12.5347C16.0509 12.2808 15.9644 11.9721 15.7241 11.8211L12.6687 9.85389C12.4509 9.71748 12.1677 9.74951 11.9859 9.93113L10.7506 11.167C10.6304 11.288 10.4607 11.3462 10.2915 11.3245C9.67969 11.2467 8.15251 10.9019 6.62534 9.37471Z"/>
        <path d="M12.6896 8.55177C12.3849 8.55177 12.1379 8.30475 12.1379 8.00005C12.1353 5.7158 10.2842 3.8647 7.99997 3.86212C7.69526 3.86212 7.44824 3.6151 7.44824 3.31039C7.44824 3.00568 7.69526 2.75867 7.99997 2.75867C10.8934 2.76186 13.2382 5.10664 13.2413 8.00005C13.2413 8.30475 12.9943 8.55177 12.6896 8.55177Z"/>
        <path d="M15.4483 8.55172C15.1435 8.55172 14.8965 8.30471 14.8965 8C14.8923 4.1929 11.8071 1.1077 7.99997 1.10345C7.69526 1.10345 7.44824 0.856433 7.44824 0.551724C7.44824 0.247015 7.69526 0 7.99997 0C12.4162 0.00486507 15.9951 3.58374 16 8C16 8.14633 15.9419 8.28666 15.8384 8.39013C15.7349 8.4936 15.5946 8.55172 15.4483 8.55172Z"/>
    </symbol>

    <symbol id="mail" viewBox="0 0 16 12">
        <path d="M15.8588 1.17883L11.0063 6.00005L15.8588 10.8213C15.9465 10.6379 15.9998 10.4352 15.9998 10.2188V1.7813C15.9998 1.56483 15.9465 1.36218 15.8588 1.17883Z"/>
        <path d="M14.5937 0.375H1.40618C1.18971 0.375 0.987055 0.428219 0.803711 0.515938L7.00568 6.68666C7.55406 7.23503 8.44581 7.23503 8.99418 6.68666L15.1962 0.515938C15.0128 0.428219 14.8102 0.375 14.5937 0.375Z"/>
        <path d="M0.140937 1.17883C0.0532187 1.36218 0 1.56483 0 1.7813V10.2188C0 10.4353 0.0532187 10.638 0.140937 10.8213L4.9934 6.00005L0.140937 1.17883Z"/>
        <path d="M10.3437 6.66284L9.65703 7.3495C8.74331 8.26321 7.25653 8.26321 6.34281 7.3495L5.65618 6.66284L0.803711 11.4841C0.987055 11.5718 1.18971 11.625 1.40618 11.625H14.5937C14.8102 11.625 15.0128 11.5718 15.1962 11.4841L10.3437 6.66284Z"/>
    </symbol>

    <symbol id="arrow-right" viewBox="0 0 21 16">
        <path d="M20.7071 8.70711C21.0976 8.31658 21.0976 7.68342 20.7071 7.29289L14.3431 0.928932C13.9526 0.538408 13.3195 0.538408 12.9289 0.928932C12.5384 1.31946 12.5384 1.95262 12.9289 2.34315L18.5858 8L12.9289 13.6569C12.5384 14.0474 12.5384 14.6805 12.9289 15.0711C13.3195 15.4616 13.9526 15.4616 14.3431 15.0711L20.7071 8.70711ZM0 9H20V7H0V9Z"/>
    </symbol>

    <symbol id="arrow-bottom-filter" viewBox="0 0 10 7">
        <path d="M1 1L5 5L9 1" stroke-width="2"/>
    </symbol>

    <symbol id="location" viewBox="0 0 16 16">
        <path d="M7.99967 0C4.80452 0 2.20508 2.59944 2.20508 5.79456C2.20508 9.75981 7.39067 15.581 7.61145 15.8269C7.81883 16.0579 8.18089 16.0575 8.38789 15.8269C8.60867 15.581 13.7943 9.75981 13.7943 5.79456C13.7942 2.59944 11.1948 0 7.99967 0ZM7.99967 8.70997C6.39211 8.70997 5.0843 7.40212 5.0843 5.79456C5.0843 4.187 6.39214 2.87919 7.99967 2.87919C9.6072 2.87919 10.915 4.18703 10.915 5.79459C10.915 7.40216 9.6072 8.70997 7.99967 8.70997Z"/>
    </symbol>

    <symbol id="whatsapp" viewBox="0 0 20 20">
        <path d="M16.6147 3.38606C15.0541 1.80986 12.9816 0.843235 10.771 0.66053C8.56047 0.477824 6.35739 1.09107 4.55916 2.38965C2.76093 3.68824 1.48594 5.58667 0.964162 7.74252C0.442384 9.89838 0.708169 12.1697 1.71358 14.1469L0.726643 18.9383C0.716403 18.986 0.716113 19.0353 0.725791 19.0831C0.73547 19.1309 0.754909 19.1762 0.782893 19.2162C0.823887 19.2768 0.882404 19.3235 0.950629 19.35C1.01885 19.3765 1.09354 19.3816 1.16471 19.3645L5.86074 18.2514C7.83232 19.2314 10.0876 19.4801 12.2254 18.9532C14.3631 18.4264 16.2446 17.1583 17.5351 15.3744C18.8256 13.5906 19.4413 11.4067 19.2728 9.2115C19.1043 7.01627 18.1624 4.95202 16.6147 3.38606V3.38606ZM15.1505 15.0724C14.0707 16.1492 12.6803 16.86 11.1751 17.1046C9.66995 17.3493 8.12596 17.1154 6.76074 16.4361L6.10619 16.1122L3.22721 16.794L3.23574 16.7582L3.83233 13.8605L3.51187 13.2281C2.8143 11.8581 2.56823 10.3025 2.80889 8.78409C3.04956 7.26569 3.76462 5.8624 4.85165 4.77527C6.21751 3.40983 8.06976 2.64277 10.0011 2.64277C11.9324 2.64277 13.7847 3.40983 15.1505 4.77527C15.1621 4.78861 15.1747 4.80114 15.188 4.81277C16.5369 6.18173 17.29 8.02845 17.283 9.95033C17.2759 11.8722 16.5094 13.7134 15.1505 15.0724V15.0724Z"/>
        <path d="M14.8954 12.9466C14.5426 13.5023 13.9852 14.1824 13.2846 14.3512C12.0573 14.6478 10.1738 14.3614 7.83007 12.1762L7.80109 12.1506C5.74029 10.2398 5.20507 8.64948 5.33461 7.38812C5.4062 6.67221 6.00279 6.02448 6.50563 5.60175C6.58513 5.53391 6.6794 5.4856 6.78091 5.4607C6.88241 5.4358 6.98834 5.43499 7.09021 5.45835C7.19208 5.4817 7.28708 5.52857 7.3676 5.59521C7.44812 5.66184 7.51193 5.74639 7.55393 5.8421L8.31245 7.54664C8.36174 7.65716 8.38001 7.77902 8.3653 7.89913C8.35058 8.01925 8.30344 8.1331 8.22893 8.22845L7.84541 8.72618C7.76311 8.82895 7.71346 8.954 7.70282 9.08523C7.69219 9.21646 7.72107 9.34786 7.78575 9.46254C8.00052 9.83925 8.51529 10.3932 9.08631 10.9063C9.72722 11.4858 10.438 12.0159 10.888 12.1966C11.0084 12.2458 11.1408 12.2578 11.2681 12.2311C11.3954 12.2044 11.5118 12.1401 11.6022 12.0466L12.0471 11.5983C12.133 11.5137 12.2397 11.4533 12.3565 11.4234C12.4733 11.3934 12.5959 11.395 12.7119 11.4279L14.5136 11.9392C14.613 11.9697 14.7041 12.0225 14.7799 12.0936C14.8558 12.1647 14.9143 12.2522 14.9512 12.3494C14.988 12.4466 15.0022 12.551 14.9925 12.6545C14.9828 12.758 14.9496 12.8579 14.8954 12.9466V12.9466Z"/>
    </symbol>

    <symbol id="telegram" viewBox="0 0 17 14">
        <path d="M15.9083 0.0540573L15.627 0.161876L0.360436 5.97592C0.252248 6.01129 0.158219 6.08359 0.0930865 6.18151C0.0279536 6.27943 -0.0046014 6.39742 0.000524612 6.51699C0.00565062 6.63657 0.0481677 6.75097 0.121412 6.84226C0.194655 6.93354 0.294486 6.99657 0.405256 7.02144L4.35713 8.16497L5.09434 10.452L5.83155 12.7391C5.8739 12.8512 5.9415 12.9507 6.02848 13.0289C6.11546 13.1072 6.2192 13.1618 6.33068 13.188C6.44216 13.2143 6.55801 13.2113 6.66818 13.1795C6.77835 13.1477 6.87951 13.0879 6.96286 13.0054L9.00448 10.9666L13.0135 13.8402C13.5035 14.193 14.202 13.9316 14.3272 13.3501L16.9824 0.94928C17.1122 0.33504 16.5002 -0.169748 15.9083 0.0540573ZM13.9594 2.8067L7.06177 8.76615L6.73722 9.04713C6.66592 9.10688 6.61937 9.19357 6.60739 9.2889L6.53475 9.92275L6.33538 11.7034C6.33702 11.7251 6.33045 11.7465 6.31712 11.7631C6.30379 11.7796 6.28479 11.7899 6.26429 11.7916C6.2438 11.7933 6.22349 11.7864 6.20784 11.7723C6.19219 11.7582 6.18247 11.7381 6.18083 11.7165L5.61981 9.93745L5.04025 8.11596C5.01573 8.03409 5.01899 7.94574 5.04945 7.86613C5.07992 7.78652 5.13569 7.72063 5.20716 7.67979L12.3845 3.3311L13.7353 2.51429C13.9316 2.3934 14.1325 2.65641 13.9594 2.8067Z"/>
    </symbol>

    <symbol id="close" viewBox="0 0 20 20">
        <path d="M1 1L19 19"/>
        <path d="M19 1L1 19"/>
    </symbol>

    <symbol id="camera" viewBox="0 0 31 28">
        <path d="M29.3974 9.08971H24.8554L23.8875 6.50849C23.7468 6.13317 23.388 5.88458 22.9872 5.88458H14.0128C13.612 5.88458 13.2532 6.13317 13.1125 6.50849L12.1446 9.08971H7.60256C6.7175 9.08971 6 9.80721 6 10.6923V23.5128C6 24.3979 6.7175 25.1154 7.60256 25.1154H29.3974C30.2825 25.1154 31 24.3979 31 23.5128V10.6923C31 9.80721 30.2825 9.08971 29.3974 9.08971ZM18.5 11.0128C21.8579 11.0128 24.5897 13.7446 24.5897 17.1025C24.5897 20.4604 21.8579 23.1923 18.5 23.1923C15.1421 23.1923 12.4103 20.4604 12.4103 17.1025C12.4103 13.7446 15.1421 11.0128 18.5 11.0128Z"
              fill="#8FBA44"/>
        <path d="M14.333 17.1025C14.333 19.4 16.2022 21.2692 18.4997 21.2692C20.7972 21.2692 22.6663 19.4 22.6663 17.1025C22.6663 14.805 20.7972 12.9359 18.4997 12.9359C16.2022 12.9359 14.333 14.805 14.333 17.1025Z"
              fill="#8FBA44"/>
        <path d="M5.88889 1.4H5.28889V2V5.28889L2 5.28889L1.4 5.28889V5.88889L1.4 8.11111V8.71111H2L5.28889 8.71111V12V12.6H5.88889H8.11111H8.71111V12V8.71111L12 8.71111H12.6V8.11111V5.88889V5.28889H12L8.71111 5.28889V2V1.4H8.11111H5.88889Z"
              fill="#8FBA44" stroke="white" stroke-width="1.2"/>
    </symbol>

    <symbol id="tab-icon1" viewBox="0 0 19 19">
        <rect width="19" height="5" rx="1"/>
        <rect y="7" width="19" height="5" rx="1"/>
        <rect y="14" width="19" height="5" rx="1"/>
    </symbol>

    <symbol id="tab-icon2" viewBox="0 0 19 19">
        <rect width="5" height="5" rx="1"/>
        <rect y="7" width="5" height="5" rx="1"/>
        <rect y="14" width="5" height="5" rx="1"/>
        <rect x="7" width="5" height="5" rx="1"/>
        <rect x="7" y="7" width="5" height="5" rx="1"/>
        <rect x="7" y="14" width="5" height="5" rx="1"/>
        <rect x="14" width="5" height="5" rx="1"/>
        <rect x="14" y="7" width="5" height="5" rx="1"/>
        <rect x="14" y="14" width="5" height="5" rx="1"/>
    </symbol>

    <symbol id="sorting" viewBox="0 0 20 20">
        <path d="M0.625 3.52579H10.1408C10.4276 4.83122 11.5934 5.81125 12.9837 5.81125C14.374 5.81125 15.5398 4.83125 15.8266 3.52579H19.375C19.7202 3.52579 20 3.24594 20 2.90079C20 2.55563 19.7202 2.27579 19.375 2.27579H15.8263C15.5389 0.97102 14.3716 -0.00964355 12.9837 -0.00964355C11.5951 -0.00964355 10.4283 0.970864 10.1411 2.27579H0.625C0.279844 2.27579 0 2.55563 0 2.90079C0 3.24594 0.279844 3.52579 0.625 3.52579V3.52579ZM11.3233 2.90243C11.3233 2.9002 11.3234 2.89793 11.3234 2.89571C11.3261 1.98293 12.0709 1.2404 12.9837 1.2404C13.8952 1.2404 14.6401 1.98192 14.644 2.89426L14.6441 2.90344C14.6427 3.81778 13.8984 4.56129 12.9837 4.56129C12.0694 4.56129 11.3254 3.81852 11.3233 2.90473L11.3233 2.90243ZM19.375 16.4743H15.8263C15.5389 15.1695 14.3716 14.1888 12.9837 14.1888C11.5951 14.1888 10.4283 15.1694 10.1411 16.4743H0.625C0.279844 16.4743 0 16.7541 0 17.0993C0 17.4445 0.279844 17.7243 0.625 17.7243H10.1408C10.4276 19.0297 11.5934 20.0097 12.9837 20.0097C14.374 20.0097 15.5398 19.0297 15.8266 17.7243H19.375C19.7202 17.7243 20 17.4445 20 17.0993C20 16.7541 19.7202 16.4743 19.375 16.4743V16.4743ZM12.9837 18.7597C12.0694 18.7597 11.3254 18.017 11.3233 17.1032L11.3233 17.1009C11.3233 17.0986 11.3234 17.0964 11.3234 17.0942C11.3261 16.1814 12.0709 15.4388 12.9837 15.4388C13.8952 15.4388 14.6401 16.1804 14.644 17.0927L14.6441 17.1018C14.6428 18.0163 13.8985 18.7597 12.9837 18.7597V18.7597ZM19.375 9.37504H9.85918C9.57238 8.06961 8.4066 7.08961 7.01629 7.08961C5.62598 7.08961 4.4602 8.06961 4.1734 9.37504H0.625C0.279844 9.37504 0 9.65489 0 10C0 10.3452 0.279844 10.625 0.625 10.625H4.17371C4.46109 11.9298 5.62844 12.9105 7.01629 12.9105C8.40488 12.9105 9.57172 11.9299 9.85895 10.625H19.375C19.7202 10.625 20 10.3452 20 10C20 9.65489 19.7202 9.37504 19.375 9.37504ZM8.67668 9.9984C8.67668 10.0007 8.67664 10.0029 8.67664 10.0051C8.67391 10.9179 7.9291 11.6604 7.01629 11.6604C6.10477 11.6604 5.35992 10.9189 5.35598 10.0066L5.35586 9.99747C5.35723 9.08301 6.10156 8.33961 7.01629 8.33961C7.93059 8.33961 8.67465 9.08235 8.67672 9.99618L8.67668 9.9984Z"/>
    </symbol>

    <symbol id="filter" viewBox="0 0 18 18">
        <path d="M7.4724 17.7667C7.13729 17.7686 6.81034 17.6635 6.53906 17.4667C6.33385 17.3194 6.16646 17.1255 6.05058 16.901C5.93471 16.6765 5.87365 16.4277 5.8724 16.1751V11.2167C5.8713 11.1344 5.84187 11.0549 5.78906 10.9917L0.430729 4.87507C0.182889 4.58077 0.0445065 4.20978 0.0390625 3.82507V1.82507C0.0412651 1.40216 0.210808 0.997336 0.510628 0.699077C0.810448 0.400819 1.21616 0.233393 1.63906 0.233398H16.3557C16.7786 0.233393 17.1843 0.400819 17.4842 0.699077C17.784 0.997336 17.9535 1.40216 17.9557 1.82507V3.82507C17.9503 4.20978 17.8119 4.58077 17.5641 4.87507L12.2057 10.9917C12.1541 11.0556 12.1248 11.1346 12.1224 11.2167V15.1501C12.1223 15.4854 12.0169 15.8122 11.821 16.0843C11.6251 16.3565 11.3487 16.5602 11.0307 16.6667L7.9724 17.6917C7.81051 17.742 7.64191 17.7673 7.4724 17.7667ZM1.63906 1.50007C1.5935 1.49895 1.54817 1.50697 1.50575 1.52364C1.46333 1.54031 1.42468 1.5653 1.39206 1.59714C1.35945 1.62898 1.33353 1.66702 1.31584 1.70903C1.29815 1.75103 1.28905 1.79615 1.28906 1.84173V3.84173C1.29016 3.92408 1.31959 4.00354 1.3724 4.06673L6.73073 10.1667C6.97857 10.461 7.11695 10.832 7.1224 11.2167V16.1751C7.12333 16.2299 7.13654 16.2838 7.16105 16.3328C7.18557 16.3819 7.22077 16.4248 7.26406 16.4584C7.31052 16.4882 7.363 16.5074 7.41774 16.5146C7.47248 16.5218 7.52813 16.5169 7.58073 16.5001L10.6641 15.4834C10.7344 15.4605 10.7957 15.4159 10.8391 15.356C10.8825 15.2961 10.9058 15.224 10.9057 15.1501V11.2167C10.9112 10.832 11.0496 10.461 11.2974 10.1667L16.6557 4.05007C16.7085 3.98687 16.738 3.90741 16.7391 3.82507V1.82507C16.7371 1.77788 16.7254 1.73161 16.7047 1.68918C16.684 1.64675 16.6547 1.60908 16.6186 1.57854C16.5826 1.548 16.5407 1.52526 16.4954 1.51175C16.4502 1.49825 16.4026 1.49427 16.3557 1.50007H1.63906Z"/>
        <path d="M17.3307 4.625H0.664062C0.498302 4.625 0.339331 4.55915 0.222121 4.44194C0.104911 4.32473 0.0390625 4.16576 0.0390625 4C0.0390625 3.83424 0.104911 3.67527 0.222121 3.55806C0.339331 3.44085 0.498302 3.375 0.664062 3.375H17.3307C17.4965 3.375 17.6555 3.44085 17.7727 3.55806C17.8899 3.67527 17.9557 3.83424 17.9557 4C17.9557 4.16576 17.8899 4.32473 17.7727 4.44194C17.6555 4.55915 17.4965 4.625 17.3307 4.625Z"/>
    </symbol>

    <symbol id="prev" viewBox="0 0 11 16">
        <path d="M9 2L3 8L9 14" stroke-width="3" stroke-linecap="round"/>
    </symbol>

    <symbol id="next" viewBox="0 0 11 16">
        <path d="M2 2L8 8L2 14" stroke-width="3" stroke-linecap="round"/>
    </symbol>

    <symbol id="play" viewBox="0 0 30 30">
        <path fill-rule="evenodd" clip-rule="evenodd"
              d="M15 28.5C22.4558 28.5 28.5 22.456 28.5 15C28.5 7.54416 22.456 1.49997 15 1.49997C7.54416 1.49997 1.49997 7.54416 1.49997 15C1.49997 22.4558 7.54416 28.5 15 28.5ZM15 30C23.2842 30 30 23.2842 30 15C30 6.71567 23.2842 0 15 0C6.71567 0 0 6.71567 0 15C0 23.2842 6.71567 30 15 30Z"/>
        <path fill-rule="evenodd" clip-rule="evenodd"
              d="M18.898 14.9999L12.0001 10.4014V19.5986L18.898 14.9999ZM20.2916 14.1263C20.9151 14.542 20.9151 15.458 20.2916 15.8737L12.1325 21.3132C11.4347 21.7784 10.5 21.278 10.5 20.4394V9.56053C10.5 8.7219 11.4347 8.2217 12.1325 8.68692L20.2916 14.1263Z"/>
    </symbol>

    <symbol id="arrow-left" viewBox="0 0 17 11">
        <path d="M6.45089 9.93655C6.61634 10.0946 6.61634 10.3508 6.45089 10.5088L6.06062 10.8815C5.89517 11.0395 5.62692 11.0395 5.46147 10.8815L0.124087 5.78406C-0.0413661 5.62605 -0.0413642 5.36986 0.124087 5.21184L0.514351 4.83912C0.679804 4.68111 0.948058 4.68111 1.11351 4.83912L6.45089 9.93655Z"/>
        <path d="M5.46575 0.118511C5.63121 -0.0395031 5.89946 -0.0395031 6.06491 0.118511L6.45518 0.491232C6.62063 0.649246 6.62063 0.905438 6.45518 1.06345L1.1178 6.16088C0.952345 6.31889 0.684094 6.31889 0.518641 6.16088L0.128375 5.78816C-0.0370784 5.63014 -0.0370784 5.37395 0.128375 5.21594L5.46575 0.118511Z"/>
        <path d="M17 5.64622C17 5.86969 16.8103 6.05084 16.5763 6.05084L1.83908 6.05084C1.60509 6.05084 1.41541 5.86969 1.41541 5.64622L1.41541 4.95764C1.41541 4.73417 1.60509 4.55301 1.83908 4.55301L16.5763 4.55302C16.8103 4.55302 17 4.73417 17 4.95764L17 5.64622Z"/>
    </symbol>



</svg>