<svg width="50" height="50" viewBox="0 0 50 50" fill="none" xmlns="http://www.w3.org/2000/svg">
    <g clip-path="url(#clip0_243_23251)">
        <path d="M41.2852 49.5709L32.7385 41.0256L28.5957 45.1684C28.2381 45.526 27.7188 45.6734 27.2238 45.5589C26.7289 45.4417 26.3312 45.0783 26.171 44.5963L17.8841 19.7368C17.7081 19.2103 17.8454 18.6296 18.2374 18.2376C18.6279 17.847 19.2102 17.704 19.7366 17.8842L44.5961 26.1712C45.0782 26.3314 45.4415 26.7291 45.5588 27.224C45.6747 27.7175 45.5273 28.2368 45.1683 28.5959L41.0255 32.7386L49.5707 41.2852C50.1429 41.8574 50.1429 42.7844 49.5707 43.3566L43.3565 49.5708C42.7843 50.1431 41.8573 50.1431 41.2852 49.5709Z" fill="#2F5048"/>
        <path d="M19.043 11.7188C18.2333 11.7188 17.5781 11.0636 17.5781 10.2539V1.46484C17.5781 0.655176 18.2333 0 19.043 0C19.8526 0 20.5078 0.655176 20.5078 1.46484V10.2539C20.5078 11.0636 19.8526 11.7188 19.043 11.7188Z" fill="#8FBA44"/>
        <path d="M11.7932 13.8646L5.57756 7.64895C5.0054 7.07678 5.0054 6.14973 5.57756 5.57756C6.14973 5.0054 7.07678 5.0054 7.64895 5.57756L13.8645 11.7931C14.4366 12.3653 14.4366 13.2923 13.8645 13.8645C13.2923 14.4367 12.3654 14.4367 11.7932 13.8646Z" fill="#8FBA44"/>
        <path d="M5.57756 32.5083C5.0054 31.9361 5.0054 31.0091 5.57756 30.4369L11.7931 24.2214C12.3653 23.6492 13.2923 23.6492 13.8645 24.2214C14.4366 24.7935 14.4366 25.7206 13.8645 26.2928L7.64895 32.5083C7.07678 33.0804 6.14983 33.0804 5.57756 32.5083Z" fill="#8FBA44"/>
        <path d="M24.2201 13.8645C23.648 13.2923 23.648 12.3653 24.2201 11.7931L30.4357 5.57756C31.0078 5.0054 31.9349 5.0054 32.5071 5.57756C33.0792 6.14973 33.0792 7.07678 32.5071 7.64895L26.2915 13.8645C25.7194 14.4366 24.7924 14.4366 24.2201 13.8645Z" fill="#8FBA44"/>
        <path d="M10.2539 20.5078H1.46484C0.655176 20.5078 0 19.8526 0 19.043C0 18.2333 0.655176 17.5781 1.46484 17.5781H10.2539C11.0636 17.5781 11.7188 18.2333 11.7188 19.043C11.7188 19.8526 11.0636 20.5078 10.2539 20.5078Z" fill="#8FBA44"/>
    </g>
    <defs>
        <clipPath id="clip0_243_23251">
            <rect width="50" height="50" fill="white"/>
        </clipPath>
    </defs>
</svg>
