<svg width="50" height="50" viewBox="0 0 50 50" fill="none" xmlns="http://www.w3.org/2000/svg">
    <path d="M8.15444 14.9424C7.45368 14.5377 6.55799 14.778 6.15363 15.4784C5.74889 16.1792 5.98922 17.0749 6.6896 17.4792C7.38997 17.884 8.28605 17.6436 8.6904 16.9433C9.09514 16.2425 8.85482 15.3468 8.15444 14.9424Z" fill="#8FBA44"/>
    <path d="M45.5078 11.8169H44.043V10.3521C44.043 9.54257 43.388 8.88721 42.5781 8.88721C41.7686 8.88721 41.1133 9.54257 41.1133 10.3521V11.8169H39.6484C38.839 11.8169 38.1836 12.4723 38.1836 13.2817C38.1836 14.0916 38.839 14.7466 39.6484 14.7466H41.1133V16.2114C41.1133 17.0209 41.7686 17.6763 42.5781 17.6763C43.388 17.6763 44.043 17.0209 44.043 16.2114V14.7466H45.5078C46.3173 14.7466 46.9727 14.0916 46.9727 13.2817C46.9727 12.4723 46.3173 11.8169 45.5078 11.8169Z" fill="#8FBA44"/>
    <path d="M5.95703 7.32471C5.95703 8.13457 6.61201 8.78955 7.42188 8.78955C8.23135 8.78955 8.88672 8.13457 8.88672 7.32471V5.85986H10.3516C11.161 5.85986 11.8164 5.20488 11.8164 4.39502C11.8164 3.58554 11.161 2.93018 10.3516 2.93018H8.88672V1.46533C8.88672 0.655853 8.23135 0.000488281 7.42188 0.000488281C6.61201 0.000488281 5.95703 0.655853 5.95703 1.46533V2.93018H4.49219C3.68271 2.93018 3.02734 3.58554 3.02734 4.39502C3.02734 5.20488 3.68271 5.85986 4.49219 5.85986H5.95703V7.32471Z" fill="#8FBA44"/>
    <path d="M15.2098 2.7385C16.6041 5.52781 17.3784 8.60703 17.5734 11.7191H32.427C32.6216 8.60742 33.396 5.52781 34.7902 2.7385L35.0992 2.12052C35.3811 1.55709 35.2709 0.876168 34.8246 0.429848C34.3798 -0.0164712 33.6989 -0.126716 33.1339 0.15519L28.2187 2.61262L26.0355 0.429848C25.4633 -0.142356 24.5363 -0.142356 23.9641 0.429848L21.7814 2.61262L16.8661 0.154809C16.2996 -0.126716 15.6233 -0.0179971 15.1755 0.429848C14.7291 0.875787 14.6189 1.55671 14.9008 2.12052L15.2098 2.7385Z" fill="#2F5048"/>
    <path d="M33.9684 14.7466H16.0309L10.3115 21.6687C7.50351 25.0692 5.95703 29.4709 5.95703 33.8872C5.95703 43.6757 13.4315 50.0001 24.9996 50.0001C36.5681 50.0001 44.0426 43.6757 44.0426 33.8872C44.0426 29.4709 42.4961 25.1668 39.6866 21.7664L33.9684 14.7466ZM24.984 29.9218C27.4075 29.9218 29.3785 31.8929 29.3785 34.3164C29.3785 36.2176 28.1578 37.8247 26.4645 38.4359V39.7466C26.4645 40.5561 25.8095 41.2114 24.9996 41.2114C24.1901 41.2114 23.5352 40.5561 23.5352 39.7466V38.4458C21.8254 37.8434 20.5894 36.229 20.5894 34.3164C20.5894 33.5065 21.2448 32.8515 22.0543 32.8515C22.8642 32.8515 23.5191 33.5065 23.5191 34.3164C23.5191 35.1247 24.176 35.7812 24.984 35.7812C25.7923 35.7812 26.4488 35.1247 26.4488 34.3164C26.4488 33.508 25.7923 32.8515 24.984 32.8515C22.5609 32.8515 20.5894 30.8801 20.5894 28.457C20.5894 26.5439 21.8254 24.9299 23.5352 24.3276V22.1685C23.5352 21.359 24.1901 20.7036 24.9996 20.7036C25.8095 20.7036 26.4645 21.359 26.4645 22.1685V24.3375C28.1578 24.9486 29.3785 26.5557 29.3785 28.457C29.3785 29.2668 28.7235 29.9218 27.9137 29.9218C27.1042 29.9218 26.4488 29.2668 26.4488 28.457C26.4488 27.649 25.7923 26.9921 24.984 26.9921C24.176 26.9921 23.5191 27.649 23.5191 28.457C23.5191 29.2653 24.1756 29.9218 24.984 29.9218V29.9218Z" fill="#2F5048"/>
</svg>
